Vazir-Bold.sfdir
StartChar: exclam
Encoding: 33 33 1
Width: 877
GlyphClass: 2
Flags: W
LayerCount: 2
Fore
SplineSet
279.78 1393.42 m 1,0,-1
 598.18 1393.42 l 1,1,-1
 598.18 865.407794246 l 1,2,-1
 551.38593898 481.88 l 1,3,-1
 326.57406102 481.88 l 1,4,-1
 279.78 865.407794246 l 1,5,-1
 279.78 1393.42 l 1,0,-1
279.78 324.64 m 1,6,-1
 598.18 324.64 l 1,7,-1
 598.18 10.0000146484 l 1,8,-1
 279.78 10.0000146484 l 1,9,-1
 279.78 324.64 l 1,6,-1
EndSplineSet
EndChar
StartChar: quotedbl
Encoding: 34 34 2
Width: 1002
GlyphClass: 2
Flags: W
LayerCount: 2
Fore
SplineSet
819.68 1403.42 m 1,0,-1
 819.68 881.72 l 1,1,-1
 596.9 881.72 l 1,2,-1
 596.9 1403.42 l 1,3,-1
 819.68 1403.42 l 1,0,-1
406.08 1403.42 m 1,4,-1
 406.08 881.72 l 1,5,-1
 183.3 881.72 l 1,6,-1
 183.3 1403.42 l 1,7,-1
 406.08 1403.42 l 1,4,-1
EndSplineSet
EndChar
StartChar: numbersign
Encoding: 35 35 3
Width: 1613
GlyphClass: 2
Flags: W
LayerCount: 2
Fore
SplineSet
843.540302424 1371.8 m 1,0,-1
 753.300302424 1009.9 l 1,1,-1
 1022.05302558 1009.9 l 1,2,-1
 1113.23302558 1371.8 l 1,3,-1
 1300.34801338 1371.8 l 1,4,-1
 1209.16801338 1009.9 l 1,5,-1
 1472.38 1009.9 l 1,6,-1
 1472.38 829.68 l 1,7,-1
 1164.38604308 829.68 l 1,8,-1
 1094.48954673 552.12 l 1,9,-1
 1364.28 552.12 l 1,10,-1
 1364.28 370.02 l 1,11,-1
 1050.63717854 370.02 l 1,12,-1
 960.397178539 10.0000500488 l 1,13,-1
 773.275876988 10.0000500488 l 1,14,-1
 863.515876988 370.02 l 1,15,-1
 594.737178539 370.02 l 1,16,-1
 504.497178539 10.0000500488 l 1,17,-1
 315.495876988 10.0000500488 l 1,18,-1
 405.735876988 370.02 l 1,19,-1
 140.66 370.02 l 1,20,-1
 140.66 552.12 l 1,21,-1
 446.746433682 552.12 l 1,22,-1
 517.655922733 829.68 l 1,23,-1
 248.76 829.68 l 1,24,-1
 248.76 1009.9 l 1,25,-1
 564.292684589 1009.9 l 1,26,-1
 654.532684589 1371.8 l 1,27,-1
 843.540302424 1371.8 l 1,0,-1
975.435922733 829.68 m 1,28,-1
 706.633566318 829.68 l 1,29,-1
 635.724077267 552.12 l 1,30,-1
 904.526433682 552.12 l 1,31,-1
 975.435922733 829.68 l 1,28,-1
EndSplineSet
EndChar
StartChar: dollar
Encoding: 36 36 4
Width: 1299
GlyphClass: 2
Flags: W
LayerCount: 2
Fore
SplineSet
1168.83984375 373.180664062 m 0,0,1
 1168.83984375 38.0132208433 1168.83984375 38.0132208433 715.190547569 11.330078125 c 1,2,-1
 715.190547569 -272.940429688 l 1,3,-1
 587.716511413 -272.940429688 l 1,4,-1
 586.811412639 9.609375 l 1,5,6
 357.092151311 19.1488655353 357.092151311 19.1488655353 152.280273438 93.4658203125 c 1,7,-1
 152.280273438 316.51171875 l 1,8,9
 363.665159525 211.658144488 363.665159525 211.658144488 587.7475595 203.984375 c 1,10,-1
 587.7475595 515.005859375 l 1,11,-1
 549.895237357 522.149414062 l 1,12,13
 267.724148983 573.075136601 267.724148983 573.075136601 191.01953125 705.98828125 c 0,14,15
 150.400390625 776.372801413 150.400390625 776.372801413 150.400390625 879.840820312 c 0,16,17
 150.400390625 1043.36914062 150.400390625 1043.36914062 262.424804688 1135.27490234 c 128,-1,18
 374.412620352 1227.15063843 374.412620352 1227.15063843 586.802004128 1235.88671875 c 1,19,-1
 587.706162051 1452.63964844 l 1,20,-1
 715.190547569 1452.63964844 l 1,21,-1
 715.190547569 1240.02832031 l 1,22,23
 903.022694384 1224.4297381 903.022694384 1224.4297381 1084.24023438 1176.70800781 c 1,24,-1
 1084.24023438 960.59375 l 1,25,26
 901.069813554 1034.95615205 901.069813554 1034.95615205 715.190547569 1044.50683594 c 1,27,-1
 715.190547569 755.921875 l 1,28,-1
 752.167878173 748.725585938 l 1,29,30
 981.619140625 711.569335938 981.619140625 711.569335938 1075.75097656 625.703125 c 0,31,32
 1168.83984375 540.788459489 1168.83984375 540.788459489 1168.83984375 373.180664062 c 0,0,1
427.201665728 912.740234375 m 0,33,34
 427.201665728 793.846199062 427.201665728 793.846199062 577.009625701 775.90625 c 2,35,-1
 587.7475595 774.620117188 l 1,36,-1
 587.7475595 1041.75878906 l 1,37,38
 510.16348638 1037.22457179 510.16348638 1037.22457179 468.682576054 1002.27341871 c 128,-1,39
 427.201665728 967.322265625 427.201665728 967.322265625 427.201665728 912.740234375 c 0,33,34
715.190547569 207.96484375 m 1,40,41
 892.038568647 210.073716619 892.038568647 210.073716619 892.038568647 343.099609375 c 0,42,43
 892.038568647 452.998806413 892.038568647 452.998806413 778.380931147 480.466796875 c 0,44,45
 754.953904604 486.128251045 754.953904604 486.128251045 715.190547569 490.520507812 c 1,46,-1
 715.190547569 207.96484375 l 1,40,41
EndSplineSet
EndChar
StartChar: percent
Encoding: 37 37 5
Width: 1928
GlyphClass: 2
Flags: W
LayerCount: 2
Fore
SplineSet
1491.78 579.04 m 128,-1,1
 1425.04 579.04 1425.04 579.04 1388.38 521.23 c 128,-1,2
 1351.72 463.42 1351.72 463.42 1351.72 356.26 c 0,3,4
 1351.72 248.16 1351.72 248.16 1387.91 190.35 c 128,-1,5
 1424.1 132.54 1424.1 132.54 1491.78 132.54 c 128,-1,6
 1559.46 132.54 1559.46 132.54 1595.18 190.35 c 128,-1,7
 1630.9 248.16 1630.9 248.16 1630.9 356.26 c 0,8,9
 1630.9 463.42 1630.9 463.42 1594.71 521.23 c 128,-1,0
 1558.52 579.04 1558.52 579.04 1491.78 579.04 c 128,-1,1
1491.78 736.96 m 128,-1,11
 1666.62 736.96 1666.62 736.96 1767.2 635.44 c 128,-1,12
 1867.78 533.92 1867.78 533.92 1867.78 356.26 c 128,-1,13
 1867.78 178.6 1867.78 178.6 1767.2 75.67 c 128,-1,14
 1666.62 -27.26 1666.62 -27.26 1491.78 -27.26 c 128,-1,15
 1316.94 -27.26 1316.94 -27.26 1215.89 75.67 c 128,-1,16
 1114.84 178.6 1114.84 178.6 1114.84 356.26 c 0,17,18
 1114.84 532.98 1114.84 532.98 1215.89 634.97 c 128,-1,10
 1316.94 736.96 1316.94 736.96 1491.78 736.96 c 128,-1,11
629.8 -27.2598 m 1,19,-1
 422.06 -27.2598 l 1,20,-1
 1299.08 1428.8 l 1,21,-1
 1507.76 1428.8 l 1,22,-1
 629.8 -27.2598 l 1,19,-1
437.1 1428.8 m 128,-1,24
 611.94 1428.8 611.94 1428.8 712.05 1326.81 c 128,-1,25
 812.16 1224.82 812.16 1224.82 812.16 1047.16 c 128,-1,26
 812.16 869.5 812.16 869.5 712.05 767.04 c 128,-1,27
 611.94 664.58 611.94 664.58 437.1 664.58 c 128,-1,28
 262.26 664.58 262.26 664.58 162.15 767.04 c 128,-1,29
 62.04 869.5 62.04 869.5 62.04 1047.16 c 128,-1,30
 62.04 1224.82 62.04 1224.82 162.15 1326.81 c 128,-1,23
 262.26 1428.8 262.26 1428.8 437.1 1428.8 c 128,-1,24
437.1 1270.88 m 0,31,32
 369.42 1270.88 369.42 1270.88 332.76 1212.6 c 128,-1,33
 296.1 1154.32 296.1 1154.32 296.1 1047.16 c 0,34,35
 296.1 939.06 296.1 939.06 332.76 880.31 c 128,-1,36
 369.42 821.56 369.42 821.56 437.1 821.56 c 128,-1,37
 504.78 821.56 504.78 821.56 540.97 880.31 c 128,-1,38
 577.16 939.06 577.16 939.06 577.16 1047.16 c 0,39,40
 577.16 1154.32 577.16 1154.32 540.5 1212.6 c 128,-1,41
 503.84 1270.88 503.84 1270.88 437.1 1270.88 c 0,31,32
EndSplineSet
EndChar
StartChar: ampersand
Encoding: 38 38 6
Width: 1678
GlyphClass: 2
Flags: W
LayerCount: 2
Fore
SplineSet
1123.64 1129.16798894 m 1,0,1
 956.950438516 1211.32 956.950438516 1211.32 812.16 1211.32 c 0,2,3
 736.649525017 1211.32 736.649525017 1211.32 693.264762509 1181.20587072 c 128,-1,4
 649.88 1151.09174145 649.88 1151.09174145 649.88 1105.80465773 c 128,-1,5
 649.88 1060.51757401 649.88 1060.51757401 667.967406109 1028.4031999 c 0,6,7
 697.776367271 975.477085187 697.776367271 975.477085187 743.653899928 924.820642879 c 2,8,-1
 1136.2215003 492.900300174 l 1,9,10
 1240.02632504 630.00101218 1240.02632504 630.00101218 1251.24872161 831.3 c 1,11,-1
 1523.18054384 831.3 l 1,12,13
 1493.22858684 501.842997373 1493.22858684 501.842997373 1309.00841794 302.736350442 c 1,14,-1
 1575.38031468 9.99999267578 l 1,15,-1
 1203.89666301 9.99999267578 l 1,16,-1
 1108.97180288 115.579691587 l 1,17,18
 909.711959953 -17.2598 909.711959953 -17.2598 667.257661451 -17.2598 c 128,-1,19
 424.80336295 -17.2598 424.80336295 -17.2598 275.211681475 110.238242662 c 128,-1,20
 125.62 237.736285323 125.62 237.736285323 125.62 438.98 c 0,21,22
 125.62 573.311113689 125.62 573.311113689 191.470869945 676.922622345 c 128,-1,23
 257.321739884 780.53413099 257.321739884 780.53413099 416.958884359 884.988065035 c 1,24,25
 335.24 988.109514347 335.24 988.109514347 335.24 1091.34 c 0,26,27
 335.24 1239.64542626 335.24 1239.64542626 450.729151084 1328.7630389 c 0,28,29
 567.40970272 1418.8 567.40970272 1418.8 747.572536963 1418.8 c 128,-1,30
 927.735371206 1418.8 927.735371206 1418.8 1123.64 1366.6140875 c 1,31,-1
 1123.64 1129.16798894 l 1,0,1
565.401427124 711.773680924 m 1,32,33
 430.86 614.489879767 430.86 614.489879767 430.86 475.64 c 0,34,35
 430.86 363.256023745 430.86 363.256023745 513.759148262 284.258011872 c 128,-1,36
 596.658296523 205.26 596.658296523 205.26 712.52 205.26 c 0,37,38
 841.11576894 205.26 841.11576894 205.26 946.000376811 291.265378457 c 1,39,-1
 565.401427124 711.773680924 l 1,32,33
EndSplineSet
EndChar
StartChar: quotesingle
Encoding: 39 39 7
Width: 589
GlyphClass: 2
Flags: W
LayerCount: 2
Fore
SplineSet
406.08 1403.42 m 1,0,-1
 406.08 881.72 l 1,1,-1
 183.3 881.72 l 1,2,-1
 183.3 1403.42 l 1,3,-1
 406.08 1403.42 l 1,0,-1
EndSplineSet
EndChar
StartChar: parenleft
Encoding: 40 40 8
Width: 879
GlyphClass: 2
Flags: W
GlyphCompositionVertical: 3  uni239D%0,0,44,2703 uni239C%1,44,44,2731 uni239B%0,44,0,2740
LayerCount: 2
Fore
SplineSet
725.68 -253.8 m 1,0,-1
 446.5 -253.8 l 1,1,2
 302.68 -21.62 302.68 -21.62 234.06 187.53 c 128,-1,3
 165.44 396.68 165.44 396.68 165.44 602.54 c 128,-1,4
 165.44 808.4 165.44 808.4 234.53 1019.43 c 128,-1,5
 303.62 1230.46 303.62 1230.46 446.5 1460.76 c 1,6,-1
 725.68 1460.76 l 1,7,8
 605.36 1237.98 605.36 1237.98 545.2 1025.07 c 128,-1,9
 485.04 812.16 485.04 812.16 485.04 604.42 c 128,-1,10
 485.04 396.68 485.04 396.68 544.73 183.3 c 128,-1,11
 604.42 -30.08 604.42 -30.08 725.68 -253.8 c 1,0,-1
EndSplineSet
EndChar
StartChar: parenright
Encoding: 41 41 3
Width: 856
VWidth: 2158
GlyphClass: 2
Flags: W
GlyphCompositionVertical: 3  uni23A0%0,0,46,2854 uni239F%1,46,46,2884 uni239E%0,46,0,2893
LayerCount: 2
Fore
SplineSet
426.309570312 1534.5625 m 5,0,1
 728.299804688 1068.37952875 728.299804688 1068.37952875 728.299804688 632.861621101 c 132,-1,2
 728.299804688 197.343713449 728.299804688 197.343713449 426.268554688 -268.012695312 c 5,3,-1
 160.715820312 -268.012695312 l 5,4,-1
 199.633789062 -223.049804688 l 5,5,6
 452.734375 193.243402197 452.734375 193.243402197 452.734375 632.39379636 c 132,-1,7
 452.734375 1071.54419052 452.734375 1071.54419052 199.578125 1489.7421875 c 5,8,-1
 160.865234375 1534.5625 l 5,9,-1
 426.309570312 1534.5625 l 5,0,1
EndSplineSet
EndChar
StartChar: asterisk
Encoding: 42 42 10
Width: 1006
GlyphClass: 2
Flags: W
LayerCount: 2
Fore
SplineSet
968.2 1143.98 m 1,0,-1
 658 981.36 l 1,1,-1
 968.2 817.8 l 1,2,-1
 896.76 685.26 l 1,3,-1
 583.74 858.22 l 1,4,-1
 583.74 534.86 l 1,5,-1
 423.94 534.86 l 1,6,-1
 423.94 858.22 l 1,7,-1
 109.98 685.26 l 1,8,-1
 38.54 817.8 l 1,9,-1
 352.5 981.36 l 1,10,-1
 38.54 1143.98 l 1,11,-1
 109.98 1276.52 l 1,12,-1
 423.94 1105.44 l 1,13,-1
 423.94 1428.8 l 1,14,-1
 583.74 1428.8 l 1,15,-1
 583.74 1105.44 l 1,16,-1
 896.76 1276.52 l 1,17,-1
 968.2 1143.98 l 1,0,-1
EndSplineSet
EndChar
StartChar: plus
Encoding: 43 43 11
Width: 1613
GlyphClass: 2
Flags: W
LayerCount: 2
Fore
SplineSet
918.38 1206.96 m 1,0,-1
 918.38 714.4 l 1,1,-1
 1409.06 714.4 l 1,2,-1
 1409.06 492.56 l 1,3,-1
 918.38 492.56 l 1,4,-1
 918.38 -3.2959e-05 l 1,5,-1
 694.66 -3.2959e-05 l 1,6,-1
 694.66 492.56 l 1,7,-1
 203.98 492.56 l 1,8,-1
 203.98 714.4 l 1,9,-1
 694.66 714.4 l 1,10,-1
 694.66 1206.96 l 1,11,-1
 918.38 1206.96 l 1,0,-1
EndSplineSet
EndChar
StartChar: comma
Encoding: 44 44 12
Width: 731
GlyphClass: 2
Flags: W
LayerCount: 2
Fore
SplineSet
206.46 353.78 m 1,0,-1
 524.86 353.78 l 1,1,-1
 524.86 80.0908444366 l 1,2,-1
 297.308207571 -263.54 l 1,3,-1
 115.494108348 -263.54 l 1,4,-1
 206.46 75.7627758636 l 1,5,-1
 206.46 353.78 l 1,0,-1
EndSplineSet
EndChar
StartChar: hyphen
Encoding: 45 45 13
Width: 799
GlyphClass: 2
Flags: W
LayerCount: 2
Fore
SplineSet
114.34 680.9 m 1,0,-1
 684.66 680.9 l 1,1,-1
 684.66 427.36 l 1,2,-1
 114.34 427.36 l 1,3,-1
 114.34 680.9 l 1,0,-1
EndSplineSet
EndChar
StartChar: period
Encoding: 46 46 14
Width: 731
GlyphClass: 2
Flags: W
LayerCount: 2
Fore
SplineSet
206.46 353.78 m 1,0,-1
 524.86 353.78 l 1,1,-1
 524.86 9.9999987793 l 1,2,-1
 206.46 9.9999987793 l 1,3,-1
 206.46 353.78 l 1,0,-1
EndSplineSet
EndChar
StartChar: slash
Encoding: 47 47 8
Width: 703
GlyphClass: 2
Flags: W
LayerCount: 2
Fore
SplineSet
501.791648504 1393.42 m 5,0,-1
 689.509892953 1393.42 l 1,1,-1
 200.392519216 -168.6 l 1,2,-1
 13.6023815827 -168.6 l 1,3,-1
 501.791648504 1393.42 l 5,0,-1
EndSplineSet
EndChar
StartChar: zero
Encoding: 48 48 320
Width: 1339
Flags: W
LayerCount: 2
Fore
SplineSet
885.48 703.12 m 0,0,1
 885.48 966.32 885.48 966.32 836.13 1073.95 c 128,-1,2
 786.78 1181.58 786.78 1181.58 670.22 1181.58 c 128,-1,3
 553.66 1181.58 553.66 1181.58 503.84 1073.95 c 128,-1,4
 454.02 966.32 454.02 966.32 454.02 703.12 c 0,5,6
 454.02 437.1 454.02 437.1 503.84 328.06 c 128,-1,7
 553.66 219.02 553.66 219.02 670.22 219.02 c 0,8,9
 785.84 219.02 785.84 219.02 835.66 328.06 c 128,-1,10
 885.48 437.1 885.48 437.1 885.48 703.12 c 0,0,1
1247.38 700.3 m 0,11,12
 1247.38 351.56 1247.38 351.56 1096.98 162.15 c 128,-1,13
 946.58 -27.26 946.58 -27.26 670.22 -27.26 c 0,14,15
 392.92 -27.26 392.92 -27.26 242.52 162.15 c 128,-1,16
 92.12 351.56 92.12 351.56 92.12 700.3 c 0,17,18
 92.12 1049.98 92.12 1049.98 242.52 1239.39 c 128,-1,19
 392.92 1428.8 392.92 1428.8 670.22 1428.8 c 0,20,21
 946.58 1428.8 946.58 1428.8 1096.98 1239.39 c 128,-1,22
 1247.38 1049.98 1247.38 1049.98 1247.38 700.3 c 0,11,12
EndSplineSet
EndChar
StartChar: one
Encoding: 49 49 321
Width: 1339
Flags: W
LayerCount: 2
Fore
SplineSet
225.6 250.04 m 1,0,-1
 545.2 250.04 l 1,1,-1
 545.2 1157.14 l 1,2,-1
 217.14 1089.46 l 1,3,-1
 217.14 1335.74 l 1,4,-1
 543.32 1403.42 l 1,5,-1
 887.36 1403.42 l 1,6,-1
 887.36 250.04 l 1,7,-1
 1206.96 250.04 l 1,8,-1
 1206.96 3.90625e-05 l 1,9,-1
 225.6 3.90625e-05 l 1,10,-1
 225.6 250.04 l 1,0,-1
EndSplineSet
EndChar
StartChar: two
Encoding: 50 50 322
Width: 1339
Flags: W
LayerCount: 2
Fore
SplineSet
554.6 266.02 m 1,0,-1
 1172.18 266.02 l 1,1,-1
 1172.18 -1.09863e-05 l 1,2,-1
 152.28 -1.09863e-05 l 1,3,-1
 152.28 266.02 l 1,4,-1
 664.58 718.16 l 1,5,6
 733.2 780.2 733.2 780.2 766.1 839.42 c 128,-1,7
 799 898.64 799 898.64 799 962.56 c 0,8,9
 799 1061.26 799 1061.26 732.73 1121.42 c 128,-1,10
 666.46 1181.58 666.46 1181.58 556.48 1181.58 c 0,11,12
 471.88 1181.58 471.88 1181.58 371.3 1145.39 c 128,-1,13
 270.72 1109.2 270.72 1109.2 156.04 1037.76 c 1,14,-1
 156.04 1346.08 l 1,15,16
 278.24 1386.5 278.24 1386.5 397.62 1407.65 c 128,-1,17
 517 1428.8 517 1428.8 631.68 1428.8 c 0,18,19
 883.6 1428.8 883.6 1428.8 1023.19 1317.88 c 128,-1,20
 1162.78 1206.96 1162.78 1206.96 1162.78 1008.62 c 0,21,22
 1162.78 893.94 1162.78 893.94 1103.56 794.77 c 128,-1,23
 1044.34 695.6 1044.34 695.6 854.46 529.22 c 2,24,-1
 554.6 266.02 l 1,0,-1
EndSplineSet
EndChar
StartChar: three
Encoding: 51 51 323
Width: 1339
Flags: W
LayerCount: 2
Fore
SplineSet
896.76 756.7 m 1,0,1
 1038.7 720.04 1038.7 720.04 1112.49 629.33 c 128,-1,2
 1186.28 538.62 1186.28 538.62 1186.28 398.56 c 0,3,4
 1186.28 189.88 1186.28 189.88 1026.48 81.31 c 128,-1,5
 866.68 -27.259 866.68 -27.259 560.24 -27.259 c 0,6,7
 452.14 -27.259 452.14 -27.259 343.57 -9.86927 c 128,-1,8
 235 7.52043 235 7.52043 128.78 42.3006 c 1,9,-1
 128.78 321.481 l 1,10,11
 230.3 270.721 230.3 270.721 330.41 244.871 c 128,-1,12
 430.52 219.021 430.52 219.021 527.34 219.021 c 0,13,14
 671.16 219.021 671.16 219.021 747.77 268.841 c 128,-1,15
 824.38 318.661 824.38 318.661 824.38 411.721 c 0,16,17
 824.38 507.601 824.38 507.601 745.89 556.951 c 128,-1,18
 667.4 606.301 667.4 606.301 514.18 606.301 c 2,19,-1
 369.42 606.301 l 1,20,-1
 369.42 839.421 l 1,21,-1
 521.7 839.421 l 2,22,23
 658 839.421 658 839.421 724.74 882.191 c 128,-1,24
 791.48 924.961 791.48 924.961 791.48 1012.38 c 0,25,26
 791.48 1093.22 791.48 1093.22 726.62 1137.4 c 128,-1,27
 661.76 1181.58 661.76 1181.58 543.32 1181.58 c 0,28,29
 455.9 1181.58 455.9 1181.58 366.6 1161.84 c 128,-1,30
 277.3 1142.1 277.3 1142.1 188.94 1103.56 c 1,31,-1
 188.94 1368.64 l 1,32,33
 296.1 1398.72 296.1 1398.72 401.38 1413.76 c 128,-1,34
 506.66 1428.8 506.66 1428.8 608.18 1428.8 c 0,35,36
 881.72 1428.8 881.72 1428.8 1017.55 1339.03 c 128,-1,37
 1153.38 1249.26 1153.38 1249.26 1153.38 1068.78 c 0,38,39
 1153.38 945.641 1153.38 945.641 1088.52 867.151 c 128,-1,40
 1023.66 788.661 1023.66 788.661 896.76 756.7 c 1,0,1
EndSplineSet
EndChar
StartChar: four
Encoding: 52 52 324
Width: 1339
Flags: W
LayerCount: 2
Fore
SplineSet
708.76 1105.44 m 1,0,-1
 312.08 517.94 l 1,1,-1
 708.76 517.94 l 1,2,-1
 708.76 1105.44 l 1,0,-1
648.6 1403.42 m 1,3,-1
 1050.92 1403.42 l 1,4,-1
 1050.92 517.94 l 1,5,-1
 1251.14 517.94 l 1,6,-1
 1251.14 255.68 l 1,7,-1
 1050.92 255.68 l 1,8,-1
 1050.92 6.89697e-05 l 1,9,-1
 708.76 6.89697e-05 l 1,10,-1
 708.76 255.68 l 1,11,-1
 86.4799 255.68 l 1,12,-1
 86.4799 565.88 l 1,13,-1
 648.6 1403.42 l 1,3,-1
EndSplineSet
EndChar
StartChar: five
Encoding: 53 53 325
Width: 1339
Flags: W
LayerCount: 2
Fore
SplineSet
203.98 1403.42 m 1,0,-1
 1103.56 1403.42 l 1,1,-1
 1103.56 1137.4 l 1,2,-1
 492.56 1137.4 l 1,3,-1
 492.56 920.26 l 1,4,5
 533.92 931.54 533.92 931.54 575.75 937.65 c 128,-1,6
 617.58 943.76 617.58 943.76 662.7 943.76 c 0,7,8
 919.32 943.76 919.32 943.76 1062.2 815.45 c 128,-1,9
 1205.08 687.14 1205.08 687.14 1205.08 457.78 c 0,10,11
 1205.08 230.3 1205.08 230.3 1049.51 101.52 c 128,-1,12
 893.94 -27.26 893.94 -27.26 617.58 -27.26 c 0,13,14
 498.2 -27.26 498.2 -27.26 381.17 -4.2307 c 128,-1,15
 264.14 18.7996 264.14 18.7996 148.52 65.7996 c 1,16,-1
 148.52 350.62 l 1,17,18
 263.2 284.82 263.2 284.82 366.13 251.92 c 128,-1,19
 469.06 219.02 469.06 219.02 560.24 219.02 c 0,20,21
 691.84 219.02 691.84 219.02 767.51 283.41 c 128,-1,22
 843.18 347.8 843.18 347.8 843.18 457.78 c 0,23,24
 843.18 568.7 843.18 568.7 767.51 632.62 c 128,-1,25
 691.84 696.54 691.84 696.54 560.24 696.54 c 0,26,27
 482.22 696.54 482.22 696.54 393.86 676.33 c 128,-1,28
 305.5 656.12 305.5 656.12 203.98 613.82 c 1,29,-1
 203.98 1403.42 l 1,0,-1
EndSplineSet
EndChar
StartChar: six
Encoding: 54 54 326
Width: 1339
Flags: W
LayerCount: 2
Fore
SplineSet
696.54 692.78 m 0,0,1
 601.6 692.78 601.6 692.78 554.13 631.21 c 128,-1,2
 506.66 569.64 506.66 569.64 506.66 446.5 c 128,-1,3
 506.66 323.36 506.66 323.36 554.13 261.79 c 128,-1,4
 601.6 200.22 601.6 200.22 696.54 200.22 c 0,5,6
 792.42 200.22 792.42 200.22 839.89 261.79 c 128,-1,7
 887.36 323.36 887.36 323.36 887.36 446.5 c 128,-1,8
 887.36 569.64 887.36 569.64 839.89 631.21 c 128,-1,9
 792.42 692.78 792.42 692.78 696.54 692.78 c 0,0,1
1143.98 1366.76 m 1,10,-1
 1143.98 1107.32 l 1,11,12
 1054.68 1149.62 1054.68 1149.62 975.72 1169.83 c 128,-1,13
 896.76 1190.04 896.76 1190.04 821.56 1190.04 c 0,14,15
 659.88 1190.04 659.88 1190.04 569.64 1100.27 c 128,-1,16
 479.4 1010.5 479.4 1010.5 464.36 833.78 c 1,17,18
 526.4 879.84 526.4 879.84 598.78 902.87 c 128,-1,19
 671.16 925.9 671.16 925.9 756.7 925.9 c 0,20,21
 971.96 925.9 971.96 925.9 1104.03 799.94 c 128,-1,22
 1236.1 673.98 1236.1 673.98 1236.1 470 c 0,23,24
 1236.1 244.4 1236.1 244.4 1088.52 108.57 c 128,-1,25
 940.94 -27.2598 940.94 -27.2598 692.78 -27.2598 c 0,26,27
 419.24 -27.2598 419.24 -27.2598 269.31 157.45 c 128,-1,28
 119.38 342.16 119.38 342.16 119.38 681.5 c 0,29,30
 119.38 1029.3 119.38 1029.3 294.69 1228.11 c 128,-1,31
 470 1426.92 470 1426.92 775.5 1426.92 c 0,32,33
 872.32 1426.92 872.32 1426.92 963.5 1411.88 c 128,-1,34
 1054.68 1396.84 1054.68 1396.84 1143.98 1366.76 c 1,10,-1
EndSplineSet
EndChar
StartChar: seven
Encoding: 55 55 327
Width: 1339
Flags: W
LayerCount: 2
Fore
SplineSet
128.78 1403.42 m 1,0,-1
 1186.28 1403.42 l 1,1,-1
 1186.28 1199.44 l 1,2,-1
 639.2 6.34766e-05 l 1,3,-1
 286.7 6.34766e-05 l 1,4,-1
 804.64 1137.4 l 1,5,-1
 128.78 1137.4 l 1,6,-1
 128.78 1403.42 l 1,0,-1
EndSplineSet
EndChar
StartChar: eight
Encoding: 56 56 328
Width: 1339
Flags: W
LayerCount: 2
Fore
SplineSet
670.22 627.92 m 0,0,1
 568.7 627.92 568.7 627.92 514.18 572.46 c 128,-1,2
 459.66 517 459.66 517 459.66 413.6 c 128,-1,3
 459.66 310.2 459.66 310.2 514.18 255.21 c 128,-1,4
 568.7 200.22 568.7 200.22 670.22 200.22 c 0,5,6
 770.8 200.22 770.8 200.22 824.38 255.21 c 128,-1,7
 877.96 310.2 877.96 310.2 877.96 413.6 c 0,8,9
 877.96 517.94 877.96 517.94 824.38 572.93 c 128,-1,10
 770.8 627.92 770.8 627.92 670.22 627.92 c 0,0,1
406.08 747.3 m 1,11,12
 278.24 785.84 278.24 785.84 213.38 865.74 c 128,-1,13
 148.52 945.64 148.52 945.64 148.52 1065.02 c 0,14,15
 148.52 1242.68 148.52 1242.68 281.06 1335.74 c 128,-1,16
 413.6 1428.8 413.6 1428.8 670.22 1428.8 c 0,17,18
 924.96 1428.8 924.96 1428.8 1057.5 1336.21 c 128,-1,19
 1190.04 1243.62 1190.04 1243.62 1190.04 1065.02 c 0,20,21
 1190.04 945.64 1190.04 945.64 1124.71 865.74 c 128,-1,22
 1059.38 785.84 1059.38 785.84 931.54 747.3 c 1,23,24
 1074.42 707.82 1074.42 707.82 1147.27 618.99 c 128,-1,25
 1220.12 530.16 1220.12 530.16 1220.12 394.8 c 0,26,27
 1220.12 186.12 1220.12 186.12 1081.47 79.43 c 128,-1,28
 942.82 -27.259 942.82 -27.259 670.22 -27.259 c 0,29,30
 396.68 -27.259 396.68 -27.259 257.09 79.43 c 128,-1,31
 117.5 186.12 117.5 186.12 117.5 394.8 c 0,32,33
 117.5 530.16 117.5 530.16 190.35 618.99 c 128,-1,34
 263.2 707.82 263.2 707.82 406.08 747.3 c 1,11,12
490.68 1028.36 m 0,35,36
 490.68 944.7 490.68 944.7 537.21 899.58 c 128,-1,37
 583.74 854.46 583.74 854.46 670.22 854.46 c 0,38,39
 754.82 854.46 754.82 854.46 800.88 899.58 c 128,-1,40
 846.94 944.7 846.94 944.7 846.94 1028.36 c 128,-1,41
 846.94 1112.02 846.94 1112.02 800.88 1156.67 c 128,-1,42
 754.82 1201.32 754.82 1201.32 670.22 1201.32 c 0,43,44
 583.74 1201.32 583.74 1201.32 537.21 1156.2 c 128,-1,45
 490.68 1111.08 490.68 1111.08 490.68 1028.36 c 0,35,36
EndSplineSet
EndChar
StartChar: nine
Encoding: 57 57 329
Width: 1339
Flags: W
LayerCount: 2
Fore
SplineSet
192.7 31.0195 m 1,0,-1
 192.7 290.46 l 1,1,2
 279.18 250.04 279.18 250.04 358.14 229.829 c 128,-1,3
 437.1 209.619 437.1 209.619 514.18 209.619 c 0,4,5
 675.86 209.619 675.86 209.619 766.1 299.389 c 128,-1,6
 856.34 389.159 856.34 389.159 872.32 565.88 c 1,7,8
 808.4 518.88 808.4 518.88 736.02 495.38 c 128,-1,9
 663.64 471.88 663.64 471.88 579.04 471.88 c 0,10,11
 363.78 471.88 363.78 471.88 231.71 597.37 c 128,-1,12
 99.64 722.859 99.64 722.859 99.64 927.779 c 0,13,14
 99.64 1154.32 99.64 1154.32 246.75 1290.62 c 128,-1,15
 393.86 1426.92 393.86 1426.92 641.08 1426.92 c 0,16,17
 915.56 1426.92 915.56 1426.92 1065.96 1241.74 c 128,-1,18
 1216.36 1056.56 1216.36 1056.56 1216.36 718.159 c 0,19,20
 1216.36 370.359 1216.36 370.359 1040.58 171.549 c 128,-1,21
 864.8 -27.2605 864.8 -27.2605 558.36 -27.2605 c 0,22,23
 459.66 -27.2605 459.66 -27.2605 369.42 -12.6911 c 128,-1,24
 279.18 1.87918 279.18 1.87918 192.7 31.0188 c 1,25,-1
 192.7 31.0195 l 1,0,-1
639.2 706.88 m 128,-1,27
 734.14 706.88 734.14 706.88 782.08 768.45 c 128,-1,28
 830.02 830.02 830.02 830.02 830.02 953.16 c 0,29,30
 830.02 1075.36 830.02 1075.36 782.08 1137.4 c 128,-1,31
 734.14 1199.44 734.14 1199.44 639.2 1199.44 c 128,-1,32
 544.26 1199.44 544.26 1199.44 496.32 1137.4 c 128,-1,33
 448.38 1075.36 448.38 1075.36 448.38 953.16 c 0,34,35
 448.38 830.02 448.38 830.02 496.32 768.45 c 128,-1,26
 544.26 706.88 544.26 706.88 639.2 706.88 c 128,-1,27
EndSplineSet
EndChar
StartChar: colon
Encoding: 58 58 5
Width: 747
VWidth: 2158
GlyphClass: 2
Flags: W
LayerCount: 2
Fore
SplineSet
227.776367188 291.890625 m 1,0,-1
 519.223632812 291.890625 l 1,1,-1
 519.223632812 0 l 1,2,-1
 227.776367188 0 l 1,3,-1
 227.776367188 291.890625 l 1,0,-1
227.776367188 922.005859375 m 1,4,-1
 519.223632812 922.005859375 l 1,5,-1
 519.223632812 630.115234375 l 1,6,-1
 227.776367188 630.115234375 l 1,7,-1
 227.776367188 922.005859375 l 1,4,-1
EndSplineSet
EndChar
StartChar: semicolon
Encoding: 59 59 17
Width: 769
GlyphClass: 2
Flags: W
LayerCount: 2
Fore
SplineSet
215.26 363.78 m 1,0,-1
 554.6 363.78 l 1,1,-1
 554.6 77.08 l 1,2,-1
 321.48 -273.54 l 1,3,-1
 121.26 -273.54 l 1,4,-1
 215.26 77.08 l 1,5,-1
 215.26 363.78 l 1,0,-1
215.26 1052.8 m 1,6,-1
 554.6 1052.8 l 1,7,-1
 554.6 689.02 l 1,8,-1
 215.26 689.02 l 1,9,-1
 215.26 1052.8 l 1,6,-1
EndSplineSet
EndChar
StartChar: less
Encoding: 60 60 18
Width: 1613
GlyphClass: 2
Flags: W
LayerCount: 2
Fore
SplineSet
1409.06 914.62 m 1,0,-1
 502.9 602.54 l 1,1,-1
 1409.06 292.34 l 1,2,-1
 1409.06 57.34 l 1,3,-1
 203.98 492.56 l 1,4,-1
 203.98 714.4 l 1,5,-1
 1409.06 1149.62 l 1,6,-1
 1409.06 914.62 l 1,0,-1
EndSplineSet
EndChar
StartChar: equal
Encoding: 61 61 19
Width: 1613
GlyphClass: 2
Flags: W
GlyphCompositionHorizontal: 2  equal%0,0,44,1433 equal%1,44,0,1433
LayerCount: 2
Fore
SplineSet
203.98 927.78 m 1,0,-1
 1409.06 927.78 l 1,1,-1
 1409.06 706.88 l 1,2,-1
 203.98 706.88 l 1,3,-1
 203.98 927.78 l 1,0,-1
203.98 500.08 m 1,4,-1
 1409.06 500.08 l 1,5,-1
 1409.06 277.3 l 1,6,-1
 203.98 277.3 l 1,7,-1
 203.98 500.08 l 1,4,-1
EndSplineSet
EndChar
StartChar: greater
Encoding: 62 62 20
Width: 1613
GlyphClass: 2
Flags: W
LayerCount: 2
Fore
SplineSet
203.98 914.62 m 1,0,-1
 203.98 1149.62 l 1,1,-1
 1409.06 714.4 l 1,2,-1
 1409.06 492.56 l 1,3,-1
 203.98 57.34 l 1,4,-1
 203.98 292.34 l 1,5,-1
 1111.08 602.54 l 1,6,-1
 203.98 914.62 l 1,0,-1
EndSplineSet
EndChar
StartChar: question
Encoding: 63 63 21
Width: 1116
GlyphClass: 2
Flags: W
LayerCount: 2
Fore
SplineSet
142.54 1344.59369365 m 1,0,1
 358.793385959 1418.8 358.793385959 1418.8 521.7 1418.8 c 0,2,3
 747.63043409 1418.8 747.63043409 1418.8 864.665217045 1327.82374293 c 128,-1,4
 981.7 1236.84748587 981.7 1236.84748587 981.7 1062.2 c 0,5,6
 981.7 972.454288636 981.7 972.454288636 955.004882542 919.406298816 c 0,7,8
 910.23393345 830.43838716 910.23393345 830.43838716 823.255339349 748.086314021 c 1,9,-1
 763.165564152 694.568857986 l 1,10,11
 698.006029777 635.158694291 698.006029777 635.158694291 677.233014889 598.064024847 c 128,-1,12
 656.46 560.969355403 656.46 560.969355403 656.46 516.06 c 2,13,-1
 656.46 483.76 l 1,14,-1
 337.12 483.76 l 1,15,-1
 337.12 519.82 l 2,16,17
 337.12 594.456694127 337.12 594.456694127 357.001150894 632.712848119 c 128,-1,18
 376.882301788 670.969002111 376.882301788 670.969002111 394.391136129 693.860555885 c 0,19,20
 430.007495855 740.426409329 430.007495855 740.426409329 495.515194247 800.990130486 c 2,21,-1
 555.699619875 855.532339752 l 2,22,23
 662.36 952.836546182 662.36 952.836546182 662.36 1041.52 c 0,24,25
 662.36 1150.54209649 662.36 1150.54209649 556.298613875 1181.80419302 c 0,26,27
 523.132711553 1191.58 523.132711553 1191.58 481.28 1191.58 c 0,28,29
 329.452063533 1191.58 329.452063533 1191.58 142.54 1074.77555262 c 1,30,-1
 142.54 1344.59369365 l 1,0,1
337.12 324.64 m 1,31,-1
 656.46 324.64 l 1,32,-1
 656.46 10.0000146484 l 1,33,-1
 337.12 10.0000146484 l 1,34,-1
 337.12 324.64 l 1,31,-1
EndSplineSet
EndChar
StartChar: at
Encoding: 64 64 22
Width: 1925
GlyphClass: 2
Flags: W
LayerCount: 2
Fore
SplineSet
822.979325394 693.327191613 m 128,-1,1
 771.14 623.714383227 771.14 623.714383227 771.14 505.729378425 c 128,-1,2
 771.14 387.744373623 771.14 387.744373623 822.968729684 317.652186811 c 128,-1,3
 874.797459369 247.56 874.797459369 247.56 964.44 247.56 c 0,4,5
 1053.13516147 247.56 1053.13516147 247.56 1105.43758073 318.118924106 c 128,-1,6
 1157.74 388.677848211 1157.74 388.677848211 1157.74 506.221299098 c 128,-1,7
 1157.74 623.764749985 1157.74 623.764749985 1105.41597456 692.715101263 c 0,8,9
 1052.12473935 762.94 1052.12473935 762.94 963.47169507 762.94 c 128,-1,0
 874.818650788 762.94 874.818650788 762.94 822.979325394 693.327191613 c 128,-1,1
1499.92411396 -144.382838034 m 1,10,11
 1262.42115496 -324.641 1262.42115496 -324.641 975.72 -324.641 c 0,12,13
 624.222228929 -324.641 624.222228929 -324.641 380.158279498 -86.8394474985 c 0,14,15
 136.9 151.283679719 136.9 151.283679719 136.9 510.419 c 0,16,17
 136.9 679.519164515 136.9 679.519164515 200.065620087 832.788683843 c 0,18,19
 330.635399436 1149.61241315 330.635399436 1149.61241315 652.831544705 1280.41443032 c 0,20,21
 808.472470011 1343.6 808.472470011 1343.6 944.229260291 1343.6 c 0,22,23
 1402.5740419 1343.6 1402.5740419 1343.6 1637.99869047 1035.44253317 c 0,24,25
 1778.82 851.434024602 1778.82 851.434024602 1778.82 615.699 c 0,26,27
 1778.82 365.346437833 1778.82 365.346437833 1628.82844897 227.317403131 c 0,28,29
 1478.47897812 88.9587 1478.47897812 88.9587 1203.2 88.9587 c 2,30,-1
 1176.54 88.9587 l 1,31,-1
 1176.54 273.07929423 l 1,32,-1
 1157.32853784 227.612167111 l 2,33,34
 1130.40763601 163.899366112 1130.40763601 163.899366112 1070.49081828 128.309533056 c 128,-1,35
 1010.57400056 92.7197 1010.57400056 92.7197 929.66 92.7197 c 0,36,37
 772.557405374 92.7197 772.557405374 92.7197 674.218702687 206.60978495 c 128,-1,38
 575.88 320.4998699 575.88 320.4998699 575.88 504.78 c 128,-1,39
 575.88 689.058349486 575.88 689.058349486 674.687753022 803.419174743 c 128,-1,40
 773.495506044 917.78 773.495506044 917.78 929.66 917.78 c 0,41,42
 1010.54421071 917.78 1010.54421071 917.78 1070.46995643 881.734438662 c 128,-1,43
 1130.39570216 845.688877324 1130.39570216 845.688877324 1157.32853784 781.947832889 c 2,44,-1
 1176.54 736.48070577 l 1,45,-1
 1176.54 898.98 l 1,46,-1
 1353 898.98 l 1,47,-1
 1353 245.911032254 l 1,48,49
 1551.20062443 276.280482779 1551.20062443 276.280482779 1605.93636752 474.794926062 c 0,50,51
 1623.04 536.826021069 1623.04 536.826021069 1623.04 622.189998362 c 0,52,53
 1623.04 878.813678261 1623.04 878.813678261 1408.80206111 1048.39847138 c 0,54,55
 1232.66963582 1187.82 1232.66963582 1187.82 989.82 1187.82 c 0,56,57
 765.982387668 1187.82 765.982387668 1187.82 591.379026567 1073.35779661 c 0,58,59
 450.138324259 979.833547787 450.138324259 979.833547787 371.396269794 831.416705736 c 128,-1,60
 292.68 683.048463881 292.68 683.048463881 292.68 525.719112852 c 0,61,62
 292.68 220.452229333 292.68 220.452229333 491.200749058 23.8765374244 c 0,63,64
 686.914434037 -167.921 686.914434037 -167.921 973.84 -167.921 c 0,65,66
 1094.08435784 -167.921 1094.08435784 -167.921 1210.96982861 -124.320816105 c 128,-1,67
 1327.85529938 -80.7206322097 1327.85529938 -80.7206322097 1410.80609299 -9.45676321289 c 1,68,-1
 1499.92411396 -144.382838034 l 1,10,11
EndSplineSet
EndChar
StartChar: bracketleft
Encoding: 91 91 23
Width: 879
GlyphClass: 2
Flags: W
GlyphCompositionVertical: 3  uni23A3%0,0,44,2703 uni23A2%1,44,44,2731 uni23A1%0,44,0,2699
LayerCount: 2
Fore
SplineSet
175.44 1452.64 m 1,0,-1
 739.18 1452.64 l 1,1,-1
 739.18 1261.14 l 1,2,-1
 475.04 1261.14 l 1,3,-1
 475.04 -52.3 l 1,4,-1
 739.18 -52.3 l 1,5,-1
 739.18 -243.8 l 1,6,-1
 175.44 -243.8 l 1,7,-1
 175.44 1452.64 l 1,0,-1
EndSplineSet
EndChar
StartChar: backslash
Encoding: 92 92 24
Width: 703
GlyphClass: 2
Flags: W
LayerCount: 2
Fore
SplineSet
494.44 -178.6 m 1,0,-1
 2.44141e-06 1403.42 l 1,1,-1
 207.74 1403.42 l 1,2,-1
 703.12 -178.6 l 1,3,-1
 494.44 -178.6 l 1,0,-1
EndSplineSet
EndChar
StartChar: bracketright
Encoding: 93 93 25
Width: 879
GlyphClass: 2
Flags: W
GlyphCompositionVertical: 3  uni23A6%0,0,44,2687 uni23A5%1,44,44,2713 uni23A4%0,44,0,2699
LayerCount: 2
Fore
SplineSet
704.4 -243.8 m 1,0,-1
 140.66 -243.8 l 1,1,-1
 140.66 -52.3 l 1,2,-1
 404.8 -52.3 l 1,3,-1
 404.8 1261.14 l 1,4,-1
 140.66 1261.14 l 1,5,-1
 140.66 1452.64 l 1,6,-1
 704.4 1452.64 l 1,7,-1
 704.4 -243.8 l 1,0,-1
EndSplineSet
EndChar
StartChar: asciicircum
Encoding: 94 94 26
Width: 1613
GlyphClass: 2
Flags: W
LayerCount: 2
Fore
SplineSet
917.840451467 1393.42 m 1,0,-1
 1395.20174411 889.84 l 1,1,-1
 1195.19663063 889.84 l 1,2,-1
 806.512768505 1175.19083537 l 1,3,-1
 418.776915796 889.84 l 1,4,-1
 217.838255894 889.84 l 1,5,-1
 695.199548533 1393.42 l 1,6,-1
 917.840451467 1393.42 l 1,0,-1
EndSplineSet
EndChar
StartChar: underscore
Encoding: 95 95 27
Width: 962
GlyphClass: 2
Flags: W
GlyphCompositionHorizontal: 2  underscore%0,0,44,1188 underscore%1,44,0,1188
LayerCount: 2
Fore
SplineSet
962.56 -275.42 m 1,0,-1
 962.56 -454.02 l 1,1,-1
 -2.44141e-06 -454.02 l 1,2,-1
 -2.44141e-06 -275.42 l 1,3,-1
 962.56 -275.42 l 1,0,-1
EndSplineSet
EndChar
StartChar: grave
Encoding: 96 96 28
Width: 962
GlyphClass: 2
Flags: W
LayerCount: 2
Fore
SplineSet
349.38 1529.72 m 1,0,-1
 599.46 1196.28 l 1,1,-1
 439.417282056 1196.28 l 1,2,-1
 112.184941631 1529.72 l 1,3,-1
 349.38 1529.72 l 1,0,-1
EndSplineSet
EndChar
StartChar: braceleft
Encoding: 123 123 29
Width: 1370
GlyphClass: 2
Flags: W
GlyphCompositionVertical: 5  uni23A9%0,0,44,2700 uni23AA%1,44,44,2742 uni23A8%0,44,44,2727 uni23AA%1,44,44,2742 uni23A7%0,44,0,2719
LayerCount: 2
Fore
SplineSet
1129.88 -102.46 m 1,0,-1
 1129.88 -313.96 l 1,1,-1
 925.9 -313.96 l 2,2,3
 720.98 -313.96 720.98 -313.96 626.98 -231.24 c 128,-1,4
 532.98 -148.52 532.98 -148.52 532.98 32.9 c 2,5,-1
 532.98 213.38 l 2,6,7
 532.98 354.38 532.98 354.38 482.22 409.37 c 128,-1,8
 431.46 464.36 431.46 464.36 297.98 464.36 c 2,9,-1
 240.64 464.36 l 1,10,-1
 240.64 673.98 l 1,11,-1
 297.98 673.98 l 2,12,13
 431.46 673.98 431.46 673.98 482.22 728.5 c 128,-1,14
 532.98 783.02 532.98 783.02 532.98 924.02 c 2,15,-1
 532.98 1116.72 l 2,16,17
 532.98 1298.14 532.98 1298.14 626.98 1380.39 c 128,-1,18
 720.98 1462.64 720.98 1462.64 925.9 1462.64 c 2,19,-1
 1129.88 1462.64 l 1,20,-1
 1129.88 1251.14 l 1,21,-1
 1065.02 1251.14 l 2,22,23
 932.48 1251.14 932.48 1251.14 892.53 1210.25 c 128,-1,24
 852.58 1169.36 852.58 1169.36 852.58 1035.88 c 2,25,-1
 852.58 879.84 l 2,26,27
 852.58 732.26 852.58 732.26 810.28 665.52 c 128,-1,28
 767.98 598.78 767.98 598.78 664.58 575.28 c 1,29,30
 768.92 549.9 768.92 549.9 810.75 483.16 c 128,-1,31
 852.58 416.42 852.58 416.42 852.58 269.78 c 2,32,-1
 852.58 113.74 l 2,33,34
 852.58 -20.68 852.58 -20.68 892.53 -61.57 c 128,-1,35
 932.48 -102.46 932.48 -102.46 1065.02 -102.46 c 2,36,-1
 1129.88 -102.46 l 1,0,-1
EndSplineSet
EndChar
StartChar: bar
Encoding: 124 124 30
Width: 703
GlyphClass: 2
Flags: W
GlyphCompositionVertical: 2  bar%0,0,44,2287 bar%1,44,0,2287
LayerCount: 2
Fore
SplineSet
457.78 1471.1 m 1,0,-1
 457.78 -454.02 l 1,1,-1
 244.4 -454.02 l 1,2,-1
 244.4 1471.1 l 1,3,-1
 457.78 1471.1 l 1,0,-1
EndSplineSet
EndChar
StartChar: braceright
Encoding: 125 125 31
Width: 1370
GlyphClass: 2
Flags: W
GlyphCompositionVertical: 5  uni23AD%0,0,44,2700 uni23AA%1,44,44,2742 uni23AC%0,44,44,2727 uni23AA%1,44,44,2742 uni23AB%0,44,0,2719
LayerCount: 2
Fore
SplineSet
250.64 -112.46 m 1,0,-1
 306.44 -112.46 l 2,1,2
 442.250390855 -112.46 442.250390855 -112.46 485.142857245 -68.5586212023 c 128,-1,3
 527.94 -24.7538440929 527.94 -24.7538440929 527.94 113.74 c 2,4,-1
 527.94 269.78 l 2,5,6
 527.94 413.517888276 527.94 413.517888276 568.382782746 477.327612167 c 128,-1,7
 608.825565492 541.137336058 608.825565492 541.137336058 709.243515791 565.563323968 c 2,8,-1
 750.729439809 575.654494675 l 1,9,-1
 709.07721324 585.035626786 l 2,10,11
 608.772212459 607.626843179 608.772212459 607.626843179 568.356106229 671.394477449 c 128,-1,12
 527.94 735.162111719 527.94 735.162111719 527.94 879.84 c 2,13,-1
 527.94 1035.88 l 2,14,15
 527.94 1190.97718343 527.94 1190.97718343 470.332540945 1229.42287489 c 0,16,17
 422.807241922 1261.14 422.807241922 1261.14 306.44 1261.14 c 2,18,-1
 250.64 1261.14 l 1,19,-1
 250.64 1452.64 l 1,20,-1
 444.62 1452.64 l 2,21,22
 645.782648839 1452.64 645.782648839 1452.64 736.954953921 1372.86423305 c 0,23,24
 827.54 1293.60231774 827.54 1293.60231774 827.54 1116.72 c 2,25,-1
 827.54 924.02 l 2,26,27
 827.54 779.085472032 827.54 779.085472032 881.123581808 721.532736016 c 128,-1,28
 934.707163616 663.98 934.707163616 663.98 1072.54 663.98 c 2,29,-1
 1119.88 663.98 l 1,30,-1
 1119.88 474.36 l 1,31,-1
 1072.54 474.36 l 2,32,33
 934.681687682 474.36 934.681687682 474.36 880.951965554 416.152801027 c 0,34,35
 827.54 358.289838345 827.54 358.289838345 827.54 213.38 c 2,36,-1
 827.54 32.8997 l 2,37,38
 827.54 -143.999339356 827.54 -143.999339356 736.933721051 -223.732864831 c 0,39,40
 645.766521997 -303.96 645.766521997 -303.96 444.62 -303.96 c 2,41,-1
 250.64 -303.96 l 1,42,-1
 250.64 -112.46 l 1,0,-1
EndSplineSet
EndChar
StartChar: asciitilde
Encoding: 126 126 32
Width: 1613
GlyphClass: 2
Flags: W
LayerCount: 2
Fore
SplineSet
1072.54 638.6 m 0,0,1
 1224.43009056 638.6 1224.43009056 638.6 1399.06 778.000195111 c 1,2,-1
 1399.06 574.633372765 l 1,3,4
 1218.36390387 439.58 1218.36390387 439.58 1050.92 439.58 c 0,5,6
 952.290795466 439.58 952.290795466 439.58 819.769242726 493.330000412 c 0,7,8
 807.101966416 498.758833116 807.101966416 498.758833116 801.0156155 501.160628275 c 128,-1,9
 794.929264584 503.562423434 794.929264584 503.562423434 790.223075175 505.484915712 c 0,10,11
 636.307213298 568.36 636.307213298 568.36 540.5 568.36 c 0,12,13
 384.725196377 568.36 384.725196377 568.36 213.98 429.275855989 c 1,14,-1
 213.98 632.29883878 l 1,15,16
 396.364556762 767.38 396.364556762 767.38 562.12 767.38 c 0,17,18
 668.794089625 767.38 668.794089625 767.38 813.860807014 705.2085497 c 0,19,20
 969.280756306 638.6 969.280756306 638.6 1072.54 638.6 c 0,0,1
EndSplineSet
EndChar
StartChar: guillemotleft
Encoding: 171 171 299
Width: 1110
VWidth: 51
Flags: W
LayerCount: 2
Fore
SplineSet
963.379882812 1015.76860373 m 5,0,-1
 963.379882812 739.771520375 l 5,1,-1
 763.940937957 562.197484071 l 6,2,3
 698.568290022 504.008360674 698.568290022 504.008360674 767.939353966 442.242402625 c 6,4,-1
 963.379882812 268.228478326 l 5,5,-1
 963.379882812 -7.76862438554 l 5,6,-1
 634.047599626 285.751713989 l 6,7,8
 517.176707664 389.912860913 517.176707664 389.912860913 517.176707664 503.999432567 c 132,-1,9
 517.176707664 618.08600422 517.176707664 618.08600422 636.047662415 724.030568534 c 6,10,-1
 963.379882812 1015.76860373 l 5,0,-1
555.379882812 1015.76860373 m 5,11,-1
 555.379882812 739.771520375 l 5,12,-1
 355.940937957 562.197484071 l 6,13,14
 290.567143214 504.007339884 290.567143214 504.007339884 359.939353966 442.242402625 c 6,15,-1
 555.379882812 268.228478326 l 5,16,-1
 555.379882812 -7.76862438554 l 5,17,-1
 226.047599626 285.751713989 l 6,18,19
 109.176707665 389.912860913 109.176707665 389.912860913 109.176707665 503.999432567 c 132,-1,20
 109.176707665 618.08600422 109.176707665 618.08600422 228.047662415 724.030568534 c 6,21,-1
 555.379882812 1015.76860373 l 5,11,-1
EndSplineSet
EndChar
StartChar: guillemotright
Encoding: 187 187 300
Width: 1112
VWidth: 51
Flags: W
LayerCount: 2
Fore
SplineSet
148.176757812 1015.76855469 m 5,0,-1
 148.176757812 739.771484375 l 5,1,-1
 347.615234375 562.197265625 l 6,2,3
 412.98828125 504.008789062 412.98828125 504.008789062 343.6171875 442.2421875 c 6,4,-1
 148.176757812 268.228515625 l 5,5,-1
 148.176757812 -7.7685546875 l 5,6,-1
 477.508789062 285.751953125 l 6,7,8
 594.379882812 389.913085938 594.379882812 389.913085938 594.379882812 503.999023438 c 132,-1,9
 594.379882812 618.0859375 594.379882812 618.0859375 475.508789062 724.030273438 c 6,10,-1
 148.176757812 1015.76855469 l 5,0,-1
556.176757812 1015.76855469 m 5,11,-1
 556.176757812 739.771484375 l 5,12,-1
 755.615234375 562.197265625 l 6,13,14
 820.989257812 504.0078125 820.989257812 504.0078125 751.6171875 442.2421875 c 6,15,-1
 556.176757812 268.228515625 l 5,16,-1
 556.176757812 -7.7685546875 l 5,17,-1
 885.508789062 285.751953125 l 6,18,19
 1002.37988281 389.913085938 1002.37988281 389.913085938 1002.37988281 503.999023438 c 132,-1,20
 1002.37988281 618.0859375 1002.37988281 618.0859375 883.508789062 724.030273438 c 6,21,-1
 556.176757812 1015.76855469 l 5,11,-1
EndSplineSet
EndChar
StartChar: afii57388
Encoding: 1548 1548 34
Width: 743
GlyphClass: 2
Flags: W
LayerCount: 2
Fore
SplineSet
255.994906258 50.3890562454 m 0,0,1
 160.817947711 127.719928031 160.817947711 127.719928031 201.671969543 306.110016207 c 128,-1,2
 242.525991376 484.500104384 242.525991376 484.500104384 433.663798158 667.842463004 c 1,3,-1
 592.072804383 586.005845195 l 1,4,5
 454.960166153 469.195039834 454.960166153 469.195039834 422.551963027 350.523143456 c 1,6,7
 570.871494313 316.913271622 570.871494313 316.913271622 560.74884591 153.579701784 c 0,8,9
 556.322306759 83.4234088272 556.322306759 83.4234088272 505.099549421 47.7117044136 c 128,-1,10
 453.876792083 12 453.876792083 12 378.705128517 12 c 128,-1,11
 303.533464952 12 303.533464952 12 255.994906258 50.3890562454 c 0,0,1
EndSplineSet
EndChar
StartChar: uni0615
Encoding: 1557 1557 35
Width: 0
GlyphClass: 4
Flags: W
LayerCount: 2
Fore
SplineSet
466.096 1456.96 m 1,0,-1
 552.12 1456.96 l 2,1,2
 639.138 1456.96 639.138 1456.96 668.213 1474.64 c 0,3,4
 728.83 1511.50013964 728.83 1511.50013964 728.83 1547.29506982 c 128,-1,5
 728.83 1583.09 728.83 1583.09 689.03 1604.94 c 1,6,7
 677.049272285 1609.11622012 677.049272285 1609.11622012 646.782136142 1595.54311006 c 128,-1,8
 616.515 1581.97 616.515 1581.97 601.865 1576.19 c 0,9,10
 543.049 1552.44 543.049 1552.44 483.147 1478.12 c 2,11,-1
 466.096 1456.96 l 1,0,-1
814.11 1557.7 m 0,12,13
 814.11 1374.89 814.11 1374.89 576.73 1374.89 c 2,14,-1
 282.64 1374.89 l 1,15,-1
 282.64 1456.96 l 1,16,-1
 369.31 1456.96 l 1,17,-1
 369.31 1883.89 l 1,18,-1
 452.45 1883.89 l 1,19,-1
 452.45 1497.67 l 1,20,-1
 477.109 1547.67 l 2,21,22
 513.381 1621.22 513.381 1621.22 619.878 1662.18 c 0,23,24
 682.718 1686.12 682.718 1686.12 748.414 1661.315 c 128,-1,25
 814.11 1636.51 814.11 1636.51 814.11 1557.7 c 0,12,13
EndSplineSet
EndChar
StartChar: uni061B
Encoding: 1563 1563 9
Width: 779
VWidth: 2293
GlyphClass: 2
Flags: W
LayerCount: 2
Fore
SplineSet
251.381835938 323.336914062 m 1,0,-1
 574.19140625 323.336914062 l 1,1,-1
 574.19140625 0 l 1,2,-1
 251.381835938 0 l 1,3,-1
 251.381835938 323.336914062 l 1,0,-1
541.056640625 511.2421875 m 128,-1,5
 488.043945312 474.918945312 488.043945312 474.918945312 423.470703125 475.986328125 c 128,-1,6
 358.897460938 477.053710938 358.897460938 477.053710938 320.701171875 494.998046875 c 0,7,8
 177.91300024 562.073515137 177.91300024 562.073515137 231.270507812 793.76953125 c 0,9,10
 273.162109375 977.7890625 273.162109375 977.7890625 465.32421875 1161.38085938 c 2,11,-1
 490.551757812 1185.48339844 l 1,12,-1
 630.961914062 1098.14453125 l 1,13,-1
 584.278320312 1058.19628906 l 2,14,15
 472.286132812 962.361328125 472.286132812 962.361328125 448.166015625 826.001953125 c 1,16,17
 524.569335938 816.370117188 524.569335938 816.370117188 567.103515625 764.148925781 c 128,-1,18
 609.637695312 711.927734375 609.637695312 711.927734375 601.853515625 629.746582031 c 128,-1,4
 594.069335938 547.565429688 594.069335938 547.565429688 541.056640625 511.2421875 c 128,-1,5
EndSplineSet
EndChar
StartChar: uni061F
Encoding: 1567 1567 10
Width: 1183
VWidth: 2286
GlyphClass: 2
Flags: W
LayerCount: 2
Fore
SplineSet
490.381835938 323.336914062 m 1,0,-1
 813.19140625 323.336914062 l 1,1,-1
 813.19140625 0 l 1,2,-1
 490.381835938 0 l 1,3,-1
 490.381835938 323.336914062 l 1,0,-1
517.069335938 494.142578125 m 1,4,-1
 517.069335938 578.841796875 l 2,5,6
 517.436523438 687.848632812 517.436523438 687.848632812 499.454101562 721.525390625 c 0,7,8
 496.913085938 726.284179688 496.913085938 726.284179688 493.499023438 731.657226562 c 128,-1,9
 490.084960938 737.030273438 490.084960938 737.030273438 485.67578125 743.155273438 c 128,-1,10
 481.266601562 749.280273438 481.266601562 749.280273438 476.041015625 755.896484375 c 128,-1,11
 470.815429688 762.51171875 470.815429688 762.51171875 464.533203125 769.85546875 c 128,-1,12
 458.250976562 777.200195312 458.250976562 777.200195312 451.216796875 784.903320312 c 128,-1,13
 444.18359375 792.607421875 444.18359375 792.607421875 436.03125 801.016601562 c 128,-1,14
 427.87890625 809.42578125 427.87890625 809.42578125 419.033203125 818.0703125 c 2,15,-1
 328.284179688 906.7578125 l 2,16,17
 231.251953125 999.907226562 231.251953125 999.907226562 191.206054688 1075.875 c 0,18,19
 149.354492188 1155.26757812 149.354492188 1155.26757812 149.409179688 1244.671875 c 0,20,21
 149.518554688 1423.609375 149.518554688 1423.609375 277.94140625 1535.51953125 c 0,22,23
 403.637695312 1645.05371094 403.637695312 1645.05371094 615.811523438 1645.16210938 c 0,24,25
 823.51171875 1645.26855469 823.51171875 1645.26855469 1024.55175781 1525.85253906 c 2,26,-1
 1055.6953125 1507.35351562 l 1,27,-1
 977.618164062 1272.30761719 l 1,28,-1
 928.821289062 1303.79492188 l 2,29,30
 905.46875 1318.86425781 905.46875 1318.86425781 872.397460938 1335.14941406 c 128,-1,31
 839.326171875 1351.43457031 839.326171875 1351.43457031 797.421875 1368.29785156 c 0,32,33
 691.737304688 1409.08300781 691.737304688 1409.08300781 618.236328125 1404.16699219 c 128,-1,34
 544.735351562 1399.25195312 544.735351562 1399.25195312 489.017578125 1352.03125 c 0,35,36
 434.80078125 1306.29492188 434.80078125 1306.29492188 434.80078125 1228.76757812 c 0,37,38
 434.819335938 1219.69335938 434.819335938 1219.69335938 436.162109375 1210.41894531 c 128,-1,39
 437.50390625 1201.14453125 437.50390625 1201.14453125 440.26171875 1191.26757812 c 128,-1,40
 443.018554688 1181.39160156 443.018554688 1181.39160156 447.373046875 1171.17578125 c 128,-1,41
 451.727539062 1160.95996094 451.727539062 1160.95996094 457.625 1150.265625 c 128,-1,42
 463.522460938 1139.57128906 463.522460938 1139.57128906 471.30078125 1128.38085938 c 128,-1,43
 479.079101562 1117.19140625 479.079101562 1117.19140625 488.528320312 1105.64550781 c 128,-1,44
 497.978515625 1094.09960938 497.978515625 1094.09960938 509.591796875 1081.90234375 c 128,-1,45
 521.205078125 1069.70605469 521.205078125 1069.70605469 534.62890625 1057.25878906 c 2,46,-1
 627.72265625 965.19921875 l 2,47,48
 790.0078125 809.725585938 790.0078125 809.725585938 789.928710938 610.791992188 c 2,49,-1
 789.928710938 494.142578125 l 1,50,-1
 517.069335938 494.142578125 l 1,4,-1
EndSplineSet
EndChar
StartChar: uni0621
Encoding: 1569 1569 19
Width: 797
VWidth: 2237
GlyphClass: 2
Flags: W
AnchorPoint: "Anchor-7" 316 -189 basechar 0
AnchorPoint: "Anchor-10" 340.5 1267.5 basechar 0
LayerCount: 2
Fore
SplineSet
77 -23.30078125 m 5,0,-1
 77 248.78515625 l 1,1,-1
 191.328125 289.791992188 l 1,2,3
 40 379 40 379 40 586.806456456 c 0,4,5
 40 794 40 794 206.796875 886.845703125 c 0,6,7
 301 939 301 939 407.200721616 939.083938002 c 128,-1,8
 513.535340118 939.000365196 513.535340118 939.000365196 621.458007812 907.095703125 c 2,9,-1
 658 896.29296875 l 1,10,-1
 658 667.220703125 l 1,11,12
 533 702 533 702 467 702 c 0,13,14
 379 703 379 703 335 668 c 0,15,16
 301 641 301 641 297 593.5 c 128,-1,17
 293 546 293 546 305.3671875 521.514648438 c 0,18,19
 352 430 352 430 495 428 c 0,20,21
 579.243906291 426.997096354 579.243906291 426.997096354 680.056640625 486.130859375 c 2,22,-1
 756.860351562 531.181640625 l 1,23,-1
 756.860351562 238.604492188 l 1,24,-1
 77 -23.30078125 l 5,0,-1
EndSplineSet
EndChar
StartChar: uni0627
Encoding: 1575 1575 25
Width: 498
VWidth: 2237
GlyphClass: 2
Flags: W
AnchorPoint: "Anchor-10" 214.5 1583 basechar 0
AnchorPoint: "Anchor-7" 217.5 -184.5 basechar 0
LayerCount: 2
Fore
SplineSet
89.0595703125 1400.95996094 m 1,0,-1
 357.940429688 1400.95996094 l 1,1,-1
 357.940429688 1.5 l 1,2,-1
 89.0595703125 1.5 l 1,3,-1
 89.0595703125 1400.95996094 l 1,0,-1
EndSplineSet
Substitution2: "'fina' Terminal Forms in Arabic lookup 9 subtable" uniFE8E
EndChar
StartChar: uni062D
Encoding: 1581 1581 23
Width: 1386
VWidth: 2438
GlyphClass: 2
Flags: W
AnchorPoint: "Anchor-10" 521.889 1340.9 basechar 0
AnchorPoint: "Anchor-7" 456.367 -717.2 basechar 0
LayerCount: 2
Fore
SplineSet
1278.50976562 815 m 5,0,-1
 1266.54199219 514.180664062 l 1,1,-1
 1216.19238281 517.291015625 l 2,2,3
 1084 525 1084 525 967.405273438 507.587890625 c 0,4,5
 629 456 629 456 477.71484375 307.3828125 c 0,6,7
 357 190 357 190 357.107421875 36.69140625 c 0,8,9
 357 -85 357 -85 474.5 -161 c 128,-1,10
 592 -237 592 -237 840.290039062 -237.734375 c 0,11,12
 1028 -238 1028 -238 1221.62792969 -169.850585938 c 1,13,-1
 1288.49511719 -458.64453125 l 1,14,15
 1084 -546 1084 -546 808.073242188 -542.426757812 c 0,16,17
 452 -539 452 -539 274.344238281 -380.943359375 c 0,18,19
 97 -223 97 -223 98.017578125 38.650390625 c 0,20,21
 99 310 99 310 320.888671875 496.58984375 c 0,22,23
 496 644 496 644 766 703 c 1,24,-1
 679 751 l 0,25,26
 635 778 635 778 596.762695312 792.799804688 c 0,27,28
 519 821 519 821 451.650390625 777.669921875 c 0,29,30
 379.393803663 732.247555207 379.393803663 732.247555207 317.26171875 650.43359375 c 2,31,-1
 290.76171875 615.5390625 l 1,32,-1
 93.2578125 767.384765625 l 5,33,-1
 123.325195312 804.446289062 l 6,34,35
 209 910 209 910 237.84765625 939.201171875 c 4,36,37
 366 1064 366 1064 535.249023438 1065.14453125 c 4,38,39
 635 1066 635 1066 770.943359375 979.576171875 c 4,40,41
 1000.36679425 833.766885155 1000.36679425 833.766885155 1230.4140625 818.245117188 c 6,42,-1
 1278.50976562 815 l 5,0,-1
EndSplineSet
Substitution2: "'fina' Terminal Forms in Arabic lookup 9 subtable" uniFEA2
Substitution2: "'medi' Medial Forms in Arabic lookup 11 subtable" uniFEA4
Substitution2: "'init' Initial Forms in Arabic lookup 13 subtable" uniFEA3
EndChar
StartChar: uni062F
Encoding: 1583 1583 33
Width: 958
VWidth: 2237
GlyphClass: 2
Flags: W
AnchorPoint: "Anchor-10" 285.58 1168.5 basechar 0
AnchorPoint: "Anchor-7" 330.5 -197 basechar 0
LayerCount: 2
Fore
SplineSet
866.182617188 327.700195312 m 0,0,1
 866.182617188 259.71875 866.182617188 259.71875 835.393554688 200.376953125 c 128,-1,2
 804.603515625 141.036132812 804.603515625 141.036132812 746.676757812 94.2353515625 c 0,3,4
 632.09765625 1.6630859375 632.09765625 1.6630859375 401.624023438 1.6630859375 c 0,5,6
 183.905273438 1.6630859375 183.905273438 1.6630859375 82.3154296875 22.8984375 c 2,7,-1
 41.75 31.376953125 l 1,8,-1
 41.75 312.515625 l 1,9,-1
 101.119140625 302.639648438 l 2,10,11
 235.6796875 280.254882812 235.6796875 280.254882812 340.627929688 280.254882812 c 0,12,13
 400.978515625 280.254882812 400.978515625 280.254882812 447.498046875 285.575195312 c 128,-1,14
 494.017578125 290.895507812 494.017578125 290.895507812 520.915039062 298.970703125 c 128,-1,15
 547.811523438 307.044921875 547.811523438 307.044921875 564.891601562 318.05078125 c 128,-1,16
 581.970703125 329.056640625 581.970703125 329.056640625 587.775390625 338.916992188 c 128,-1,17
 593.581054688 348.77734375 593.581054688 348.77734375 593.581054688 359.1796875 c 0,18,19
 593.581054688 367.491210938 593.581054688 367.491210938 583.97265625 390.250976562 c 128,-1,20
 574.365234375 413.010742188 574.365234375 413.010742188 554.565429688 442.709960938 c 0,21,22
 463.87109375 578.751953125 463.87109375 578.751953125 263.69921875 719.256835938 c 2,23,-1
 223.131835938 747.732421875 l 1,24,-1
 373.484375 975.494140625 l 1,25,-1
 416.586914062 944.45703125 l 2,26,27
 638.4375 784.706054688 638.4375 784.706054688 752.309570312 631.880859375 c 128,-1,28
 866.182617188 479.0546875 866.182617188 479.0546875 866.182617188 327.700195312 c 0,0,1
EndSplineSet
Substitution2: "'fina' Terminal Forms in Arabic lookup 9 subtable" uniFEAA
EndChar
StartChar: uni0631
Encoding: 1585 1585 54
Width: 906
VWidth: 2237
GlyphClass: 2
Flags: W
AnchorPoint: "Anchor-10" 443.7 918.348 basechar 0
AnchorPoint: "Anchor-7" 476.291 -650.16 basechar 0
LayerCount: 2
Fore
SplineSet
56.0478515625 -200.599609375 m 2,0,1
 553.43047742 -159.2391972 553.43047742 -159.2391972 553.43047742 210.147436311 c 0,2,3
 553.43047742 343.276315941 553.43047742 343.276315941 470.376953125 462.944335938 c 2,4,-1
 437.563476562 510.223632812 l 1,5,-1
 675.704101562 636.077148438 l 1,6,-1
 701.306640625 598.041992188 l 2,7,8
 820.640327594 420.756449336 820.640327594 420.756449336 820.640327594 212.438009496 c 0,9,10
 820.640327594 166.548607206 820.640327594 166.548607206 814.849609375 119.153320312 c 0,11,12
 781.721679688 -139.681640625 781.721679688 -139.681640625 597.807617188 -286.772460938 c 128,-1,13
 413.89453125 -433.86328125 413.89453125 -433.86328125 94.0439453125 -465.34765625 c 2,14,-1
 47.203125 -469.958984375 l 1,15,-1
 -0.5009765625 -205.25390625 l 1,16,-1
 56.0478515625 -200.599609375 l 2,0,1
EndSplineSet
PairPos2: "'kern' Horizontal Kerning lookup 15-1" uniFEDF dx=-110 dy=0 dh=-110 dv=0 dx=0 dy=0 dh=0 dv=0
PairPos2: "'kern' Horizontal Kerning lookup 15-1" uniFBAC dx=-110 dy=0 dh=-110 dv=0 dx=0 dy=0 dh=0 dv=0
PairPos2: "'kern' Horizontal Kerning lookup 15-1" uniFB90 dx=-110 dy=0 dh=-110 dv=0 dx=0 dy=0 dh=0 dv=0
PairPos2: "'kern' Horizontal Kerning lookup 15-1" uni06A9 dx=-110 dy=0 dh=-110 dv=0 dx=0 dy=0 dh=0 dv=0
PairPos2: "'kern' Horizontal Kerning lookup 15-1" uni0649 dx=-70 dy=0 dh=-70 dv=0 dx=0 dy=0 dh=0 dv=0
PairPos2: "'kern' Horizontal Kerning lookup 15-1" uni0647 dx=-110 dy=0 dh=-110 dv=0 dx=0 dy=0 dh=0 dv=0
PairPos2: "'kern' Horizontal Kerning lookup 15-1" uniFEE7 dx=-110 dy=0 dh=-110 dv=0 dx=0 dy=0 dh=0 dv=0
PairPos2: "'kern' Horizontal Kerning lookup 15-1" uniFEE3 dx=-110 dy=0 dh=-110 dv=0 dx=0 dy=0 dh=0 dv=0
PairPos2: "'kern' Horizontal Kerning lookup 15-1" uni0645 dx=-110 dy=0 dh=-110 dv=0 dx=0 dy=0 dh=0 dv=0
PairPos2: "'kern' Horizontal Kerning lookup 15-1" uni0644 dx=-70 dy=0 dh=-70 dv=0 dx=0 dy=0 dh=0 dv=0
PairPos2: "'kern' Horizontal Kerning lookup 15-1" uniFEDB dx=-110 dy=0 dh=-110 dv=0 dx=0 dy=0 dh=0 dv=0
PairPos2: "'kern' Horizontal Kerning lookup 15-1" uniFED7 dx=-110 dy=0 dh=-110 dv=0 dx=0 dy=0 dh=0 dv=0
PairPos2: "'kern' Horizontal Kerning lookup 15-1" uni0642 dx=-70 dy=0 dh=-70 dv=0 dx=0 dy=0 dh=0 dv=0
PairPos2: "'kern' Horizontal Kerning lookup 15-1" uniFED3 dx=-110 dy=0 dh=-110 dv=0 dx=0 dy=0 dh=0 dv=0
PairPos2: "'kern' Horizontal Kerning lookup 15-1" uni0641 dx=-110 dy=0 dh=-110 dv=0 dx=0 dy=0 dh=0 dv=0
PairPos2: "'kern' Horizontal Kerning lookup 15-1" uniFECF dx=-110 dy=0 dh=-110 dv=0 dx=0 dy=0 dh=0 dv=0
PairPos2: "'kern' Horizontal Kerning lookup 15-1" uniFECB dx=-110 dy=0 dh=-110 dv=0 dx=0 dy=0 dh=0 dv=0
PairPos2: "'kern' Horizontal Kerning lookup 15-1" uniFEC7 dx=-110 dy=0 dh=-110 dv=0 dx=0 dy=0 dh=0 dv=0
PairPos2: "'kern' Horizontal Kerning lookup 15-1" uni0638 dx=-110 dy=0 dh=-110 dv=0 dx=0 dy=0 dh=0 dv=0
PairPos2: "'kern' Horizontal Kerning lookup 15-1" uniFEC3 dx=-110 dy=0 dh=-110 dv=0 dx=0 dy=0 dh=0 dv=0
PairPos2: "'kern' Horizontal Kerning lookup 15-1" uni0637 dx=-110 dy=0 dh=-110 dv=0 dx=0 dy=0 dh=0 dv=0
PairPos2: "'kern' Horizontal Kerning lookup 15-1" uniFEBF dx=-110 dy=0 dh=-110 dv=0 dx=0 dy=0 dh=0 dv=0
PairPos2: "'kern' Horizontal Kerning lookup 15-1" uni0636 dx=-110 dy=0 dh=-110 dv=0 dx=0 dy=0 dh=0 dv=0
PairPos2: "'kern' Horizontal Kerning lookup 15-1" uniFEBB dx=-110 dy=0 dh=-110 dv=0 dx=0 dy=0 dh=0 dv=0
PairPos2: "'kern' Horizontal Kerning lookup 15-1" uni0635 dx=-110 dy=0 dh=-110 dv=0 dx=0 dy=0 dh=0 dv=0
PairPos2: "'kern' Horizontal Kerning lookup 15-1" uniFEB7 dx=-110 dy=0 dh=-110 dv=0 dx=0 dy=0 dh=0 dv=0
PairPos2: "'kern' Horizontal Kerning lookup 15-1" uni0634 dx=-110 dy=0 dh=-110 dv=0 dx=0 dy=0 dh=0 dv=0
PairPos2: "'kern' Horizontal Kerning lookup 15-1" uniFEB3 dx=-110 dy=0 dh=-110 dv=0 dx=0 dy=0 dh=0 dv=0
PairPos2: "'kern' Horizontal Kerning lookup 15-1" uni0633 dx=-110 dy=0 dh=-110 dv=0 dx=0 dy=0 dh=0 dv=0
PairPos2: "'kern' Horizontal Kerning lookup 15-1" uni0630 dx=-110 dy=0 dh=-110 dv=0 dx=0 dy=0 dh=0 dv=0
PairPos2: "'kern' Horizontal Kerning lookup 15-1" uni062F dx=-110 dy=0 dh=-110 dv=0 dx=0 dy=0 dh=0 dv=0
PairPos2: "'kern' Horizontal Kerning lookup 15-1" uniFEA7 dx=-70 dy=0 dh=-70 dv=0 dx=0 dy=0 dh=0 dv=0
PairPos2: "'kern' Horizontal Kerning lookup 15-1" uniFEA3 dx=-70 dy=0 dh=-70 dv=0 dx=0 dy=0 dh=0 dv=0
PairPos2: "'kern' Horizontal Kerning lookup 15-1" uniFE9F dx=-70 dy=0 dh=-70 dv=0 dx=0 dy=0 dh=0 dv=0
PairPos2: "'kern' Horizontal Kerning lookup 15-1" uniFE9B dx=-110 dy=0 dh=-110 dv=0 dx=0 dy=0 dh=0 dv=0
PairPos2: "'kern' Horizontal Kerning lookup 15-1" uni062B dx=-110 dy=0 dh=-110 dv=0 dx=0 dy=0 dh=0 dv=0
PairPos2: "'kern' Horizontal Kerning lookup 15-1" uniFE97 dx=-110 dy=0 dh=-110 dv=0 dx=0 dy=0 dh=0 dv=0
PairPos2: "'kern' Horizontal Kerning lookup 15-1" uni062A dx=-110 dy=0 dh=-110 dv=0 dx=0 dy=0 dh=0 dv=0
PairPos2: "'kern' Horizontal Kerning lookup 15-1" uni0629 dx=-110 dy=0 dh=-110 dv=0 dx=0 dy=0 dh=0 dv=0
PairPos2: "'kern' Horizontal Kerning lookup 15-1" uniFE91 dx=-70 dy=0 dh=-70 dv=0 dx=0 dy=0 dh=0 dv=0
PairPos2: "'kern' Horizontal Kerning lookup 15-1" uni0628 dx=-110 dy=0 dh=-110 dv=0 dx=0 dy=0 dh=0 dv=0
PairPos2: "'kern' Horizontal Kerning lookup 15-1" uni0627 dx=-110 dy=0 dh=-110 dv=0 dx=0 dy=0 dh=0 dv=0
PairPos2: "'kern' Horizontal Kerning lookup 15-1" uni0622 dx=-110 dy=0 dh=-110 dv=0 dx=0 dy=0 dh=0 dv=0
PairPos2: "'kern' Horizontal Kerning lookup 15-1" uniFB94 dx=-110 dy=0 dh=-110 dv=0 dx=0 dy=0 dh=0 dv=0
PairPos2: "'kern' Horizontal Kerning lookup 15-1" afii57509 dx=-110 dy=0 dh=-110 dv=0 dx=0 dy=0 dh=0 dv=0
PairPos2: "'kern' Horizontal Kerning lookup 15-1" uniFB56 dx=-110 dy=0 dh=-110 dv=0 dx=0 dy=0 dh=0 dv=0
PairPos2: "'kern' Horizontal Kerning lookup 15-1" afii57506 dx=-110 dy=0 dh=-110 dv=0 dx=0 dy=0 dh=0 dv=0
Substitution2: "'fina' Terminal Forms in Arabic lookup 9 subtable" uniFEAE
EndChar
StartChar: uni0633
Encoding: 1587 1587 37
Width: 2425
VWidth: 2237
GlyphClass: 2
Flags: W
AnchorPoint: "Anchor-10" 547.51 902.5 basechar 0
AnchorPoint: "Anchor-7" 432.5 -642.03 basechar 0
LayerCount: 2
Fore
SplineSet
1469 0 m 0,0,1
 1388.43870483 0 1388.43870483 0 1337.16113281 14.54296875 c 1,2,3
 1303.71289062 -209.326171875 1303.71289062 -209.326171875 1144.84570312 -323.153320312 c 128,-1,4
 985.979492188 -436.979492188 985.979492188 -436.979492188 718.103515625 -436.959960938 c 0,5,6
 389.198242188 -436.98046875 389.198242188 -436.98046875 214.6328125 -289.684570312 c 128,-1,7
 40.068359375 -142.388671875 40.068359375 -142.388671875 40.1474609375 143.176757812 c 0,8,9
 39.9912109375 304.60546875 39.9912109375 304.60546875 115.31640625 520.830078125 c 2,10,-1
 130.137695312 563.377929688 l 1,11,-1
 393.358398438 506.834960938 l 1,12,-1
 374.453125 452.361328125 l 2,13,14
 312.012695312 272.439453125 312.012695312 272.439453125 312.067382812 126.827636719 c 128,-1,15
 312.122070312 -18.7841796875 312.122070312 -18.7841796875 403.472437942 -92.6745944582 c 128,-1,16
 494.822835202 -166.565033196 494.822835202 -166.565033196 700.899108873 -166.565033196 c 0,17,18
 907.975268858 -166.565033196 907.975268858 -166.565033196 1000.5066774 -95.056442379 c 128,-1,19
 1093.03808594 -23.5478515625 1093.03808594 -23.5478515625 1093.0206438 131.452831495 c 128,-1,20
 1093.00320167 286.453514552 1093.00320167 286.453514552 1032.14746094 520.0546875 c 2,21,-1
 1018.71386719 571.62109375 l 1,22,-1
 1277.56445312 627.0625 l 1,23,-1
 1286.89453125 575.180664062 l 2,24,25
 1319.50416626 393.869374515 1319.50416626 393.869374515 1332.73792298 355.196406007 c 0,26,27
 1360.36290301 274.468007712 1360.36290301 274.468007712 1467.26289166 274.468007712 c 0,28,29
 1557.49843547 274.468007712 1557.49843547 274.468007712 1584.59356956 315.874354575 c 4,30,31
 1593.50256882 329.488943526 1593.50256882 329.488943526 1596.63183594 357.400390625 c 2,32,-1
 1628.14355469 636.0703125 l 1,33,-1
 1835.2265625 636.0703125 l 1,34,-1
 1863.84960938 379.443359375 l 2,35,36
 1872.70156336 301.216016301 1872.70156336 301.216016301 1907.22363281 284.075195312 c 0,37,38
 1923.48925781 276 1923.48925781 276 1950 276 c 0,39,40
 2079.0829065 276 2079.0829065 276 2079.08496094 438.583496094 c 0,41,42
 2079.0859375 515.866210938 2079.0859375 515.866210938 2064.71484375 564.8515625 c 128,-1,43
 2050.34472656 613.836914062 2050.34472656 613.836914062 2020.80078125 666.571289062 c 2,44,-1
 1993.02636719 716.147460938 l 1,45,-1
 2223.48339844 814.319335938 l 1,46,-1
 2246.578125 777.255859375 l 2,47,48
 2333.41864556 637.892974472 2333.41864556 637.892974472 2333.41864556 425.728761888 c 128,-1,49
 2333.41864556 213.564549304 2333.41864556 213.564549304 2192.87011719 87.87109375 c 0,50,51
 2093.84517024 0.496026416048 2093.84517024 0.496026416048 1951.65081106 0.496026416048 c 0,52,53
 1798.60063911 0.496026416048 1798.60063911 0.496026416048 1723.31054688 84.1279296875 c 1,54,55
 1642.95605469 0 1642.95605469 0 1469 0 c 0,0,1
EndSplineSet
Substitution2: "'fina' Terminal Forms in Arabic lookup 9 subtable" uniFEB2
Substitution2: "'medi' Medial Forms in Arabic lookup 11 subtable" uniFEB4
Substitution2: "'init' Initial Forms in Arabic lookup 13 subtable" uniFEB3
EndChar
StartChar: uni0635
Encoding: 1589 1589 31
Width: 2579
VWidth: 2393
GlyphClass: 2
Flags: W
AnchorPoint: "Anchor-10" 654.816 972.991 basechar 0
AnchorPoint: "Anchor-7" 599.904 -695.235 basechar 0
LayerCount: 2
Fore
SplineSet
1440.23535156 419.120117188 m 1,0,1
 1786 911 1786 911 2094.13769531 911.103515625 c 0,2,3
 2285 911 2285 911 2384.12597656 798.004882812 c 0,4,5
 2484 683 2484 683 2481.40722656 475.659179688 c 0,6,7
 2477 192 2477 192 2270.83007812 81.00390625 c 0,8,9
 2118.81313882 -1.10092431522 2118.81313882 -1.10092431522 1752.98925781 -0.828125 c 2,10,-1
 1751.6796875 -0.8271484375 l 2,11,12
 1747.80943678 -0.879908324901 1747.80943678 -0.879908324901 1728.38476562 -0.7353515625 c 2,13,-1
 1629.44140625 0.0009765625 l 2,14,15
 1504 1 1504 1 1436.671875 51.06640625 c 1,16,17
 1411 -296 1411 -296 1122.78808594 -418.265625 c 0,18,19
 977 -480 977 -480 768.37109375 -479.950195312 c 0,20,21
 325 -480 325 -480 172.913085938 -197.165039062 c 0,22,23
 20.9912359139 86.0163362016 20.9912359139 86.0163362016 177.30078125 541.672851562 c 2,24,-1
 190.262695312 579.458007812 l 1,25,-1
 443.373046875 525.083007812 l 1,26,-1
 427.197265625 477.267578125 l 2,27,28
 361 282 361 282 360.809570312 164.70703125 c 0,29,30
 360 -172 360 -172 778.26953125 -171.680664062 c 0,31,32
 1002 -172 1002 -172 1103.28027344 -88.7265625 c 0,33,34
 1205 -6 1205 -6 1204.04101562 172.244140625 c 0,35,36
 1202.99793098 302.25788963 1202.99793098 302.25788963 1138.64160156 550.362304688 c 2,37,-1
 1126.84863281 595.826171875 l 1,38,-1
 1379.15332031 649.864257812 l 1,39,-1
 1389.54980469 601.567382812 l 2,40,41
 1424 442 1424 442 1440.23535156 419.120117188 c 1,0,1
1664.92773438 320.618164062 m 5,42,-1
 1784.31347656 320.618164062 l 2,43,44
 1940 321 1940 321 2038.16210938 329.087890625 c 0,45,46
 2223 345 2223 345 2222.71289062 476.553710938 c 0,47,48
 2223 645 2223 645 2095.17089844 644.971679688 c 0,49,50
 1926 645 1926 645 1664.92773438 320.618164062 c 5,42,-1
EndSplineSet
Substitution2: "'fina' Terminal Forms in Arabic lookup 9 subtable" uniFEBA
Substitution2: "'medi' Medial Forms in Arabic lookup 11 subtable" uniFEBC
Substitution2: "'init' Initial Forms in Arabic lookup 13 subtable" uniFEBB
EndChar
StartChar: uni0637
Encoding: 1591 1591 33
Width: 1498
VWidth: 2438
GlyphClass: 2
Flags: W
AnchorPoint: "Anchor-10" 428.599 1701.85 basechar 0
AnchorPoint: "Anchor-7" 690.982 -275.158 basechar 0
LayerCount: 2
Fore
SplineSet
583.5625 284.35546875 m 1,0,-1
 703.05859375 284.35546875 l 2,1,2
 960 284 960 284 1000.31494141 289.967285156 c 0,3,4
 1085 301 1085 301 1117.19921875 347.311523438 c 4,5,6
 1142 382 1142 382 1142.16699219 468.404785156 c 0,7,8
 1143 556 1143 556 1112.42871094 589.958007812 c 128,-1,9
 1082 624 1082 624 1011.0703125 623.877929688 c 0,10,11
 940 624 940 624 830.209960938 539.541992188 c 0,12,13
 720 455 720 455 583.5625 284.35546875 c 1,0,-1
577.616210938 653.341796875 m 1,14,15
 812 886 812 886 1020.03710938 885.83984375 c 0,16,17
 1274.52822247 886.163417956 1274.52822247 886.163417956 1360.62402344 680.634765625 c 0,18,19
 1402 581 1402 581 1400 448.5 c 0,20,21
 1396.01314258 184.37069603 1396.01314258 184.37069603 1220.00657129 90.685348015 c 128,-1,22
 1044 -3 1044 -3 671.412109375 -0.08984375 c 0,23,24
 663 0 663 0 653.94921875 0 c 2,25,-1
 97.7392578125 0 l 1,26,-1
 97.7392578125 272.102539062 l 1,27,-1
 273.540039062 272.248046875 l 1,28,29
 295 307 295 307 318.662109375 341.025390625 c 1,30,-1
 318.662109375 1523.81542969 l 1,31,-1
 577.616210938 1523.81542969 l 1,32,-1
 577.616210938 653.341796875 l 1,14,15
EndSplineSet
Substitution2: "'fina' Terminal Forms in Arabic lookup 9 subtable" uniFEC2
Substitution2: "'medi' Medial Forms in Arabic lookup 11 subtable" uniFEC4
Substitution2: "'init' Initial Forms in Arabic lookup 13 subtable" uniFEC3
EndChar
StartChar: uni0639
Encoding: 1593 1593 62
Width: 1280
VWidth: 2237
GlyphClass: 2
Flags: W
AnchorPoint: "Anchor-10" 539.325 1403.51 basechar 0
AnchorPoint: "Anchor-7" 318.235 -683.76 basechar 0
LayerCount: 2
Fore
SplineSet
590.142625856 961.22101109 m 0,0,1
 420 961 420 961 419.879882812 822.719726562 c 4,2,3
 420.002442193 739.338494772 420.002442193 739.338494772 511.130859375 683.599609375 c 0,4,5
 535 669 535 669 567.065429688 662.385742188 c 1,6,-1
 1018.04003906 733.75 l 1,7,-1
 1018.04003906 461.021484375 l 1,8,-1
 972.078125 456.45703125 l 2,9,10
 704.043697408 430.297062692 704.043697408 430.297062692 557.330078125 345.028320312 c 0,11,12
 325 210 325 210 325.110282485 31.0783375634 c 0,13,14
 325 -100 325 -100 417.953937663 -169.36263064 c 0,15,16
 511 -239 511 -239 657.132824702 -239.113961011 c 0,17,18
 913.115507934 -238.999948554 913.115507934 -238.999948554 1129.12988281 -127.533203125 c 2,19,-1
 1188.45996094 -96.91796875 l 1,20,-1
 1188 -391 l 1,21,-1
 1151.96972656 -408.420898438 l 2,22,23
 1021 -472 1021 -472 797.888671875 -496.858398438 c 0,24,25
 719 -506 719 -506 655.864477815 -505.54523823 c 0,26,27
 315 -506 315 -506 162.234375 -320.677734375 c 0,28,29
 48 -183 48 -183 48.2079020753 19.3361915897 c 0,30,31
 48 302 48 302 334.80078125 521.21875 c 1,32,33
 166 627 166 627 166.02337921 834.403360546 c 0,34,35
 166 966 166 966 234.011689605 1065.96732924 c 0,36,37
 301 1165 301 1165 436.859375 1200 c 0,38,39
 502 1217 502 1217 569.57630334 1216.54237943 c 0,40,41
 716.501127423 1216.99845144 716.501127423 1216.99845144 872.651367188 1136.33984375 c 2,42,-1
 910.073242188 1117.00976562 l 1,43,-1
 840.375976562 880.310546875 l 1,44,-1
 786.166992188 906.688476562 l 2,45,46
 675 961 675 961 590.142625856 961.22101109 c 0,0,1
EndSplineSet
Substitution2: "'fina' Terminal Forms in Arabic lookup 9 subtable" uniFECA
Substitution2: "'medi' Medial Forms in Arabic lookup 11 subtable" uniFECC
Substitution2: "'init' Initial Forms in Arabic lookup 13 subtable" uniFECB
EndChar
StartChar: afii57440
Encoding: 1600 1600 37
Width: 695
VWidth: 2304
GlyphClass: 2
Flags: W
AnchorPoint: "Anchor-10" 329.976 1392.15 basechar 0
AnchorPoint: "Anchor-7" 329.976 -76.7441 basechar 0
LayerCount: 2
Fore
SplineSet
-58.87109375 0 m 1,0,-1
 -58.87109375 271.001953125 l 1,1,-1
 718.822265625 271.001953125 l 1,2,-1
 718.822265625 0 l 1,3,-1
 -58.87109375 0 l 1,0,-1
EndSplineSet
EndChar
StartChar: uni0643
Encoding: 1603 1603 40
Width: 1931
VWidth: 2304
GlyphClass: 2
Flags: W
AnchorPoint: "Anchor-10" 667.544 1430.17 basechar 0
AnchorPoint: "Anchor-7" 572.504 -215.08 basechar 0
LayerCount: 2
Fore
SplineSet
1184.55664062 1342.69824219 m 5,0,-1
 1184.55664062 1195.56347656 l 5,1,-1
 1142.78710938 1192.55664062 l 6,2,3
 1027.3203125 1184.24121094 1027.3203125 1184.24121094 977.387695312 1142.01074219 c 4,4,5
 967.612304688 1133.74316406 967.612304688 1133.74316406 967.612304688 1116.92871094 c 132,-1,6
 967.612304688 1100.11425781 967.612304688 1100.11425781 973.909179688 1096.35839844 c 4,7,8
 996.616210938 1082.81347656 996.616210938 1082.81347656 1034.0390625 1077.30957031 c 4,9,10
 1194.35644531 1053.73046875 1194.35644531 1053.73046875 1194.35644531 931.522460938 c 4,11,12
 1194.35644531 803.04296875 1194.35644531 803.04296875 1072.5546875 734.1640625 c 132,-1,13
 950.752929688 665.28515625 950.752929688 665.28515625 753.961914062 698.541015625 c 6,14,-1
 716.459960938 704.87890625 l 5,15,-1
 716.459960938 858.557617188 l 5,16,-1
 767.387695312 851.7890625 l 6,17,18
 829.450195312 843.54296875 829.450195312 843.54296875 901.158203125 843.54296875 c 132,-1,19
 972.865234375 843.54296875 972.865234375 843.54296875 1023.70898438 880.322265625 c 4,20,21
 1044.13964844 895.100585938 1044.13964844 895.100585938 1044.13964844 903.7421875 c 132,-1,22
 1044.13964844 912.383789062 1044.13964844 912.383789062 1043.58398438 914.881835938 c 4,23,24
 1039.25390625 934.346679688 1039.25390625 934.346679688 1005.67871094 939.752929688 c 132,-1,25
 972.102539062 945.158203125 972.102539062 945.158203125 964.53515625 946.734375 c 4,26,27
 813.805664062 978.12890625 813.805664062 978.12890625 817.030273438 1126.47949219 c 4,28,29
 819.698242188 1234.3515625 819.698242188 1234.3515625 916.26171875 1283.24609375 c 132,-1,30
 1012.82421875 1332.140625 1012.82421875 1332.140625 1136.79589844 1339.76171875 c 6,31,-1
 1184.55664062 1342.69824219 l 5,0,-1
432.030273438 383.854492188 m 4,32,33
 491 321 491 321 580.203125 299.758789062 c 4,34,35
 670 278 670 278 884.356445312 271.888671875 c 4,36,37
 1099 266 1099 266 1224.70019531 278.653320312 c 4,38,39
 1522.67382812 309.965820312 1522.67382812 309.965820312 1537.71582031 453.4921875 c 6,40,-1
 1543.60644531 509.698242188 l 5,41,-1
 1543.60644531 1471.4140625 l 5,42,-1
 1806.04492188 1471.4140625 l 5,43,-1
 1806.04492188 475.875976562 l 6,44,45
 1806 341 1806 341 1758.83398438 264.169921875 c 4,46,47
 1595 -2 1595 -2 996.677734375 2.1142578125 c 4,48,49
 631 5 631 5 498.813476562 42.2060546875 c 4,50,51
 130.66796875 148.383789062 130.66796875 148.383789062 91.3857421875 519.219726562 c 4,52,53
 77.0927734375 651.146484375 77.0927734375 651.146484375 130.388671875 800.262695312 c 6,54,-1
 143.4296875 836.75 l 5,55,-1
 391.759765625 787.901367188 l 5,56,-1
 381.189453125 742.529296875 l 6,57,58
 349 605 349 605 357.4765625 552 c 4,59,60
 373 446 373 446 432.030273438 383.854492188 c 4,32,33
EndSplineSet
Substitution2: "'fina' Terminal Forms in Arabic lookup 9 subtable" uniFEDA
Substitution2: "'medi' Medial Forms in Arabic lookup 11 subtable" uniFEDC
Substitution2: "'init' Initial Forms in Arabic lookup 13 subtable" uniFEDB
EndChar
StartChar: uni0644
Encoding: 1604 1604 68
Width: 1314
VWidth: 2237
GlyphClass: 2
Flags: W
AnchorPoint: "Anchor-10" 443.01 1201.5 basechar 0
AnchorPoint: "Anchor-7" 328.15 -497.616 basechar 0
LayerCount: 2
Fore
SplineSet
918.768 220.736 m 0,0,1
 920.91 245.827 920.91 245.827 920.91 502.32 c 2,2,-1
 920.91 1400.03 l 1,3,-1
 1188.79 1400.03 l 1,4,-1
 1188.79 502.32 l 2,5,6
 1188.79 310.385 1188.79 310.385 1186.44 244.835 c 1,7,8
 1181.56 -13.1758 1181.56 -13.1758 1027.35 -186.693 c 1,9,10
 891.438 -336.825 891.438 -336.825 645.522 -342.282 c 0,11,12
 369.49 -348.441 369.49 -348.441 210.968 -210.628 c 0,13,14
 52.7383 -73.417 52.7383 -73.417 41.0928 171.883 c 0,15,16
 33.583 332.529 33.583 332.529 89.3477 474.621 c 2,17,-1
 104.962 514.407 l 1,18,-1
 361.093 462.965 l 1,19,-1
 345.089 409.381 l 2,20,21
 305.633 277.276 305.633 277.276 310.729 198.87 c 0,22,23
 318.772 64.2168 318.772 64.2168 398.742 -10.1152 c 0,24,25
 471.18 -77.8711 471.18 -77.8711 643.216 -71.5791 c 0,26,27
 741.276 -68.21 741.276 -68.21 810.581 -18.2461 c 0,28,29
 904.119 49.1887 904.119 49.1887 918.768 220.736 c 0,0,1
EndSplineSet
Substitution2: "'fina' Terminal Forms in Arabic lookup 9 subtable" uniFEDE
Substitution2: "'medi' Medial Forms in Arabic lookup 11 subtable" uniFEE0
Substitution2: "'init' Initial Forms in Arabic lookup 13 subtable" uniFEDF
EndChar
StartChar: uni0645
Encoding: 1605 1605 42
Width: 1186
VWidth: 2438
GlyphClass: 2
Flags: W
AnchorPoint: "Anchor-10" 636.078 1135.98 basechar 0
AnchorPoint: "Anchor-7" 221.936 -641.918 basechar 0
LayerCount: 2
Fore
SplineSet
559.108398438 463.64453125 m 0,0,1
 559.139648438 434.77734375 559.139648438 434.77734375 559.05859375 408.852539062 c 1,2,3
 669.333984375 392.927734375 669.333984375 392.927734375 754.028609272 396.03503596 c 128,-1,4
 838.723234169 399.142337545 838.723234169 399.142337545 849.879882812 413.094726562 c 128,-1,5
 861.104111506 427.131630489 861.104111506 427.131630489 831.711914062 489.0078125 c 0,6,7
 760.911132812 641.360351562 760.911132812 641.360351562 669.727539062 640.276367188 c 0,8,9
 628.030273438 639.8203125 628.030273438 639.8203125 593.520996094 596.583984375 c 128,-1,10
 559.01171875 553.34765625 559.01171875 553.34765625 559.108398438 463.64453125 c 0,0,1
97.7392578125 -86.26171875 m 2,11,12
 97.7392578125 321.913276919 97.7392578125 321.913276919 308.212890625 391.916992188 c 1,13,14
 311 687 311 687 457.487304688 814.950195312 c 0,15,16
 545 892 545 892 675.946289062 891.926757812 c 128,-1,17
 807 892 807 892 908.745117188 795.590820312 c 0,18,19
 1011 699 1011 699 1068.81933594 518.7109375 c 0,20,21
 1088 459 1088 459 1088.56152344 412.724609375 c 0,22,23
 1092 306 1092 306 1050.94921875 235.817382812 c 0,24,25
 1010 165 1010 165 938.534460664 149.579066386 c 0,26,27
 890 139 890 139 762 139 c 4,28,29
 638 139 638 139 550.108886719 147.200195312 c 0,30,31
 399 161 399 161 374.177734375 84.2001953125 c 0,32,33
 355.727539062 25.1276536751 355.727539062 25.1276536751 355.727539062 -101.63671875 c 2,34,-1
 355.727539062 -532.821289062 l 1,35,-1
 97.7392578125 -532.821289062 l 1,36,-1
 97.7392578125 -86.26171875 l 2,11,12
EndSplineSet
Substitution2: "'init' Initial Forms in Arabic lookup 13 subtable" uniFEE3
Substitution2: "'medi' Medial Forms in Arabic lookup 11 subtable" uniFEE4
Substitution2: "'fina' Terminal Forms in Arabic lookup 9 subtable" uniFEE2
EndChar
StartChar: uni0647
Encoding: 1607 1607 71
Width: 1002
VWidth: 2237
GlyphClass: 2
Flags: W
AnchorPoint: "Anchor-10" 429.924 1229.58 basechar 0
AnchorPoint: "Anchor-7" 327.864 -253.56 basechar 0
LayerCount: 2
Fore
SplineSet
330.689 434.777 m 0,0,1
 309.452 380.625 309.452 380.625 324.501 338.5 c 0,2,3
 342.464 288.219 342.464 288.219 397 273 c 0,4,5
 479 249 479 249 552 267 c 0,6,7
 614.271 283.588 614.271 283.588 626.717 328.686 c 0,8,9
 638.256 370.498 638.256 370.498 610.128 450.05 c 1,10,11
 566.097 550.362 566.097 550.362 461.322 626.833 c 1,12,13
 362.752 517.108 362.752 517.108 330.689 434.777 c 0,0,1
116.146 612.557 m 1,14,15
 140.153 662.01 140.153 662.01 245.567 787.469 c 1,16,-1
 192.7 818.08 l 1,17,-1
 331.723 1016.58 l 1,18,-1
 371.293 996.237 l 2,19,20
 740.221 806.545 740.221 806.545 850.432 573.24 c 0,21,22
 902.732 462.526 902.732 462.526 909.99 366.583 c 128,-1,23
 917.248 270.641 917.248 270.641 876.279 191.854 c 128,-1,24
 835.311 113.068 835.311 113.068 746.223 60.2578 c 1,25,26
 651.553 2.87207 651.553 2.87207 483.019 4.43555 c 0,27,28
 327 5.9043 327 5.9043 237.997 48.4297 c 0,29,30
 69.6797 129 69.6797 129 42.0039 282.271 c 0,31,32
 16.8779 421.417 16.8779 421.417 116.146 612.557 c 1,14,15
EndSplineSet
Substitution2: "'fina' Terminal Forms in Arabic lookup 9 subtable" uniFEEA
Substitution2: "'medi' Medial Forms in Arabic lookup 11 subtable" uniFEEC
Substitution2: "'init' Initial Forms in Arabic lookup 13 subtable" uniFEEB
EndChar
StartChar: uni0648
Encoding: 1608 1608 53
Width: 851
VWidth: 2237
GlyphClass: 2
Flags: W
AnchorPoint: "Anchor-10" 339.282 1088.17 basechar 0
AnchorPoint: "Anchor-7" 318.191 -616.443 basechar 0
LayerCount: 2
Fore
SplineSet
491.791015625 270.28125 m 1,0,1
 484.086274182 498.630591915 484.086274182 498.630591915 403.312720813 498.630591915 c 0,2,3
 362.163940327 498.630591915 362.163940327 498.630591915 334.065303497 452.606962624 c 128,-1,4
 305.966666667 406.583333333 305.966666667 406.583333333 305.966666667 357.396111111 c 0,5,6
 305.966666667 266.902165647 305.966666667 266.902165647 436.238047931 266.902165647 c 0,7,8
 461.554403188 266.902165647 461.554403188 266.902165647 491.791015625 270.28125 c 1,0,1
691.607261752 578.948446861 m 0,9,10
 764 445 764 445 763.565898448 254.36860698 c 0,11,12
 764 -115 764 -115 555.46875 -299.041015625 c 0,13,14
 408.477971783 -429.46318588 408.477971783 -429.46318588 103.299804688 -454.909179688 c 2,15,-1
 56.990234375 -458.770507812 l 1,16,-1
 10.240234375 -195.959960938 l 1,17,-1
 65.6630859375 -191.013671875 l 2,18,19
 353 -165 353 -165 449.288085938 1.83203125 c 1,20,21
 423 -0 423 -0 397.883474644 -0.16249454996 c 0,22,23
 199 0 199 0 108.91796875 124.713867188 c 0,24,25
 51 206 51 206 51.1328125 321.015625 c 4,26,27
 51 445 51 445 95.6488597675 542.943336796 c 0,28,29
 209.192631183 789.418153589 209.192631183 789.418153589 393.779476248 789.584320606 c 2,30,-1
 394.361291809 789.584844362 l 2,31,32
 578 790 578 790 691.607261752 578.948446861 c 0,9,10
EndSplineSet
Substitution2: "'fina' Terminal Forms in Arabic lookup 9 subtable" uniFEEE
EndChar
StartChar: uni0649
Encoding: 1609 1609 73
Width: 1423
VWidth: 2237
GlyphClass: 2
Flags: W
AnchorPoint: "Anchor-10" 493.847 1109.66 basechar 0
AnchorPoint: "Anchor-7" 383.548 -530.146 basechar 0
LayerCount: 2
Fore
SplineSet
467.752 705.974 m 1,0,1
 314.987150133 442.431088833 314.987150133 442.431088833 314.987150133 246.247006167 c 0,2,3
 314.987150133 153.028797391 314.987150133 153.028797391 351.824 88.165 c 0,4,5
 425.129674916 -41.1347196599 425.129674916 -41.1347196599 684.969157617 -41.1347196599 c 0,6,7
 844.580449275 -41.1347196599 844.580449275 -41.1347196599 921.313724638 -2.88440982995 c 0,8,9
 1047.61302928 60.0737724057 1047.61302928 60.0737724057 1091.5 134.5 c 0,10,11
 1102.25 153.199 1102.25 153.199 1097.23 168.004 c 132,-1,12
 1092.21 182.809 1092.21 182.809 1065.525 182.073 c 0,13,14
 1049.25995581 181.624393198 1049.25995581 181.624393198 1033.67006871 181.624393198 c 0,15,16
 795.221761714 181.624393198 795.221761714 181.624393198 714.719 286.571 c 0,17,18
 675.103456952 338.968283904 675.103456952 338.968283904 675.103456952 403.371135643 c 0,19,20
 675.103456952 618.965320349 675.103456952 618.965320349 838.32878782 744.488282401 c 0,21,22
 964.37457564 841.419564801 964.37457564 841.419564801 1185.72192987 841.419564801 c 0,23,24
 1222.94161831 841.419564801 1222.94161831 841.419564801 1262.86 838.682 c 2,25,-1
 1309.28 835.498 l 1,26,-1
 1309.28 561.944 l 1,27,-1
 1257.1 563.152 l 2,28,29
 1241.18421791 563.520532321 1241.18421791 563.520532321 1226.07622507 563.520532321 c 0,30,31
 1026.97428374 563.520532321 1026.97428374 563.520532321 971.56 503.504 c 0,32,33
 953.464 483.958 953.464 483.958 956.75 463.583 c 0,34,35
 960.532 444.908 960.532 444.908 992.548048765 446.101794873 c 128,-1,36
 1024.56409753 447.295589745 1024.56409753 447.295589745 1077.94401339 447.295589745 c 0,37,38
 1254.56535061 447.295589745 1254.56535061 447.295589745 1322.12 350.316 c 0,39,40
 1362.47127826 292.390990691 1362.47127826 292.390990691 1362.47127826 206.115452304 c 0,41,42
 1362.47127826 6.58112616933 1362.47127826 6.58112616933 1201.17 -141.539 c 0,43,44
 1004.89853426 -320.734272804 1004.89853426 -320.734272804 686.194427226 -320.734272804 c 0,45,46
 243.819503961 -320.734272804 243.819503961 -320.734272804 91.9082 -19.7998 c 0,47,48
 36.7460027005 89.2531371493 36.7460027005 89.2531371493 36.7460027005 245.504916139 c 0,49,50
 36.7460027005 500.662253371 36.7460027005 500.662253371 198.789 799.544 c 1,51,-1
 467.752 705.974 l 1,0,1
EndSplineSet
Substitution2: "'fina' Terminal Forms in Arabic lookup 9 subtable" uniFEF0
Substitution2: "'medi' Medial Forms in Arabic lookup 11 subtable" uniFBE9
Substitution2: "'init' Initial Forms in Arabic lookup 13 subtable" uniFBE8
EndChar
StartChar: uni064B
Encoding: 1611 1611 75
Width: 0
VWidth: 2186
GlyphClass: 4
Flags: W
AnchorPoint: "Anchor-10" 547.84 1024.5 mark 0
AnchorPoint: "Anchor-9" 547.84 1024.5 mark 0
AnchorPoint: "Anchor-1" 547.84 1559.5 basemark 0
AnchorPoint: "Anchor-1" 547.84 1024.5 mark 0
LayerCount: 2
Fore
SplineSet
269.4 960.41 m 5,0,-1
 269.4 1087.48 l 5,1,-1
 827.28 1315.79 l 5,2,-1
 827.28 1188.72 l 5,3,-1
 269.4 960.41 l 5,0,-1
269.4 1217.21 m 5,4,-1
 269.4 1344.28 l 5,5,-1
 827.28 1572.59 l 5,6,-1
 827.28 1445.52 l 5,7,-1
 269.4 1217.21 l 5,4,-1
EndSplineSet
EndChar
StartChar: uni064C
Encoding: 1612 1612 76
Width: 0
VWidth: 2186
GlyphClass: 4
Flags: W
AnchorPoint: "Anchor-10" 549.458 1130.73 mark 0
AnchorPoint: "Anchor-9" 549.458 1130.73 mark 0
AnchorPoint: "Anchor-1" 546.458 1799.23 basemark 0
AnchorPoint: "Anchor-1" 549.458 1130.73 mark 0
LayerCount: 2
Fore
SplineSet
567.29 1287.01 m 4,0,1
 608.462 1327.07 608.462 1327.07 631.916 1373.98 c 6,2,-1
 639.437 1389.02 l 5,3,-1
 622.985 1392.51 l 6,4,5
 589.629 1399.58 589.629 1399.58 566.604 1412.6 c 4,6,7
 457.809 1470.02 457.809 1470.02 457.809 1562.76 c 4,8,9
 457.809 1649.37 457.809 1649.37 526.438 1701.09 c 4,10,11
 552.933 1720.96 552.933 1720.96 616.008 1720.96 c 4,12,13
 688.83 1720.96 688.83 1720.96 727.811 1682.95 c 4,14,15
 782.769 1629 782.769 1629 782.769 1549.92 c 4,16,17
 782.769 1510.19 782.769 1510.19 770.532 1471.44 c 6,18,-1
 765.475 1455.43 l 5,19,-1
 782.246 1454.55 l 6,20,21
 802.319 1453.49 802.319 1453.49 817.877 1453.46 c 4,22,23
 831.277 1452.74 831.277 1452.74 845.898 1452.49 c 5,24,-1
 845.898 1360.73 l 5,25,26
 806.304 1360.98 806.304 1360.98 788.452 1362.77 c 6,27,-1
 723.341 1369.03 l 5,28,-1
 719.609 1360.28 l 6,29,30
 692.725 1297.2 692.725 1297.2 614.192 1215.53 c 5,31,32
 527.115 1127.43 527.115 1127.43 431.968 1127.43 c 4,33,34
 319.091 1127.43 319.091 1127.43 262.277 1283.68 c 4,35,36
 247.961 1322.8 247.961 1322.8 247.066 1430.99 c 5,37,-1
 317.37 1430.99 l 5,38,39
 318.214 1335.4 318.214 1335.4 331.378 1306.88 c 4,40,41
 372.331 1219.13 372.331 1219.13 431.968 1219.13 c 4,42,43
 497.148 1219.13 497.148 1219.13 567.29 1287.01 c 4,0,1
669.364 1470.93 m 5,44,-1
 680.389 1496.65 l 6,45,46
 691.068 1521.57 691.068 1521.57 691.068 1549.92 c 4,47,48
 691.068 1592.44 691.068 1592.44 668.143 1611.31 c 4,49,50
 646.353 1629.26 646.353 1629.26 620.288 1629.26 c 4,51,52
 591.859 1629.26 591.859 1629.26 575.947 1616.92 c 4,53,54
 551.648 1598.63 551.648 1598.63 551.648 1562.76 c 4,55,56
 551.648 1514.37 551.648 1514.37 607.97 1491.84 c 4,57,58
 629.874 1483.08 629.874 1483.08 658.195 1474.37 c 6,59,-1
 669.364 1470.93 l 5,44,-1
EndSplineSet
EndChar
StartChar: uni064D
Encoding: 1613 1613 77
Width: 0
VWidth: 2186
GlyphClass: 4
Flags: W
AnchorPoint: "Anchor-7" 533.84 64.5 mark 0
AnchorPoint: "Anchor-6" 533.84 64.5 mark 0
AnchorPoint: "Anchor-0" 547.84 -438.5 basemark 0
AnchorPoint: "Anchor-0" 533.84 64.5 mark 0
LayerCount: 2
Fore
SplineSet
270.96 -511.18 m 1,0,-1
 270.96 -384.11 l 1,1,-1
 828.84 -155.8 l 1,2,-1
 828.84 -282.87 l 1,3,-1
 270.96 -511.18 l 1,0,-1
270.96 -254.38 m 1,4,-1
 270.96 -127.31 l 1,5,-1
 828.84 101 l 1,6,-1
 828.84 -26.0703 l 1,7,-1
 270.96 -254.38 l 1,4,-1
EndSplineSet
EndChar
StartChar: uni064E
Encoding: 1614 1614 59
Width: 0
VWidth: 2186
GlyphClass: 4
Flags: W
AnchorPoint: "Anchor-10" 517.84 1279.5 mark 0
AnchorPoint: "Anchor-9" 517.84 1279.5 mark 0
AnchorPoint: "Anchor-1" 517.84 1600.5 basemark 0
AnchorPoint: "Anchor-1" 517.84 1279.5 mark 0
LayerCount: 2
Fore
SplineSet
257 1251 m 5,0,-1
 257 1378.0703125 l 5,1,-1
 751 1580.0703125 l 5,2,-1
 751 1453 l 5,3,-1
 257 1251 l 5,0,-1
EndSplineSet
EndChar
StartChar: uni064F
Encoding: 1615 1615 52
Width: -27
VWidth: 2304
GlyphClass: 4
Flags: W
AnchorPoint: "Anchor-10" 615.623 1281.01 mark 0
AnchorPoint: "Anchor-9" 615.623 1281.01 mark 0
AnchorPoint: "Anchor-1" 546.519 1923.2 basemark 0
AnchorPoint: "Anchor-1" 615.623 1281.01 mark 0
LayerCount: 2
Fore
SplineSet
822.727539062 1464.22460938 m 1,0,1
 766 1465 766 1465 690.735351562 1473.01953125 c 1,2,3
 638 1399 638 1399 563.377929688 1352.99902344 c 0,4,5
 445 1279 445 1279 311 1274 c 1,6,-1
 311 1362.74121094 l 1,7,8
 442 1367 442 1367 520.314453125 1432.41015625 c 0,9,10
 555 1461 555 1461 569.69921875 1477.09472656 c 2,11,-1
 591.280273438 1499.82519531 l 1,12,-1
 560.689453125 1506.61621094 l 2,13,14
 554 1508 554 1508 514.827148438 1528.14355469 c 0,15,16
 477 1548 477 1548 448.861328125 1586.5703125 c 0,17,18
 421 1625 421 1625 420.904296875 1671.78222656 c 0,19,20
 421 1763 421 1763 491.776367188 1816.36425781 c 0,21,22
 519 1837 519 1837 588.962890625 1836.546875 c 0,23,24
 659 1837 659 1837 707.650390625 1789.15234375 c 0,25,26
 756 1742 756 1742 756.0625 1659.92871094 c 0,27,28
 756 1626.25097656 756 1626.25097656 741.043945312 1578.18945312 c 2,29,-1
 734.313476562 1556.56152344 l 1,30,-1
 756.931640625 1555.22460938 l 2,31,32
 795 1553 795 1553 822.727539062 1553.02832031 c 1,33,-1
 822.727539062 1464.22460938 l 1,0,1
642.567382812 1571.63476562 m 1,34,-1
 655.625976562 1602.09960938 l 2,35,36
 667.227539062 1629.17382812 667.227539062 1629.17382812 667.227539062 1667.94628906 c 128,-1,37
 667.227539062 1706.71875 667.227539062 1706.71875 642.33203125 1727.21582031 c 128,-1,38
 617.435546875 1747.71191406 617.435546875 1747.71191406 587.264648438 1747.71191406 c 128,-1,39
 557.09375 1747.71191406 557.09375 1747.71191406 534.546875 1730.53710938 c 128,-1,40
 512 1713.36230469 512 1713.36230469 512 1666.52148438 c 128,-1,41
 512 1619.6796875 512 1619.6796875 573.990234375 1594.88183594 c 0,42,43
 597.16015625 1585.61523438 597.16015625 1585.61523438 642.567382812 1571.63476562 c 1,34,-1
EndSplineSet
EndChar
StartChar: uni0650
Encoding: 1616 1616 53
Width: -27
VWidth: 2304
GlyphClass: 4
Flags: W
AnchorPoint: "Anchor-7" 567.391 -16.2002 mark 0
AnchorPoint: "Anchor-6" 567.391 -16.2002 mark 0
AnchorPoint: "Anchor-0" 615.023 -326.944 basemark 0
AnchorPoint: "Anchor-0" 567.391 -16.2002 mark 0
LayerCount: 2
Fore
SplineSet
317.856445312 -352.804583874 m 1,0,-1
 317.856445312 -238.064361577 l 1,1,-1
 821.51953125 -32.1133848752 l 1,2,-1
 821.51953125 -146.853607173 l 1,3,-1
 317.856445312 -352.804583874 l 1,0,-1
EndSplineSet
EndChar
StartChar: uni0651
Encoding: 1617 1617 54
Width: -27
VWidth: 2304
GlyphClass: 4
Flags: W
AnchorPoint: "Anchor-10" 569.519 1386.22 mark 0
AnchorPoint: "Anchor-9" 569.519 1386.22 mark 0
AnchorPoint: "Anchor-1" 556.847 1916.34 basemark 0
AnchorPoint: "Anchor-1" 569.519 1386.22 mark 0
LayerCount: 2
Fore
SplineSet
524.23828125 1412.6796875 m 0,0,1
 511.267578125 1397.52539062 511.267578125 1397.52539062 492.297851562 1387.37402344 c 128,-1,2
 473.327148438 1377.22265625 473.327148438 1377.22265625 447.943359375 1372.04980469 c 128,-1,3
 422.559570312 1366.87597656 422.559570312 1366.87597656 390.991210938 1366.87597656 c 0,4,5
 350.9765625 1366.87597656 350.9765625 1366.87597656 320.918945312 1382.61230469 c 128,-1,6
 290.860351562 1398.34765625 290.860351562 1398.34765625 270.239257812 1430.02929688 c 0,7,8
 258.418945312 1448.10839844 258.418945312 1448.10839844 250.532226562 1469.109375 c 128,-1,9
 242.645507812 1490.11132812 242.645507812 1490.11132812 238.678710938 1514.17480469 c 128,-1,10
 234.711914062 1538.23828125 234.711914062 1538.23828125 234.711914062 1565.29003906 c 0,11,12
 234.711914062 1607.76367188 234.711914062 1607.76367188 250.220703125 1709.64746094 c 1,13,-1
 325.333984375 1709.64746094 l 1,14,15
 314.5078125 1582.54101562 314.5078125 1582.54101562 314.5078125 1537.64355469 c 0,16,17
 314.5078125 1501.47753906 314.5078125 1501.47753906 339.356445312 1482.76855469 c 128,-1,18
 364.205078125 1464.05957031 364.205078125 1464.05957031 412.096679688 1463.10449219 c 0,19,20
 465.709960938 1462.05175781 465.709960938 1462.05175781 495.20703125 1496.50097656 c 128,-1,21
 524.704101562 1530.95117188 524.704101562 1530.95117188 529.606445312 1599.29003906 c 0,22,23
 529.890625 1603.21875 529.890625 1603.21875 530.140625 1609.52539062 c 128,-1,24
 530.390625 1615.83105469 530.390625 1615.83105469 530.60546875 1624.45214844 c 128,-1,25
 530.819335938 1633.07226562 530.819335938 1633.07226562 530.999023438 1643.99121094 c 128,-1,26
 531.178710938 1654.90917969 531.178710938 1654.90917969 531.322265625 1668.08398438 c 128,-1,27
 531.465820312 1681.25976562 531.465820312 1681.25976562 531.57421875 1696.65136719 c 128,-1,28
 531.682617188 1712.04394531 531.682617188 1712.04394531 531.754882812 1729.63574219 c 128,-1,29
 531.827148438 1747.22753906 531.827148438 1747.22753906 531.86328125 1766.95605469 c 1,30,-1
 606.123046875 1766.95605469 l 1,31,32
 608.287109375 1730.99804688 608.287109375 1730.99804688 608.287109375 1682.99121094 c 0,33,34
 608.287109375 1525.40722656 608.287109375 1525.40722656 731.086914062 1525.40722656 c 0,35,36
 824.530273438 1525.40722656 824.530273438 1525.40722656 824.530273438 1684.60742188 c 0,37,38
 824.530273438 1796.18164062 824.530273438 1796.18164062 813.649414062 1861.22558594 c 1,39,-1
 893.26953125 1861.22558594 l 1,40,41
 904.326171875 1782.49414062 904.326171875 1782.49414062 904.326171875 1665.3984375 c 0,42,43
 904.326171875 1593.28808594 904.326171875 1593.28808594 875.723632812 1536.0234375 c 0,44,45
 867.88671875 1520.48339844 867.88671875 1520.48339844 859.268554688 1507.33203125 c 128,-1,46
 850.649414062 1494.18164062 850.649414062 1494.18164062 841.266601562 1483.44433594 c 128,-1,47
 831.883789062 1472.70703125 831.883789062 1472.70703125 821.736328125 1464.32617188 c 128,-1,48
 811.588867188 1455.9453125 811.588867188 1455.9453125 800.654296875 1449.91699219 c 128,-1,49
 789.720703125 1443.88867188 789.720703125 1443.88867188 778.041992188 1440.18457031 c 128,-1,50
 766.364257812 1436.48046875 766.364257812 1436.48046875 753.87890625 1435.06933594 c 0,51,52
 719.969726562 1431.31640625 719.969726562 1431.31640625 692.541992188 1436.55078125 c 128,-1,53
 665.11328125 1441.78613281 665.11328125 1441.78613281 643.969726562 1455.91210938 c 0,54,55
 582.505859375 1496.41210938 582.505859375 1496.41210938 580.870117188 1507.79980469 c 2,56,-1
 577.407226562 1531.921875 l 1,57,-1
 572.977539062 1507.95898438 l 2,58,59
 570.723632812 1495.765625 570.723632812 1495.765625 566.565429688 1483.73242188 c 128,-1,60
 562.407226562 1471.69921875 562.407226562 1471.69921875 556.327148438 1459.79003906 c 128,-1,61
 550.247070312 1447.88183594 550.247070312 1447.88183594 542.22265625 1436.09863281 c 128,-1,62
 534.198242188 1424.31640625 534.198242188 1424.31640625 524.23828125 1412.6796875 c 0,0,1
EndSplineSet
EndChar
StartChar: uni0652
Encoding: 1618 1618 82
Width: 0
VWidth: 2186
GlyphClass: 4
Flags: W
AnchorPoint: "Anchor-10" 559.84 1158.5 mark 0
AnchorPoint: "Anchor-9" 559.84 1158.5 mark 0
AnchorPoint: "Anchor-1" 547.84 1738 basemark 0
AnchorPoint: "Anchor-1" 559.84 1158.5 mark 0
LayerCount: 2
Fore
SplineSet
674.569 1404.62 m 0,0,1
 674.569 1449.15 674.569 1449.15 643.439 1480.28 c 128,-1,2
 612.312 1511.41 612.312 1511.41 567.126 1511.41 c 0,3,4
 521.285 1511.41 521.285 1511.41 490.485 1480.61 c 128,-1,5
 459.686 1449.81 459.686 1449.81 459.686 1404.62 c 0,6,7
 459.686 1358.78 459.686 1358.78 490.485 1327.98 c 128,-1,8
 521.285 1297.18 521.285 1297.18 567.126 1297.18 c 0,9,10
 612.314 1297.18 612.314 1297.18 643.439 1328.31 c 128,-1,11
 674.569 1359.44 674.569 1359.44 674.569 1404.62 c 0,0,1
750.396 1404.73 m 128,-1,13
 750.396 1327.88 750.396 1327.88 697.316 1274.46 c 128,-1,14
 644.259 1221.07 644.259 1221.07 567.436 1221.07 c 128,-1,15
 490.613 1221.07 490.613 1221.07 437.557 1274.46 c 128,-1,16
 384.476 1327.88 384.476 1327.88 384.476 1404.73 c 128,-1,17
 384.476 1481.56 384.476 1481.56 437.537 1534.63 c 128,-1,18
 490.596 1587.69 490.596 1587.69 567.436 1587.69 c 128,-1,19
 644.276 1587.69 644.276 1587.69 697.335 1534.63 c 128,-1,12
 750.396 1481.56 750.396 1481.56 750.396 1404.73 c 128,-1,13
EndSplineSet
EndChar
StartChar: uni0653
Encoding: 1619 1619 64
Width: 0
VWidth: 2186
GlyphClass: 4
Flags: W
AnchorPoint: "Anchor-10" 383.84 1264.52 mark 0
AnchorPoint: "Anchor-9" 383.84 1264.52 mark 0
AnchorPoint: "Anchor-1" 383.84 1600.5 basemark 0
AnchorPoint: "Anchor-1" 383.84 1264.52 mark 0
LayerCount: 2
Fore
SplineSet
305 1465 m 2,0,-1
 666.751249969 1465 l 1,1,-1
 668.251249969 1315 l 1,2,-1
 318 1315 l 2,3,4
 270.855027278 1315 270.855027278 1315 231.472011589 1293.99310763 c 128,-1,5
 192.0889959 1272.98621525 192.0889959 1272.98621525 158.387298686 1229.06677681 c 2,6,-1
 139.928269014 1205.01130529 l 1,7,-1
 38.815728631 1319.25879664 l 1,8,-1
 49.3061313536 1335.23597641 l 2,9,10
 91.6009615439 1399.65219789 91.6009615439 1399.65219789 156.348415368 1432.32609894 c 128,-1,11
 221.095869193 1465 221.095869193 1465 305 1465 c 2,0,-1
EndSplineSet
EndChar
StartChar: uni0657
Encoding: 1623 1623 59
Width: -27
VWidth: 2304
GlyphClass: 4
Flags: W
AnchorPoint: "Anchor-10" 569.519 1347.15 mark 0
AnchorPoint: "Anchor-9" 569.519 1347.15 mark 0
AnchorPoint: "Anchor-1" 569.519 2081.6 basemark 0
AnchorPoint: "Anchor-1" 569.519 1347.15 mark 0
LayerCount: 2
Fore
SplineSet
659.133789062 1603.78173828 m 0,0,1
 659 1430 659 1430 491.074544274 1431.54492188 c 0,2,3
 421 1432 421 1432 372.388183594 1478.93945313 c 0,4,5
 324 1526 324 1526 323.975585938 1608.16308594 c 0,6,7
 323.99979061 1641.70979344 323.99979061 1641.70979344 338.994140625 1689.90234375 c 2,8,-1
 345.723632812 1711.53125 l 1,9,-1
 323.10546875 1712.8671875 l 2,10,11
 287 1715 287 1715 257.310546875 1715.06347656 c 1,12,-1
 257.310546875 1803.8671875 l 1,13,14
 314 1803 314 1803 389.303710938 1795.07324219 c 1,15,16
 442 1870 442 1870 516.661132812 1915.09375 c 0,17,18
 698 2026 698 2026 785 2030.74121094 c 5,19,-1
 785 1942 l 5,20,21
 692 1939 692 1939 559.72265625 1835.68164062 c 0,22,23
 533 1815 533 1815 510.338867188 1790.99804688 c 2,24,-1
 488.760742188 1768.28125 l 1,25,-1
 519.344726562 1761.47558594 l 2,26,27
 528 1760 528 1760 565.211425781 1739.94873047 c 0,28,29
 603 1720 603 1720 631.176757812 1681.52148438 c 0,30,31
 659 1643 659 1643 659.133789062 1603.78173828 c 0,0,1
480.167480469 1520.38085938 m 0,32,33
 568.038085938 1520.38085938 568.038085938 1520.38085938 568.038085938 1594.60449219 c 0,34,35
 568.038085938 1648.41148902 568.038085938 1648.41148902 506.048828125 1673.20996094 c 0,36,37
 482.976628637 1682.4430983 482.976628637 1682.4430983 437.471679688 1696.45898438 c 1,38,-1
 424.413085938 1665.99316406 l 2,39,40
 412.810546875 1638.92285156 412.810546875 1638.92285156 412.810546875 1600.15429688 c 128,-1,41
 412.810546875 1561.38574219 412.810546875 1561.38574219 437.703125 1540.88330078 c 128,-1,42
 462.595703125 1520.38085938 462.595703125 1520.38085938 480.167480469 1520.38085938 c 0,32,33
EndSplineSet
EndChar
StartChar: afii57392
Encoding: 1632 1632 61
Width: 1047
VWidth: 2438
GlyphClass: 2
Flags: W
LayerCount: 2
Fore
SplineSet
411.860351562 614.306640625 m 132,-1,1
 411.860351562 565.426757812 411.860351562 565.426757812 445.700195312 531.586914062 c 132,-1,2
 479.540039062 497.747070312 479.540039062 497.747070312 528.419921875 497.747070312 c 132,-1,3
 577.299804688 497.747070312 577.299804688 497.747070312 611.139648438 531.586914062 c 132,-1,4
 644.98046875 565.426757812 644.98046875 565.426757812 644.98046875 614.306640625 c 132,-1,5
 644.98046875 663.186523438 644.98046875 663.186523438 611.139648438 697.026367188 c 132,-1,6
 577.299804688 730.8671875 577.299804688 730.8671875 528.419921875 730.8671875 c 132,-1,7
 479.540039062 730.8671875 479.540039062 730.8671875 445.700195312 697.026367188 c 132,-1,0
 411.860351562 663.186523438 411.860351562 663.186523438 411.860351562 614.306640625 c 132,-1,1
215.997070312 612.5 m 0,8,9
 215.251953125 740.391601562 215.251953125 740.391601562 306.180664062 831.319335938 c 0,10,11
 397.445355823 922.586015169 397.445355823 922.586015169 524.99953338 922.585976335 c 128,-1,12
 652.553710938 922.5859375 652.553710938 922.5859375 743.819335938 831.319335938 c 128,-1,13
 835.086015169 740.054644177 835.086015169 740.054644177 835.085976335 612.50046662 c 128,-1,14
 835.0859375 484.946289062 835.0859375 484.946289062 743.819335938 393.680664062 c 128,-1,15
 652.553710938 302.4140625 652.553710938 302.4140625 525 302.4140625 c 128,-1,16
 397.446289062 302.4140625 397.446289062 302.4140625 306.349121094 393.511230469 c 128,-1,17
 215.251953125 484.608398438 215.251953125 484.608398438 215.997070312 612.5 c 0,8,9
EndSplineSet
EndChar
StartChar: afii57393
Encoding: 1633 1633 89
Width: 1177
VWidth: 2237
GlyphClass: 2
Flags: W
LayerCount: 2
Fore
SplineSet
787.039 8.5 m 1,0,-1
 518.459 8.5 l 1,1,-1
 518.393 59.4346 l 2,2,3
 518.082904362 435.467301504 518.082904362 435.467301504 479.339 730.332 c 4,4,5
 433 1083 433 1083 314.263671875 1403.5 c 1,6,-1
 606.634765625 1403.5 l 5,7,8
 706 1120 706 1120 752.005 744.185 c 0,9,10
 786.642438364 468.546647467 786.642438364 468.546647467 786.995 59.5439 c 2,11,-1
 787.039 8.5 l 1,0,-1
EndSplineSet
EndChar
StartChar: afii57394
Encoding: 1634 1634 63
Width: 1220
VWidth: 2304
GlyphClass: 2
Flags: W
LayerCount: 2
Fore
SplineSet
355.827148438 1448.15625 m 1,0,-1
 443.330078125 1173.38378906 l 2,1,2
 470 1090 470 1090 531.653320312 1053.36035156 c 0,3,4
 593 1016 593 1016 702.454101562 1022.58300781 c 0,5,6
 758 1026 758 1026 792.080078125 1056.13476562 c 0,7,8
 826 1086 826 1086 845.139648438 1150.66699219 c 0,9,10
 863.875976562 1214.578125 863.875976562 1214.578125 860.35546875 1391.5078125 c 2,11,-1
 859.439453125 1437.54101562 l 1,12,-1
 1117.74511719 1436.76953125 l 1,13,-1
 1119.09472656 1393.29589844 l 2,14,15
 1140 720 1140 720 629.083984375 769.389648438 c 0,16,17
 588 773 588 773 553.254882812 782.098632812 c 1,18,19
 609 523 609 523 618.702148438 227.42578125 c 0,20,21
 622.053710938 114.19921875 622.053710938 114.19921875 617.090820312 45.72265625 c 2,22,-1
 614.065429688 3.9755859375 l 1,23,-1
 359.451171875 3.9755859375 l 1,24,-1
 359.272460938 48.796875 l 2,25,26
 358 274 358 274 311.118164062 636.861328125 c 0,27,28
 263.958984375 997.31640625 263.958984375 997.31640625 120.923828125 1320.28417969 c 2,29,-1
 100.670898438 1366.01464844 l 1,30,-1
 355.827148438 1448.15625 l 1,0,-1
EndSplineSet
EndChar
StartChar: afii57395
Encoding: 1635 1635 91
Width: 1177
VWidth: 2237
GlyphClass: 2
Flags: W
LayerCount: 2
Fore
SplineSet
475.361 928.75 m 1,0,1
 501.834 887.15 501.834 887.15 527.084 743.016 c 0,2,3
 561.348 547.435 561.348 547.435 561.854 59.5527 c 2,4,-1
 561.907 8.5 l 1,5,-1
 293.315 8.5 l 1,6,-1
 293.252 59.4365 l 2,7,8
 292.706 501.38 292.706 501.38 254.202 730.311 c 0,9,10
 203.776 1027.7 203.776 1027.7 44.9502 1404.7 c 2,11,-1
 15.123 1475.5 l 1,12,-1
 307.564 1475.5 l 1,13,-1
 320.528 1443.81 l 2,14,15
 384.758 1286.8 384.758 1286.8 411.295 1194.5 c 0,16,17
 419.731 1165.16 419.731 1165.16 490 1162 c 0,18,19
 558.5 1158.7 558.5 1158.7 561.18 1209.38 c 0,20,21
 566.24 1330.27 566.24 1330.27 566.568 1423.48 c 2,22,-1
 566.745 1473.76 l 1,23,-1
 769.824 1473.76 l 5,24,-1
 769.908 1423.37 l 6,25,26
 770.111 1301.83 770.111 1301.83 772.823 1245.81 c 4,27,28
 774.755 1205.96 774.755 1205.96 778.827 1192.34 c 5,29,30
 798.6 1165.01 798.6 1165.01 852 1164 c 4,31,32
 908.691 1163.07 908.691 1163.07 918.293 1188.12 c 1,33,34
 929.964 1229.24 929.964 1229.24 930.357 1424.6 c 2,35,-1
 930.46 1475.5 l 1,36,-1
 1160.1 1475.5 l 1,37,-1
 1159.95 1424.35 l 2,38,39
 1159.44 1250.67 1159.44 1250.67 1150.21 1160.76 c 0,40,41
 1127.11 936.584 1127.11 936.584 920.361 900.75 c 0,42,43
 811.361 881.45 811.361 881.45 699.361 952.75 c 1,44,45
 675.865 919.891 675.865 919.891 617.611 911.75 c 0,46,47
 533.711 901.015 533.711 901.015 475.361 928.75 c 1,0,1
EndSplineSet
EndChar
StartChar: afii57396
Encoding: 1636 1636 65
Width: 1215
VWidth: 2304
GlyphClass: 2
Flags: W
LayerCount: 2
Fore
SplineSet
428.206054688 723.297851562 m 1,0,1
 243 785 243 785 243.370117188 1009.59765625 c 0,2,3
 243 1192 243 1192 378.873046875 1292.73828125 c 0,4,5
 516.772772997 1393.56502057 516.772772997 1393.56502057 766.146484375 1411.49609375 c 2,6,-1
 814.374023438 1414.96386719 l 1,7,-1
 814.374023438 1152.04296875 l 1,8,-1
 771.938476562 1149.62011719 l 2,9,10
 507 1134 507 1134 507.17578125 1000.60253906 c 0,11,12
 507 959 507 959 536.018554688 940.04296875 c 0,13,14
 615.028380299 888.981658797 615.028380299 888.981658797 794.643554688 914.520507812 c 2,15,-1
 845.399414062 921.737304688 l 1,16,-1
 848.330078125 660.888671875 l 1,17,18
 709 637 709 637 581 557 c 0,19,20
 420 457 420 457 420 384 c 0,21,22
 420 284 420 284 547.422851562 263.673828125 c 0,23,24
 606.348062405 254.796918362 606.348062405 254.796918362 665.846679688 255 c 2,25,-1
 1003.45898438 256.15234375 l 1,26,-1
 1006.54589844 -0.0498046875 l 1,27,-1
 628.134765625 0.3642578125 l 2,28,29
 410 1 410 1 289.806640625 88.39453125 c 0,30,31
 170 176 170 176 170 348 c 0,32,33
 170 517 170 517 428.206054688 723.297851562 c 1,0,1
EndSplineSet
EndChar
StartChar: afii57397
Encoding: 1637 1637 93
Width: 1177
VWidth: 2237
GlyphClass: 2
Flags: W
LayerCount: 2
Fore
SplineSet
341.41015625 1191.19824219 m 1,0,-1
 302.53125 1215.29980469 l 1,1,-1
 454.932617188 1446.20996094 l 1,2,3
 612 1371 612 1371 753.73046875 1257.06445312 c 4,4,5
 928 1116 928 1116 1020.51953125 952.848632812 c 0,6,7
 1077 853 1077 853 1107.29980469 759.010742188 c 0,8,9
 1140 659 1140 659 1142.91894531 576.700195312 c 0,10,11
 1144 548 1144 548 1144.40234375 519.904296875 c 0,12,13
 1144 419 1144 419 1124.39355469 338.732421875 c 0,14,15
 1099 237 1099 237 1036.72167969 171.119140625 c 0,16,17
 885 11 885 11 598.091796875 17.951171875 c 0,18,19
 596 18 596 18 594.158203125 17.9580078125 c 0,20,21
 292 18 292 18 151.359375 171.571289062 c 0,22,23
 31 302 31 302 29.3994140625 496.236328125 c 0,24,25
 29 537 29 537 34.931640625 580.514648438 c 0,26,27
 58 755 58 755 153.407226562 931.297851562 c 0,28,29
 236 1084 236 1084 341.41015625 1191.19824219 c 1,0,-1
571.553710938 1023.02441406 m 1,30,31
 457.96875 926.938476562 457.96875 926.938476562 396.927734375 809.962890625 c 0,32,33
 323.399414062 668.389648438 323.399414062 668.389648438 317.904296875 555.16015625 c 0,34,35
 317.337890625 543.014648438 317.337890625 543.014648438 317.337890625 531.458007812 c 0,36,37
 317.337890625 405.025390625 317.337890625 405.025390625 385.194335938 349.142578125 c 0,38,39
 420.279296875 320.2734375 420.279296875 320.2734375 477.073242188 304.408203125 c 128,-1,40
 533.868164062 288.541992188 533.868164062 288.541992188 613.153320312 288.155273438 c 0,41,42
 614.784179688 288.145507812 614.784179688 288.145507812 616.404296875 288.145507812 c 0,43,44
 783.1484375 288.145507812 783.1484375 288.145507812 840.782226562 388.412109375 c 0,45,46
 869.454101562 438.301757812 869.454101562 438.301757812 869.454101562 512.306640625 c 0,47,48
 869.454101562 544.577148438 869.454101562 544.577148438 864.001953125 581.43359375 c 0,49,50
 841.4609375 734.549804688 841.4609375 734.549804688 756.439453125 846.083007812 c 0,51,52
 711.84765625 904.583984375 711.84765625 904.583984375 665.1171875 949.092773438 c 128,-1,53
 618.38671875 993.600585938 618.38671875 993.600585938 571.553710938 1023.02441406 c 1,30,31
EndSplineSet
EndChar
StartChar: afii57398
Encoding: 1638 1638 67
Width: 1291
VWidth: 2438
GlyphClass: 2
Flags: W
LayerCount: 2
Fore
SplineSet
746.174804688 1067.67871094 m 5,0,1
 434.290778961 997.065834532 434.290778961 997.065834532 92.736328125 1095.71386719 c 6,2,-1
 60.22265625 1105.10449219 l 5,3,-1
 60.22265625 1436.00097656 l 1,4,-1
 116.68359375 1421.13085938 l 2,5,6
 501.238307062 1319.93729074 501.238307062 1319.93729074 946.590820312 1422.37304688 c 2,7,-1
 1001.44140625 1434.98925781 l 1,8,-1
 1001.67773438 1378.70703125 l 2,9,10
 1005.02806064 682.166125197 1005.02806064 682.166125197 1132.31152344 180.8515625 c 24,11,12
 1147 123 1147 123 1183.68261719 9.3349609375 c 1,13,-1
 904.97265625 9.3349609375 l 1,14,15
 801 430 801 430 781.619140625 648.666015625 c 0,16,17
 747 1032 747 1032 746.174804688 1067.67871094 c 5,0,1
EndSplineSet
EndChar
StartChar: afii57399
Encoding: 1639 1639 68
Width: 1283
VWidth: 2304
GlyphClass: 2
Flags: W
LayerCount: 2
Fore
SplineSet
510.901367188 50.37890625 m 2,0,1
 498.9765625 199.07421875 498.9765625 199.07421875 383.315429688 570.89453125 c 0,2,3
 213.686523438 1113.00292969 213.686523438 1113.00292969 104.63671875 1322.57226562 c 2,4,-1
 80.5654296875 1368.83203125 l 1,5,-1
 321.029296875 1451.97460938 l 1,6,-1
 338.594726562 1416.4140625 l 2,7,8
 525 1039 525 1039 640.986328125 607.907226562 c 1,9,10
 757.052734375 1039.19628906 757.052734375 1039.19628906 943.380859375 1416.41992188 c 2,11,-1
 960.91015625 1451.90820312 l 1,12,-1
 1202.77441406 1368.82714844 l 1,13,-1
 1178.2421875 1322.34082031 l 2,14,15
 1039.50097656 1058.65429688 1039.50097656 1058.65429688 898.794921875 571.344726562 c 0,16,17
 789.654296875 192.799804688 789.654296875 192.799804688 771.64453125 48.40625 c 2,18,-1
 766.7265625 8.9755859375 l 1,19,-1
 514.221679688 8.9755859375 l 1,20,-1
 510.901367188 50.37890625 l 2,0,1
EndSplineSet
EndChar
StartChar: afii57400
Encoding: 1640 1640 69
Width: 1291
VWidth: 2438
GlyphClass: 2
Flags: W
LayerCount: 2
Fore
SplineSet
381.66796875 918.177734375 m 4,0,1
 506 1317.14453125 506 1317.14453125 517.76953125 1462.80957031 c 5,2,-1
 773.15234375 1462.80957031 l 5,3,4
 786 1306.14453125 786 1306.14453125 908.263671875 918.850585938 c 4,5,6
 1080 372.14453125 1080 372.14453125 1198.32910156 138.326171875 c 6,7,-1
 1221.69628906 92.2177734375 l 5,8,-1
 980.513671875 9.3720703125 l 5,9,-1
 962.8515625 44.458984375 l 6,10,11
 746.34765625 474.557617188 746.34765625 474.557617188 645.05859375 936.69140625 c 5,12,13
 544 473.14453125 544 473.14453125 327.252929688 44.384765625 c 6,14,-1
 309.518554688 9.3349609375 l 5,15,-1
 69.169921875 92.4375 l 5,16,-1
 93.0703125 138.642578125 l 6,17,18
 206.803710938 358.515625 206.803710938 358.515625 381.66796875 918.177734375 c 4,0,1
EndSplineSet
EndChar
StartChar: afii57401
Encoding: 1641 1641 70
Width: 1285
VWidth: 2438
GlyphClass: 2
Flags: W
LayerCount: 2
Fore
SplineSet
904.55078125 44.8125 m 2,0,1
 861.006975661 245.944466083 861.006975661 245.944466083 818.927734375 580.94140625 c 1,2,3
 612 582 612 582 513.62109375 604.317382812 c 0,4,5
 218 671 218 671 133.618164062 879.459960938 c 0,6,7
 108 943 108 943 107.870117188 1023.65429688 c 0,8,9
 108 1197 108 1197 224.026367188 1314.24609375 c 0,10,11
 407 1500 407 1500 670.754882812 1463.44238281 c 0,12,13
 805 1445 805 1445 883.205078125 1368.74511719 c 0,14,15
 1026 1230 1026 1230 1041.98046875 1009.265625 c 0,16,17
 1052.6819386 865.386703322 1052.6819386 865.386703322 1092.0546875 536.862304688 c 0,18,19
 1122.89758307 278.856733371 1122.89758307 278.856733371 1177.58398438 65.5078125 c 2,20,-1
 1191.98242188 9.3349609375 l 1,21,-1
 912.231445312 9.3349609375 l 1,22,-1
 904.55078125 44.8125 l 2,0,1
794.272460938 841.221679688 m 1,23,-1
 788.250976562 915.670898438 l 2,24,25
 776 1073 776 1073 744.376953125 1119.12011719 c 0,26,27
 685 1207 685 1207 568.23828125 1207.21679688 c 0,28,29
 485 1208 485 1208 426.013671875 1150.43066406 c 128,-1,30
 367 1093 367 1093 367 1021.5 c 128,-1,31
 367 950 367 950 429 901 c 128,-1,32
 491 852 491 852 620.5 847 c 128,-1,33
 750 842 750 842 794.272460938 841.221679688 c 1,23,-1
EndSplineSet
EndChar
StartChar: afii57381
Encoding: 1642 1642 71
Width: 1215
VWidth: 2304
GlyphClass: 2
Flags: W
LayerCount: 2
Fore
SplineSet
820.814453125 103.60546875 m 0,0,1
 768.259765625 156.024414062 768.259765625 156.024414062 767.895507812 230.529296875 c 0,2,3
 768.259765625 304.395507812 768.259765625 304.395507812 820.614257812 357.250976562 c 0,4,5
 846.177734375 383.215820312 846.177734375 383.215820312 878.85546875 396.811523438 c 128,-1,6
 911.534179688 410.40625 911.534179688 410.40625 947.736328125 410.374023438 c 0,7,8
 1022.31347656 410.440429688 1022.31347656 410.440429688 1074.86425781 357.245117188 c 0,9,10
 1127.03222656 304.396484375 1127.03222656 304.396484375 1127.57910156 230.530273438 c 0,11,12
 1127.40039062 206.174804688 1127.40039062 206.174804688 1121.3046875 183.549804688 c 128,-1,13
 1115.20898438 160.924804688 1115.20898438 160.924804688 1103.46191406 140.80078125 c 128,-1,14
 1091.71386719 120.67578125 1091.71386719 120.67578125 1074.65917969 103.606445312 c 0,15,16
 1021.13574219 51.2646484375 1021.13574219 51.2646484375 947.736328125 50.6884765625 c 0,17,18
 873.461914062 50.8232421875 873.461914062 50.8232421875 820.814453125 103.60546875 c 0,0,1
150.645507812 1192.81640625 m 0,19,20
 98.0908203125 1245.23535156 98.0908203125 1245.23535156 97.7265625 1319.74023438 c 0,21,22
 98.0908203125 1393.60644531 98.0908203125 1393.60644531 150.4453125 1446.46191406 c 0,23,24
 202.811523438 1499.65136719 202.811523438 1499.65136719 277.567382812 1499.58496094 c 0,25,26
 302.403320312 1499.60742188 302.403320312 1499.60742188 325.119140625 1493.50683594 c 128,-1,27
 347.8359375 1487.40625 347.8359375 1487.40625 367.694335938 1475.60742188 c 128,-1,28
 387.552734375 1463.80859375 387.552734375 1463.80859375 404.6953125 1446.45605469 c 0,29,30
 430.181640625 1420.63671875 430.181640625 1420.63671875 443.661132812 1388.35644531 c 128,-1,31
 457.141601562 1356.07617188 457.141601562 1356.07617188 457.41015625 1319.74121094 c 0,32,33
 457.141601562 1283.1484375 457.141601562 1283.1484375 443.640625 1250.81835938 c 128,-1,34
 430.138671875 1218.48828125 430.138671875 1218.48828125 404.490234375 1192.81738281 c 0,35,36
 351.662109375 1140.03417969 351.662109375 1140.03417969 277.567382812 1139.89941406 c 0,37,38
 203.29296875 1140.03417969 203.29296875 1140.03417969 150.645507812 1192.81640625 c 0,19,20
897.068359375 1553.52636719 m 1,39,-1
 1100.51367188 1445.89453125 l 1,40,-1
 347.328125 -4.779296875 l 1,41,-1
 143.03515625 97.1220703125 l 1,42,-1
 897.068359375 1553.52636719 l 1,39,-1
EndSplineSet
EndChar
StartChar: uni066B
Encoding: 1643 1643 72
Width: 811
VWidth: 2438
GlyphClass: 2
Flags: W
LayerCount: 2
Fore
SplineSet
462.526367188 624.966796875 m 1,0,-1
 650 541 l 1,1,-1
 255.158203125 -258.1953125 l 1,2,-1
 68 -173 l 1,3,-1
 462.526367188 624.966796875 l 1,0,-1
EndSplineSet
EndChar
StartChar: uni066C
Encoding: 1644 1644 73
Width: 654
VWidth: 2349
GlyphClass: 2
Flags: W
LayerCount: 2
Fore
SplineSet
214.40234375 404.861328125 m 128,-1,1
 266.942382812 440.951171875 266.942382812 440.951171875 324.015136719 439.005859375 c 0,2,3
 417.67996742 435.813313834 417.67996742 435.813313834 465.982421875 396.79296875 c 0,4,5
 569.682172227 313.013089545 569.682172227 313.013089545 515.760031426 102.598341647 c 128,-1,6
 461.837890625 -107.81640625 461.837890625 -107.81640625 283.228515625 -249.809570312 c 2,7,-1
 258.069335938 -269.809570312 l 1,8,-1
 121.984375 -182.82421875 l 1,9,-1
 168.852539062 -143.43359375 l 2,10,11
 279.56640625 -50.3798828125 279.56640625 -50.3798828125 303.504882812 87.734375 c 1,12,13
 214.646693616 98.4074823905 214.646693616 98.4074823905 176.16416712 156.548956039 c 128,-1,14
 137.681640625 214.690429688 137.681640625 214.690429688 149.771972656 291.731445312 c 128,-1,0
 161.862304688 368.772460938 161.862304688 368.772460938 214.40234375 404.861328125 c 128,-1,1
EndSplineSet
EndChar
StartChar: afii63167
Encoding: 1645 1645 74
Width: 1233
VWidth: 2304
GlyphClass: 2
Flags: W
LayerCount: 2
Fore
SplineSet
5.7861328125 921.12890625 m 1,0,-1
 475.196289062 921.12890625 l 1,1,-1
 621.49609375 1366.55859375 l 1,2,-1
 767.794921875 921.12890625 l 1,3,-1
 1237.20703125 921.12890625 l 1,4,-1
 858.061523438 643.961914062 l 1,5,-1
 1003.25488281 197.916992188 l 1,6,-1
 621.49609375 473.77734375 l 1,7,-1
 239.737304688 197.916992188 l 1,8,-1
 384.928710938 643.961914062 l 1,9,-1
 5.7861328125 921.12890625 l 1,0,-1
EndSplineSet
EndChar
StartChar: uni066E
Encoding: 1646 1646 102
Width: 1727
VWidth: 2237
GlyphClass: 2
Flags: W
AnchorPoint: "Anchor-10" 763.22 1107.5 basechar 0
AnchorPoint: "Anchor-7" 763.22 -123 basechar 0
LayerCount: 2
Fore
SplineSet
1685.94 496.516 m 0,0,1
 1677.52 323.071 1677.52 323.071 1577.54 206.745 c 128,-1,2
 1477.55 90.4199 1477.55 90.4199 1295.38 38.6992 c 0,3,4
 1154.72 -0.204102 1154.72 -0.204102 890.863 0 c 1,5,6
 576.634 1.44922 576.634 1.44922 425.456 44.8145 c 0,7,8
 253.228 95.0205 253.228 95.0205 155.182 211.006 c 128,-1,9
 57.1357 326.992 57.1357 326.992 40.6221 500.984 c 0,10,11
 29.293 622.14 29.293 622.14 75.3311 779.006 c 2,12,-1
 88.7295 824.659 l 1,13,-1
 347.375 767.883 l 1,14,-1
 338.419 719.383 l 2,15,16
 311.672 574.529 311.672 574.529 315.314 536.246 c 0,17,18
 323.329 441.356 323.329 441.356 376.067 386.115 c 128,-1,19
 428.806 330.875 428.806 330.875 537.059 307.453 c 0,20,21
 654.268 282.076 654.268 282.076 805.123 282.017 c 0,22,23
 855.221 281.992 855.221 281.992 892.898 282.066 c 0,24,25
 982.354 282.242 982.354 282.242 997.919 282.958 c 0,26,27
 1147.8 288.311 1147.8 288.311 1188.47 298.135 c 4,28,29
 1300.23 325.131 1300.23 325.131 1353.04 380.869 c 128,-1,30
 1405.85 436.608 1405.85 436.608 1411.14 527.564 c 0,31,32
 1414.11 580.406 1414.11 580.406 1388.89 713.504 c 2,33,-1
 1379.58 762.629 l 1,34,-1
 1634.08 816.103 l 1,35,-1
 1648.31 772.671 l 2,36,37
 1692.87 636.607 1692.87 636.607 1685.94 496.516 c 0,0,1
EndSplineSet
Substitution2: "'init' Initial Forms in Arabic lookup 13 subtable" uni066E.init
Substitution2: "'medi' Medial Forms in Arabic lookup 11 subtable" uni066E.medi
Substitution2: "'fina' Terminal Forms in Arabic lookup 9 subtable" uni066E.fina
EndChar
StartChar: uni066F
Encoding: 1647 1647 76
Width: 1607
VWidth: 2393
GlyphClass: 2
Flags: W
AnchorPoint: "Anchor-10" 402.586 1191.54 basechar 0
AnchorPoint: "Anchor-7" 575.01 -595.719 basechar 0
LayerCount: 2
Fore
SplineSet
1252.28710938 331.103515625 m 1,0,1
 1245 606 1245 606 1144.6796875 605.865234375 c 0,2,3
 1080 606 1080 606 1045.86230469 523.3984375 c 0,4,5
 971 346 971 346 1124.58300781 327.80859375 c 0,6,7
 1174 322 1174 322 1252.28710938 331.103515625 c 1,0,1
1128.08300781 76.66015625 m 0,8,9
 815 93 815 93 778 348.758789062 c 0,10,11
 759 478 759 478 825.280273438 624.413085938 c 0,12,13
 946 890 946 890 1143.17089844 889.92578125 c 0,14,15
 1330 890 1330 890 1433.5859375 674.875 c 0,16,17
 1535 464 1535 464 1498.79199219 120.766601562 c 0,18,19
 1472 -135 1472 -135 1287.4008789 -267.055664062 c 0,20,21
 1105 -398 1105 -398 804.293945312 -397.88671875 c 0,22,23
 317 -398 317 -398 168.799804688 -115.292480469 c 0,24,25
 21 167 21 167 190.263671875 661.456054688 c 1,26,-1
 439 595 l 1,27,28
 363 373 363 373 363 255 c 4,29,30
 364 -89 364 -89 807.186523438 -89.2685546875 c 0,31,32
 1197 -89 1197 -89 1237.12792969 79.7109375 c 1,33,34
 1177 74 1177 74 1128.08300781 76.66015625 c 0,8,9
EndSplineSet
Substitution2: "'init' Initial Forms in Arabic lookup 13 subtable" uni066F.init
Substitution2: "'medi' Medial Forms in Arabic lookup 11 subtable" uni066F.medi
Substitution2: "'fina' Terminal Forms in Arabic lookup 9 subtable" uni066F.fina
EndChar
StartChar: uni0674
Encoding: 1652 1652 78
Width: 672
VWidth: 2393
GlyphClass: 2
Flags: W
LayerCount: 2
Fore
SplineSet
201.332561922 1695.72002972 m 1,0,1
 124.791015625 1754.29570392 124.791015625 1754.29570392 124.791015625 1856.18675858 c 128,-1,2
 124.791015625 1958.07781324 124.791015625 1958.07781324 193.961134264 2018.77456611 c 128,-1,3
 263.131252903 2079.47131897 263.131252903 2079.47131897 354.471478077 2079.78315126 c 128,-1,4
 445.811703251 2080.09498355 445.811703251 2080.09498355 523.954101562 2036.18754515 c 1,5,-1
 523.954101562 1896.21219429 l 1,6,7
 300.768314628 1998.57029214 300.768314628 1998.57029214 264.373457216 1884.17930022 c 4,8,9
 236 1795 236 1795 361.977696637 1749.43280637 c 0,10,11
 388.611554402 1739.40364504 388.611554402 1739.40364504 524.242662547 1769.91282658 c 2,12,-1
 548.631835938 1775.39898479 l 1,13,-1
 548.631835938 1632.03721162 l 1,14,-1
 122.44140625 1536.35481491 l 1,15,-1
 122.44140625 1677.51604955 l 1,16,-1
 201.332561922 1695.72002972 l 1,0,1
EndSplineSet
EndChar
StartChar: uni06A1
Encoding: 1697 1697 90
Width: 1796
VWidth: 2237
GlyphClass: 2
Flags: W
AnchorPoint: "Anchor-10" 517.55 1281.28 basechar 0
AnchorPoint: "Anchor-7" 504.55 -192.88 basechar 0
LayerCount: 2
Fore
SplineSet
1449.63769531 614.802734375 m 5,0,1
 1442.02539062 840.415039062 1442.02539062 840.415039062 1363.61425781 843.111328125 c 4,2,3
 1320.84667969 844.521484375 1320.84667969 844.521484375 1291.84667969 797.021484375 c 132,-1,4
 1262.84667969 749.521484375 1262.84667969 749.521484375 1263.84667969 698.521484375 c 4,5,6
 1265.890625 594.268554688 1265.890625 594.268554688 1449.63769531 614.802734375 c 5,0,1
887.707080174 279.285310036 m 2,7,-1
 903.719584977 279.294162435 l 2,8,9
 1143.90634545 279.294162435 1143.90634545 279.294162435 1307.06445312 340.825195312 c 1,10,11
 1172.23632812 349.615234375 1172.23632812 349.615234375 1085.73735699 436.688674058 c 128,-1,12
 999.238385856 523.762113741 999.238385856 523.762113741 999.322484784 669.412841111 c 128,-1,13
 999.406583711 815.063568482 999.406583711 815.063568482 1087.83886719 956.233398438 c 0,14,15
 1192.94027684 1124.00496145 1192.94027684 1124.00496145 1364.47167969 1124.40429688 c 0,16,17
 1574.89646125 1123.91712389 1574.89646125 1123.91712389 1659.79541016 889.823730469 c 0,18,19
 1703.98339844 767.983398438 1703.98339844 767.983398438 1703.98144531 593.340820313 c 0,20,21
 1703.97659321 159.479813158 1703.97659321 159.479813158 1331.13867188 48.828125 c 0,22,23
 1164.49414062 -0.9892578125 1164.49414062 -0.9892578125 871.815917966 -0.99072265625 c 128,-1,24
 579.137695312 -0.9921875 579.137695312 -0.9921875 407.689453125 46.3891601562 c 128,-1,25
 236.241210938 93.7705078125 236.241210938 93.7705078125 138.256741278 226.007879673 c 128,-1,26
 40.2722716176 358.245251533 40.2722716176 358.245251533 40.2722716176 559.559095278 c 0,27,28
 40.2722716176 663.822276336 40.2722716176 663.822276336 82.13671875 777.610351562 c 2,29,-1
 97.158203125 818.4375 l 1,30,-1
 355.143554688 767.69140625 l 1,31,-1
 342.450195312 715.830078125 l 2,32,33
 316.964128756 611.706282969 316.964128756 611.706282969 316.901986253 557.14025086 c 128,-1,34
 316.83984375 502.57421875 316.83984375 502.57421875 340.245117188 448.239257812 c 0,35,36
 386.449241168 340.974589111 386.449241168 340.974589111 539.130859375 303.536132812 c 0,37,38
 596.185139874 289.563707344 596.185139874 289.563707344 736.00245874 284.42450869 c 128,-1,39
 875.819777607 279.285310036 875.819777607 279.285310036 887.707080174 279.285310036 c 2,7,-1
EndSplineSet
Substitution2: "'init' Initial Forms in Arabic lookup 13 subtable" uni06A1.init
Substitution2: "'medi' Medial Forms in Arabic lookup 11 subtable" uni06A1.medi
Substitution2: "'fina' Terminal Forms in Arabic lookup 9 subtable" uni06A1.fina
EndChar
StartChar: uni06A9
Encoding: 1705 1705 91
Width: 1703
VWidth: 2237
GlyphClass: 2
Flags: W
AnchorPoint: "Anchor-10" 387 1258.34 basechar 0
AnchorPoint: "Anchor-7" 490 -199.68 basechar 0
LayerCount: 2
Fore
SplineSet
779.654296875 0 m 1,0,1
 551.46484375 3.09765625 551.46484375 3.09765625 411.262695312 43.46484375 c 0,2,3
 227.928710938 96.07421875 227.928710938 96.07421875 132.99609375 228.305664062 c 128,-1,4
 38.0625 360.538085938 38.0625 360.538085938 38.1357421875 560.75 c 0,5,6
 37.9873046875 664.541992188 37.9873046875 664.541992188 76.8056640625 776.682617188 c 2,7,-1
 91.404296875 818.857421875 l 1,8,-1
 341.674804688 768.0703125 l 1,9,-1
 333.154296875 719.196289062 l 2,10,11
 312.507317185 600.7604808 312.507317185 600.7604808 312.507317185 566.663961114 c 0,12,13
 312.507317185 460.396142249 312.507317185 460.396142249 365.193111718 396.48176253 c 0,14,15
 438.265767724 307.83560042 438.265767724 307.83560042 634.296875 289.3203125 c 0,16,17
 696.96484375 283.400390625 696.96484375 283.400390625 780.725585938 280.98046875 c 1,18,-1
 1052.78808594 281.00390625 l 2,19,20
 1211.25511219 281.00390625 1211.25511219 281.00390625 1251.90722656 320.73046875 c 0,21,22
 1302.78069021 370.445664745 1302.78069021 370.445664745 1217.43261719 477.942382812 c 4,23,24
 1120.88259458 599.542691814 1120.88259458 599.542691814 866.033203125 744.571289062 c 0,25,26
 760.977016508 804.355655816 760.977016508 804.355655816 760.975523166 946.418398114 c 128,-1,27
 760.974029824 1088.48114041 760.974029824 1088.48114041 902.650390625 1157.32128906 c 2,28,-1
 1674.65039062 1532.44335938 l 1,29,-1
 1674.65039062 1242.23046875 l 1,30,-1
 1067.6015625 949.977539062 l 1,31,32
 1313.79394531 768.8671875 1313.79394531 768.8671875 1372.43261719 704.69921875 c 0,33,34
 1528.45648195 534.311127017 1528.45648195 534.311127017 1528.45648195 367.451446954 c 0,35,36
 1528.45648195 252.296791383 1528.45648195 252.296791383 1472.17404176 163.769489442 c 0,37,38
 1368.05535415 -4.26325641456e-14 1368.05535415 -4.26325641456e-14 1094.10058594 0 c 2,39,-1
 779.654296875 0 l 1,0,1
EndSplineSet
Substitution2: "'init' Initial Forms in Arabic lookup 13 subtable" uniFB90
Substitution2: "'medi' Medial Forms in Arabic lookup 11 subtable" uniFB91
Substitution2: "'fina' Terminal Forms in Arabic lookup 9 subtable" uniFB8F
EndChar
StartChar: afii57514
Encoding: 1722 1722 93
Width: 1385
VWidth: 2237
GlyphClass: 2
Flags: W
AnchorPoint: "Anchor-10" 643.11 849 basechar 0
AnchorPoint: "Anchor-7" 665.58 -473.02 basechar 0
LayerCount: 2
Fore
SplineSet
1345.15433981 116.644910025 m 0,0,1
 1345.15433981 -160.691828196 1345.15433981 -160.691828196 1181.066916 -298.836148473 c 128,-1,2
 1016.97949219 -436.98046875 1016.97949219 -436.98046875 703.088867189 -436.98046875 c 128,-1,3
 389.198242188 -436.98046875 389.198242188 -436.98046875 214.6328125 -289.684570312 c 128,-1,4
 40.068359375 -142.388671875 40.068359375 -142.388671875 40.1474609375 143.176757812 c 0,5,6
 39.9912109375 304.60546875 39.9912109375 304.60546875 115.31640625 520.830078125 c 2,7,-1
 130.137695312 563.377929688 l 1,8,-1
 393.358398438 506.834960938 l 1,9,-1
 374.453125 452.361328125 l 2,10,11
 312.012695312 272.439453125 312.012695312 272.439453125 312.067382812 126.827636719 c 128,-1,12
 312.122070312 -18.7841796875 312.122070312 -18.7841796875 403.472437942 -92.6745944582 c 128,-1,13
 494.822805572 -166.565009229 494.822805572 -166.565009229 698.598093532 -166.565009229 c 0,14,15
 699.157509371 -166.565009229 699.157509371 -166.565009229 699.717773438 -166.564453125 c 128,-1,16
 700.30890694 -166.565033196 700.30890694 -166.565033196 700.899108873 -166.565033196 c 0,17,18
 907.975268858 -166.565033196 907.975268858 -166.565033196 1000.5066774 -95.056442379 c 128,-1,19
 1093.03808594 -23.5478515625 1093.03808594 -23.5478515625 1093.0206438 131.452831495 c 128,-1,20
 1093.00320167 286.453514552 1093.00320167 286.453514552 1032.14746094 520.0546875 c 2,21,-1
 1018.71386719 571.62109375 l 1,22,-1
 1276.18164062 626.766601562 l 1,23,-1
 1286.63085938 576.541015625 l 2,24,25
 1345.15433981 295.246699184 1345.15433981 295.246699184 1345.15433981 116.644910025 c 0,0,1
EndSplineSet
Substitution2: "'init' Initial Forms in Arabic lookup 13 subtable" uni06BA.init
Substitution2: "'medi' Medial Forms in Arabic lookup 11 subtable" uni06BA.medi
Substitution2: "'fina' Terminal Forms in Arabic lookup 9 subtable" uniFB9F
EndChar
StartChar: uni06F4
Encoding: 1780 1780 119
Width: 1177
VWidth: 2237
GlyphClass: 2
Flags: W
LayerCount: 2
Fore
SplineSet
395.47 1280.75 m 1,0,1
 478.94 1433.68 478.94 1433.68 603.15 1469.78 c 0,2,3
 756.646 1514.39 756.646 1514.39 973.429 1468.36 c 2,4,-1
 1013.84 1459.78 l 1,5,-1
 1013.84 1208.45 l 1,6,-1
 947.467 1229.43 l 2,7,8
 913.665 1240.11 913.665 1240.11 827.147 1251.08 c 0,9,10
 690.606 1268.38 690.606 1268.38 625.742 1202.19 c 0,11,12
 581.675 1157.5 581.675 1157.5 574.865 1120.36 c 128,-1,13
 568.055 1083.22 568.055 1083.22 592.49 1046.56 c 0,14,15
 606.729 1023.95 606.729 1023.95 655.751 1007.96 c 128,-1,16
 704.773 991.966 704.773 991.966 791.295 991.86 c 0,17,18
 841.719 991.813 841.719 991.813 1012.86 1017.09 c 2,19,-1
 1070.41 1025.59 l 1,20,-1
 1074.28 776.161 l 1,21,-1
 1029.26 770.213 l 2,22,23
 827.752 743.59 827.752 743.59 761.84 743.59 c 0,24,25
 632.477 743.59 632.477 743.59 536.177 781.386 c 1,26,27
 539.448 762.837 539.448 762.837 542.596 742.447 c 0,28,29
 581.08 493.081 581.08 493.081 577.398 59.0674 c 2,30,-1
 576.969 8.5 l 1,31,-1
 308.736 8.5 l 1,32,-1
 308.672 59.4365 l 2,33,34
 308.117 501.445 308.117 501.445 269.62 730.324 c 0,35,36
 219.195 1027.7 219.195 1027.7 60.3701 1404.7 c 2,37,-1
 30.543 1475.5 l 1,38,-1
 327.608 1475.5 l 1,39,-1
 339.578 1441.39 l 2,40,41
 373.157 1345.7 373.157 1345.7 395.47 1280.75 c 1,0,1
EndSplineSet
EndChar
StartChar: uni06F5
Encoding: 1781 1781 120
Width: 1177
VWidth: 2237
GlyphClass: 2
Flags: W
LayerCount: 2
Fore
SplineSet
704.146 377.229 m 2,0,1
 716.442638412 330.651099275 716.442638412 330.651099275 738.973 312.892 c 0,2,3
 761 295 761 295 798.7375 296.129 c 0,4,5
 904 299 904 299 903.803579438 373.734753255 c 0,6,7
 904 427 904 427 875.214 508.423 c 0,8,9
 819 668 819 668 589.541015625 974.040039062 c 1,10,11
 360 649 360 649 313.332 504.696 c 0,12,13
 289 431 289 431 289.319215677 384.56858316 c 0,14,15
 289 339 289 339 311.250607839 319.249952353 c 0,16,17
 333 300 333 300 381.329 299.945 c 0,18,19
 429 300 429 300 451.306 317.613 c 0,20,21
 473.048203041 335.038633091 473.048203041 335.038633091 489.124 380.828 c 2,22,-1
 502.272 418.278 l 1,23,-1
 693.309 418.278 l 1,24,-1
 704.146 377.229 l 2,0,1
591.343 104.201 m 1,25,26
 514 8 514 8 362.2264947 8.36523498871 c 0,27,28
 211 8 211 8 116.589471333 97.2942192126 c 0,29,30
 22 186 22 186 22.3059763601 379.059823111 c 0,31,32
 22 664 22 664 503.927734375 1288.65039062 c 0,33,34
 543 1339 543 1339 591.51171875 1338.98144531 c 128,-1,35
 640 1339 640 1339 680.444335938 1289.73046875 c 0,36,37
 1156 707 1156 707 1155.60837163 392.451060588 c 0,38,39
 1156 199 1156 199 1059.213342 103.767025653 c 0,40,41
 963 9 963 9 815.520838318 8.82104357995 c 0,42,43
 668 9 668 9 591.343 104.201 c 1,25,26
EndSplineSet
EndChar
StartChar: uni06F6
Encoding: 1782 1782 94
Width: 1132
VWidth: 2304
GlyphClass: 2
Flags: W
LayerCount: 2
Fore
SplineSet
117.80859375 66.7060546875 m 2,0,1
 192.694335938 320.603515625 192.694335938 320.603515625 414.059570312 607.815429688 c 1,2,3
 213.982421875 644.634765625 213.982421875 644.634765625 143.459960938 846.000976562 c 0,4,5
 127 893 127 893 127 977.5 c 128,-1,6
 127 1062 127 1062 174.7265625 1156.89550781 c 0,7,8
 292 1392 292 1392 623.263671875 1390.2265625 c 0,9,10
 673.790039062 1390.00097656 673.790039062 1390.00097656 755.482421875 1376.16894531 c 2,11,-1
 799.247070312 1368.75878906 l 1,12,-1
 761 1129 l 1,13,-1
 694.982421875 1141.17480469 l 26,14,15
 674 1145 674 1145 604.5 1145 c 0,16,17
 457 1145 457 1145 391.154296875 1021.50488281 c 0,18,19
 374 990 374 990 374.052734375 937.31640625 c 0,20,21
 374 824 374 824 580.903320312 819.319335938 c 1,22,23
 605 827 605 827 777.294921875 889.83203125 c 0,24,25
 950 953 950 953 971.401367188 960.703125 c 2,26,-1
 1029.33300781 982.111328125 l 1,27,-1
 1040.56933594 718.079101562 l 1,28,-1
 1003.56640625 710.028320312 l 2,29,30
 759.759765625 657.379882812 759.759765625 657.379882812 564.833984375 379.383789062 c 0,31,32
 429.532226562 186.7578125 429.532226562 186.7578125 385.55078125 40.978515625 c 2,33,-1
 375.895507812 8.9755859375 l 1,34,-1
 100.78125 8.9755859375 l 1,35,-1
 117.80859375 66.7060546875 l 2,0,1
EndSplineSet
EndChar
StartChar: uniFB8F
Encoding: 64399 64399 136
Width: 1747
VWidth: 2186
GlyphClass: 2
Flags: W
AnchorPoint: "Anchor-10" 401 1296.5 basechar 0
AnchorPoint: "Anchor-7" 519 -287 basechar 0
LayerCount: 2
Fore
SplineSet
1086.69726562 1026.45898438 m 1,0,1
 1433 754 1433 754 1440.06835938 748.41015625 c 0,2,3
 1619 606 1619 606 1587.23828125 345.484375 c 1,4,5
 1636.09083007 280.879882812 1636.09083007 280.879882812 1717.76953125 280.879882812 c 2,6,-1
 1767 280.879882812 l 1,7,-1
 1767 0 l 1,8,-1
 1708.05957031 0 l 2,9,10
 1560 0 1560 0 1447.80859375 88.01953125 c 1,11,12
 1443 84 1443 84 1437.27246094 80.625 c 0,13,14
 1416 67 1416 67 1393.18652344 55.294921875 c 0,15,16
 1370 44 1370 44 1345.16308594 34.9287109375 c 0,17,18
 1320 26 1320 26 1293.47753906 19.4052734375 c 128,-1,19
 1267 13 1267 13 1237.9453125 8.5029296875 c 128,-1,20
 1209 4 1209 4 1178.87011719 2.10546875 c 0,21,22
 1149 0 1149 0 1116.09960938 -0 c 2,23,-1
 775.647460938 0 l 2,24,25
 562 0 562 0 411.32421875 43.447265625 c 0,26,27
 81 137 81 137 41.302734375 502.450195312 c 0,28,29
 27.0335099308 631.696477269 27.0335099308 631.696477269 91.291015625 818.879882812 c 1,30,-1
 341.861328125 768.032226562 l 5,31,32
 309 609 309 609 313.428710938 536.622070312 c 4,33,34
 335.589160916 344.213269992 335.589160916 344.213269992 536.967773438 303.576171875 c 0,35,36
 645 282 645 282 804.517578125 281.811523438 c 2,37,-1
 1074.953125 281.00390625 l 2,38,39
 1311 280 1311 280 1326.94335938 382.352539062 c 0,40,41
 1335 432 1335 432 1314.86425781 473.897460938 c 0,42,43
 1294.77594121 516.474895362 1294.77594121 516.474895362 1242.23632812 557.26171875 c 2,44,-1
 893.9296875 827.654296875 l 2,45,46
 864 851 864 851 841.947265625 876.26953125 c 0,47,48
 820 902 820 902 804.873046875 930.9453125 c 0,49,50
 790 960 790 960 784.67578125 991.381835938 c 0,51,52
 771 1070 771 1070 808.78515625 1133.29492188 c 0,53,54
 848.094897534 1197.15416241 848.094897534 1197.15416241 926.651367188 1235.32226562 c 2,55,-1
 1696.65039062 1609.44042969 l 1,56,-1
 1696.65039062 1319.18945312 l 1,57,-1
 1667.71972656 1305.30273438 l 2,58,59
 1106 1036 1106 1036 1086.69726562 1026.45898438 c 1,0,1
EndSplineSet
EndChar
StartChar: uniFB9F
Encoding: 64415 64415 144
Width: 1570
VWidth: 2237
GlyphClass: 2
Flags: W
AnchorPoint: "Anchor-10" 618.9 793 basechar 0
AnchorPoint: "Anchor-7" 740.88 -597.5 basechar 0
LayerCount: 2
Fore
SplineSet
1326.86 633.366 m 0,0,1
 1346.28 527.65 1346.28 527.65 1371.26 416.738 c 0,2,3
 1388.2 342.558 1388.2 342.558 1421.39 311.969 c 128,-1,4
 1454.57 281.38 1454.57 281.38 1511.28 281.38 c 2,5,-1
 1607.53 281.38 l 1,6,-1
 1607.53 0.5 l 1,7,-1
 1452.43 0.5 l 2,8,9
 1404.55 0.5 1404.55 0.5 1360.74 30.2773 c 1,10,11
 1302.86 -178.883 1302.86 -178.883 1160.62 -296.978 c 0,12,13
 989.117 -439.42 989.117 -439.42 668.527 -423.237 c 0,14,15
 303.896 -405.513 303.896 -405.513 146.851 -191.132 c 1,16,17
 11.0312 -8.06055 11.0312 -8.06055 48.1465 341.947 c 0,18,19
 60.5337 456.079 60.5337 456.079 115.316 581.462 c 2,20,-1
 132.532 620.864 l 1,21,-1
 393.295 564.848 l 1,22,-1
 373.473 510.415 l 2,23,24
 319.634 362.573 319.634 362.573 313.424 236.949 c 0,25,26
 312.632 222.879 312.632 222.879 312.36 209.453 c 0,27,28
 308.866 30.6113 308.866 30.6113 389.583 -48.4307 c 0,29,30
 488.516 -145.309 488.516 -145.309 681.508 -153.617 c 0,31,32
 906.875 -163.32 906.875 -163.32 1001.72 -68.125 c 1,33,34
 1103.64 37.0928 1103.64 37.0928 1110.56 255.236 c 0,35,36
 1113.94 368.911 1113.94 368.911 1061.05 578.43 c 2,37,-1
 1047.93 630.408 l 1,38,-1
 1317.5 684.324 l 1,39,40
 1318.9 676.112 1318.9 676.112 1322.13 658.866 c 128,-1,41
 1325.37 641.62 1325.37 641.62 1326.86 633.366 c 0,0,1
EndSplineSet
EndChar
StartChar: uniFBE8
Encoding: 64488 64488 120
Width: 676
VWidth: 2304
GlyphClass: 2
Flags: W
AnchorPoint: "Anchor-10" 320.398 1149.27 basechar 0
AnchorPoint: "Anchor-7" 293.998 -327.016 basechar 0
LayerCount: 2
Fore
SplineSet
57.5810546875 271.002929688 m 2,0,1
 235.002820812 271.002929688 235.002820812 271.002929688 292.0546875 330.256835938 c 0,2,3
 338 378 338 378 333.357421875 481.283203125 c 0,4,5
 331 537 331 537 315.741210938 589.338867188 c 0,6,7
 301.052569134 640.815769475 301.052569134 640.815769475 272.025390625 693.046875 c 2,8,-1
 247.204101562 737.709960938 l 1,9,-1
 474.432617188 828.610351562 l 1,10,-1
 495.12109375 800.987304688 l 2,11,12
 585 681 585 681 584.837890625 454.493164062 c 0,13,14
 585 229 585 229 450.751953125 110.430664062 c 0,15,16
 325 0 325 0 48.974609375 0 c 2,17,-1
 -15.54296875 0 l 1,18,-1
 -15.54296875 271.002929688 l 1,19,-1
 57.5810546875 271.002929688 l 2,0,1
EndSplineSet
EndChar
StartChar: uniFBE9
Encoding: 64489 64489 148
Width: 657
VWidth: 2237
GlyphClass: 2
Flags: W
AnchorPoint: "Anchor-10" 249.93 1066.5 basechar 0
AnchorPoint: "Anchor-7" 263.93 -246.5 basechar 0
LayerCount: 2
Fore
SplineSet
320.196 85.2734 m 1,0,1
 223.182 0 223.182 0 74.9004 0 c 2,2,-1
 -23.4004 0 l 1,3,-1
 -23.4004 280.98 l 1,4,-1
 28.0498 280.98 l 2,5,6
 118.339 280.979 118.339 280.979 150.376 312.8015 c 128,-1,7
 182.413 344.624 182.413 344.624 188.773 404.681 c 2,8,-1
 216.605 667.5 l 1,9,-1
 425.254 667.5 l 1,10,-1
 453.086 404.681 l 2,11,12
 459.489 344.215 459.489 344.215 495.582 312.597 c 128,-1,13
 531.675 280.979 531.675 280.979 623.811 280.98 c 2,14,-1
 678.66 280.98 l 1,15,-1
 678.66 0 l 1,16,-1
 564.96 0 l 2,17,18
 418.216 0 418.216 0 320.196 85.2734 c 1,0,1
EndSplineSet
EndChar
StartChar: uniFE73
Encoding: 65139 65139 137
Width: 573
VWidth: 2186
GlyphClass: 2
Flags: W
AnchorPoint: "Anchor-10" 210.79 1279.5 basechar 0
AnchorPoint: "Anchor-7" 210.79 -111.5 basechar 0
LayerCount: 2
Fore
SplineSet
296.23 350.74 m 2,0,1
 296.23 286.506 296.23 286.506 352.468 230.268 c 0,2,3
 403.354 179.38 403.354 179.38 514.67 179.38 c 2,4,-1
 581.92 179.38 l 1,5,-1
 581.92 8.5 l 1,6,-1
 455.82 8.5 l 2,7,8
 309.266 8.5 309.266 8.5 214.633 103.133 c 0,9,10
 125.35 192.415 125.35 192.415 125.35 337.9 c 2,11,-1
 125.35 370.91 l 1,12,-1
 296.23 370.91 l 1,13,-1
 296.23 350.74 l 2,0,1
EndSplineSet
EndChar
StartChar: uniFE8E
Encoding: 65166 65166 163
Width: 518
VWidth: 2237
GlyphClass: 2
Flags: W
AnchorPoint: "Anchor-10" 219.95 1534 basechar 0
AnchorPoint: "Anchor-7" 237.95 -188.5 basechar 0
LayerCount: 2
Fore
SplineSet
89.509765625 459.83984375 m 2,0,-1
 89.509765625 1400.03027344 l 1,1,-1
 358.389648438 1400.03027344 l 1,2,-1
 358.389648438 472.676757812 l 2,3,4
 357.771189752 339.863142575 357.771189752 339.863142575 421.744306832 302.560400904 c 0,5,6
 458.753262859 280.98046875 458.753262859 280.98046875 510.830078125 280.98046875 c 2,7,-1
 581.080078125 280.98046875 l 1,8,-1
 581.080078125 0 l 1,9,-1
 505.98046875 0 l 2,10,11
 263.59261466 0 263.59261466 0 148.104614306 198.253964738 c 0,12,13
 90 298 90 298 89.509765625 459.83984375 c 2,0,-1
EndSplineSet
EndChar
StartChar: uniFEA2
Encoding: 65186 65186 175
Width: 1386
VWidth: 2438
GlyphClass: 2
Flags: W
AnchorPoint: "Anchor-10" 611.107 1297.12 basechar 0
AnchorPoint: "Anchor-7" 475.396 -665.504 basechar 0
LayerCount: 2
Fore
SplineSet
766 703 m 1,0,1
 679 751 l 0,2,3
 635 778 635 778 596.762695312 792.799804688 c 0,4,5
 519 821 519 821 451.650390625 777.669921875 c 0,6,7
 379.393803663 732.247555207 379.393803663 732.247555207 317.26171875 650.43359375 c 2,8,-1
 290.76171875 615.5390625 l 1,9,-1
 93.2578125 757.384765625 l 1,10,-1
 123.325195312 794.446289062 l 2,11,12
 208 898 208 898 237.84765625 929.201171875 c 0,13,14
 361 1054 361 1054 535.249023438 1055.14453125 c 0,15,16
 635 1056 635 1056 770.943359375 969.576171875 c 0,17,18
 1000.36679425 823.766885155 1000.36679425 823.766885155 1230.4140625 808.245117188 c 2,19,-1
 1278.50976562 805 l 1,20,-1
 1266.56054688 522.529296875 l 1,21,-1
 1216.49414062 528.23828125 l 2,22,23
 1174 533 1174 533 1118.97851562 529.994140625 c 1,24,25
 1125.00917249 320.681640625 1125.00917249 320.681640625 1361.35839844 320.681640625 c 2,26,-1
 1396.54492188 320.681640625 l 5,27,-1
 1396.54492188 0.5498046875 l 1,28,-1
 1371.63574219 0.5498046875 l 2,29,30
 1147 1 1147 1 1024.79785156 130.614257812 c 0,31,32
 903 260 903 260 892.885742188 503.775390625 c 1,33,34
 622 458 622 458 468.715820312 307.383789062 c 0,35,36
 348 190 348 190 348.107421875 36.69140625 c 0,37,38
 348 -85 348 -85 465.559570312 -165.012695312 c 128,-1,39
 583 -245 583 -245 840.290039062 -245.734375 c 0,40,41
 1028.29356356 -246.000415417 1028.29356356 -246.000415417 1176.59765625 -193.723632812 c 2,42,-1
 1221.62792969 -177.850585938 l 1,43,-1
 1288.49511719 -458.64453125 l 1,44,-1
 1251.97070312 -474.263671875 l 2,45,46
 1084 -546 1084 -546 808.016601562 -542.42578125 c 0,47,48
 451 -538 451 -538 273.821289062 -380.418945312 c 0,49,50
 97 -223 97 -223 98.017578125 38.650390625 c 0,51,52
 99 300 99 300 320.888671875 496.58984375 c 0,53,54
 481 639 481 639 766 703 c 1,0,1
EndSplineSet
EndChar
StartChar: uniFEA3
Encoding: 65187 65187 176
Width: 1417
VWidth: 2438
GlyphClass: 2
Flags: W
AnchorPoint: "Anchor-10" 488.918 1247.81 basechar 0
AnchorPoint: "Anchor-7" 620.707 -232.876 basechar 0
LayerCount: 2
Fore
SplineSet
866.203125 515.922851562 m 1,0,1
 776 550 776 550 680.287109375 597.458984375 c 0,2,3
 546 664 546 664 487.186523438 671.00390625 c 0,4,5
 388.188077132 682.97725305 388.188077132 682.97725305 260.5625 517.169921875 c 2,6,-1
 233.616210938 482.162109375 l 1,7,-1
 35.7978515625 637.701171875 l 5,8,-1
 62.0322265625 673.776367188 l 6,9,10
 121 755 121 755 175.298828125 811.6484375 c 4,11,12
 310 952 310 952 472.161132812 945.565429688 c 4,13,14
 535 943 535 943 621.139648438 911.15625 c 4,15,16
 707 879 707 879 824.803710938 815.7421875 c 4,17,18
 1042.97804666 698.474303601 1042.97804666 698.474303601 1294.36816406 653.55859375 c 6,19,-1
 1336.0390625 646.11328125 l 5,20,-1
 1311.8828125 381.201171875 l 1,21,-1
 1269.20507812 383.971679688 l 2,22,23
 1187 389 1187 389 1021.87988281 279.029296875 c 0,24,25
 839 157 839 157 701.876953125 98.9951171875 c 0,26,27
 584 49 584 49 428.940429688 24.4970703125 c 128,-1,28
 274 0 274 0 80.6533203125 0 c 2,29,-1
 -15.6220703125 0 l 1,30,-1
 -15.6220703125 320.243164062 l 1,31,-1
 43.69140625 320.243164062 l 2,32,33
 365 320 365 320 488.561523438 346.865234375 c 0,34,35
 660 383 660 383 866.203125 515.922851562 c 1,0,1
EndSplineSet
EndChar
StartChar: uniFEA4
Encoding: 65188 65188 177
Width: 1431
VWidth: 2304
GlyphClass: 2
Flags: W
AnchorPoint: "Anchor-10" 524.48 1179.04 basechar 0
AnchorPoint: "Anchor-7" 693.44 -195.016 basechar 0
LayerCount: 2
Fore
SplineSet
1366.02734375 0 m 2,0,1
 1031 0 1031 0 935.434570312 193.676757812 c 1,2,3
 829 137 829 137 716.291992188 91.689453125 c 0,4,5
 489 0 489 0 39.3974609375 0 c 2,6,-1
 -11.982421875 0 l 5,7,-1
 -11.982421875 271.002929688 l 5,8,-1
 3.853515625 271.002929688 l 2,9,10
 305 271 305 271 471.967773438 295.83984375 c 0,11,12
 639 321 639 321 821.908203125 412.889648438 c 1,13,14
 774 440 774 440 716.100585938 478.611328125 c 0,15,16
 536 599 536 599 480.127929688 598.751953125 c 0,17,18
 372.29457532 598.99932424 372.29457532 598.99932424 259.461914062 450.858398438 c 2,19,-1
 232.951171875 416.051757812 l 1,20,-1
 35.38671875 557.9453125 l 1,21,-1
 65.5810546875 595.01953125 l 2,22,23
 151 700 151 700 195.813476562 744.750976562 c 0,24,25
 239 788 239 788 312.005859375 818.897460938 c 0,26,27
 385 850 385 850 468.368164062 849.711914062 c 0,28,29
 637 850 637 850 784.3828125 733.127929688 c 0,30,31
 1044.80117735 526.158016144 1044.80117735 526.158016144 1268.890625 517.728515625 c 2,32,-1
 1317.74902344 515.890625 l 1,33,-1
 1292.30859375 305.752929688 l 1,34,-1
 1249.61914062 308.756835938 l 2,35,36
 1216 311 1216 311 1166.74414062 301.661132812 c 1,37,38
 1231.10154681 271.953125 1231.10154681 271.953125 1388.62597656 271.953125 c 2,39,-1
 1445.47265625 271.953125 l 1,40,-1
 1445.47265625 0 l 1,41,-1
 1366.02734375 0 l 2,0,1
EndSplineSet
EndChar
StartChar: uniFEAA
Encoding: 65194 65194 183
Width: 1174
VWidth: 2438
GlyphClass: 2
Flags: W
AnchorPoint: "Anchor-10" 469.434 1350.95 basechar 0
AnchorPoint: "Anchor-7" 429.359 -219.148 basechar 0
LayerCount: 2
Fore
SplineSet
1151.90722656 0.5498046875 m 6,0,1
 1014.421875 0.5498046875 1014.421875 0.5498046875 909.03515625 112.94921875 c 5,2,3
 761 -12 761 -12 406.692382812 0.0205078125 c 4,4,5
 217.553710938 5.982421875 217.553710938 5.982421875 132.69921875 27.0947265625 c 6,6,-1
 98.5634765625 35.587890625 l 5,7,-1
 98.5634765625 312.024414062 l 5,8,-1
 153.208984375 300.033203125 l 6,9,10
 391 248 391 248 639.829101562 279.803710938 c 4,11,12
 721 290 721 290 734.643554688 306.192382812 c 4,13,14
 748 322 748 322 735.047851562 363.180664062 c 4,15,16
 722.209960938 403.342773438 722.209960938 403.342773438 669.75 524.329101562 c 6,17,-1
 490.904296875 936.79296875 l 5,18,-1
 735.150390625 1040.60058594 l 5,19,-1
 977.46484375 484.979492188 l 6,20,21
 1035 353 1035 353 1069.01074219 318.177734375 c 4,22,23
 1116.57617188 270.42578125 1116.57617188 270.42578125 1161.33496094 272.26171875 c 6,24,-1
 1184.54296875 273.213867188 l 5,25,-1
 1184.54296875 0.5498046875 l 5,26,-1
 1151.90722656 0.5498046875 l 6,0,1
EndSplineSet
EndChar
StartChar: uniFEAE
Encoding: 65198 65198 214
Width: 980
VWidth: 2237
GlyphClass: 2
Flags: W
AnchorPoint: "Anchor-10" 533 869 basechar 0
AnchorPoint: "Anchor-7" 520.925 -636.55 basechar 0
LayerCount: 2
Fore
SplineSet
432.64453125 512.272460938 m 5,0,-1
 670.74609375 640.353515625 l 5,1,-1
 694.048828125 592.772460938 l 6,2,3
 727.725585938 524.0078125 727.725585938 524.0078125 786.705078125 412.475585938 c 4,4,5
 823.323242188 343.23046875 823.323242188 343.23046875 868.46875 312.106445312 c 132,-1,6
 913.6171875 280.978515625 913.6171875 280.978515625 971.83984375 280.98046875 c 6,7,-1
 1007.59960938 280.98046875 l 5,8,-1
 1007.59960938 0 l 5,9,-1
 985.990234375 0 l 6,10,11
 861.701171875 0 861.701171875 0 789.565429688 29.7431640625 c 5,12,13
 734.372070312 -188.55859375 734.372070312 -188.55859375 554.984375 -312.26171875 c 132,-1,14
 375.591796875 -435.96875 375.591796875 -435.96875 83.537109375 -465.40234375 c 6,15,-1
 36.443359375 -470.1484375 l 5,16,-1
 -10.529296875 -204.505859375 l 5,17,-1
 45.7666015625 -199.787109375 l 6,18,19
 277.819335938 -180.334960938 277.819335938 -180.334960938 397.616210938 -91.41015625 c 4,20,21
 517.102539062 -2.71484375 517.102539062 -2.71484375 540.790039062 157.7578125 c 4,22,23
 560.208007812 293.033203125 560.208007812 293.033203125 459.166015625 466.69140625 c 6,24,-1
 432.64453125 512.272460938 l 5,0,-1
EndSplineSet
PairPos2: "'kern' Horizontal Kerning lookup 15-1" uniFEDF dx=-110 dy=0 dh=-110 dv=0 dx=0 dy=0 dh=0 dv=0
PairPos2: "'kern' Horizontal Kerning lookup 15-1" uniFBAC dx=-110 dy=0 dh=-110 dv=0 dx=0 dy=0 dh=0 dv=0
PairPos2: "'kern' Horizontal Kerning lookup 15-1" uniFB90 dx=-110 dy=0 dh=-110 dv=0 dx=0 dy=0 dh=0 dv=0
PairPos2: "'kern' Horizontal Kerning lookup 15-1" uni06A9 dx=-110 dy=0 dh=-110 dv=0 dx=0 dy=0 dh=0 dv=0
PairPos2: "'kern' Horizontal Kerning lookup 15-1" uni0649 dx=-70 dy=0 dh=-70 dv=0 dx=0 dy=0 dh=0 dv=0
PairPos2: "'kern' Horizontal Kerning lookup 15-1" uni0647 dx=-110 dy=0 dh=-110 dv=0 dx=0 dy=0 dh=0 dv=0
PairPos2: "'kern' Horizontal Kerning lookup 15-1" uniFEE7 dx=-110 dy=0 dh=-110 dv=0 dx=0 dy=0 dh=0 dv=0
PairPos2: "'kern' Horizontal Kerning lookup 15-1" uniFEE3 dx=-110 dy=0 dh=-110 dv=0 dx=0 dy=0 dh=0 dv=0
PairPos2: "'kern' Horizontal Kerning lookup 15-1" uni0645 dx=-110 dy=0 dh=-110 dv=0 dx=0 dy=0 dh=0 dv=0
PairPos2: "'kern' Horizontal Kerning lookup 15-1" uniFEDB dx=-110 dy=0 dh=-110 dv=0 dx=0 dy=0 dh=0 dv=0
PairPos2: "'kern' Horizontal Kerning lookup 15-1" uniFED7 dx=-110 dy=0 dh=-110 dv=0 dx=0 dy=0 dh=0 dv=0
PairPos2: "'kern' Horizontal Kerning lookup 15-1" uniFED3 dx=-110 dy=0 dh=-110 dv=0 dx=0 dy=0 dh=0 dv=0
PairPos2: "'kern' Horizontal Kerning lookup 15-1" uni0641 dx=-110 dy=0 dh=-110 dv=0 dx=0 dy=0 dh=0 dv=0
PairPos2: "'kern' Horizontal Kerning lookup 15-1" uniFECF dx=-110 dy=0 dh=-110 dv=0 dx=0 dy=0 dh=0 dv=0
PairPos2: "'kern' Horizontal Kerning lookup 15-1" uniFECB dx=-110 dy=0 dh=-110 dv=0 dx=0 dy=0 dh=0 dv=0
PairPos2: "'kern' Horizontal Kerning lookup 15-1" uniFEC7 dx=-110 dy=0 dh=-110 dv=0 dx=0 dy=0 dh=0 dv=0
PairPos2: "'kern' Horizontal Kerning lookup 15-1" uni0638 dx=-110 dy=0 dh=-110 dv=0 dx=0 dy=0 dh=0 dv=0
PairPos2: "'kern' Horizontal Kerning lookup 15-1" uniFEC3 dx=-110 dy=0 dh=-110 dv=0 dx=0 dy=0 dh=0 dv=0
PairPos2: "'kern' Horizontal Kerning lookup 15-1" uni0637 dx=-110 dy=0 dh=-110 dv=0 dx=0 dy=0 dh=0 dv=0
PairPos2: "'kern' Horizontal Kerning lookup 15-1" uniFEBF dx=-110 dy=0 dh=-110 dv=0 dx=0 dy=0 dh=0 dv=0
PairPos2: "'kern' Horizontal Kerning lookup 15-1" uni0636 dx=-110 dy=0 dh=-110 dv=0 dx=0 dy=0 dh=0 dv=0
PairPos2: "'kern' Horizontal Kerning lookup 15-1" uniFEBB dx=-110 dy=0 dh=-110 dv=0 dx=0 dy=0 dh=0 dv=0
PairPos2: "'kern' Horizontal Kerning lookup 15-1" uni0635 dx=-110 dy=0 dh=-110 dv=0 dx=0 dy=0 dh=0 dv=0
PairPos2: "'kern' Horizontal Kerning lookup 15-1" uniFEB7 dx=-110 dy=0 dh=-110 dv=0 dx=0 dy=0 dh=0 dv=0
PairPos2: "'kern' Horizontal Kerning lookup 15-1" uni0634 dx=-110 dy=0 dh=-110 dv=0 dx=0 dy=0 dh=0 dv=0
PairPos2: "'kern' Horizontal Kerning lookup 15-1" uniFEB3 dx=-110 dy=0 dh=-110 dv=0 dx=0 dy=0 dh=0 dv=0
PairPos2: "'kern' Horizontal Kerning lookup 15-1" uni0633 dx=-110 dy=0 dh=-110 dv=0 dx=0 dy=0 dh=0 dv=0
PairPos2: "'kern' Horizontal Kerning lookup 15-1" uni0630 dx=-70 dy=0 dh=-70 dv=0 dx=0 dy=0 dh=0 dv=0
PairPos2: "'kern' Horizontal Kerning lookup 15-1" uni062F dx=-70 dy=0 dh=-70 dv=0 dx=0 dy=0 dh=0 dv=0
PairPos2: "'kern' Horizontal Kerning lookup 15-1" uniFEA7 dx=-70 dy=0 dh=-70 dv=0 dx=0 dy=0 dh=0 dv=0
PairPos2: "'kern' Horizontal Kerning lookup 15-1" uniFEA3 dx=-70 dy=0 dh=-70 dv=0 dx=0 dy=0 dh=0 dv=0
PairPos2: "'kern' Horizontal Kerning lookup 15-1" uniFE9F dx=-70 dy=0 dh=-70 dv=0 dx=0 dy=0 dh=0 dv=0
PairPos2: "'kern' Horizontal Kerning lookup 15-1" uniFE9B dx=-110 dy=0 dh=-110 dv=0 dx=0 dy=0 dh=0 dv=0
PairPos2: "'kern' Horizontal Kerning lookup 15-1" uni062B dx=-110 dy=0 dh=-110 dv=0 dx=0 dy=0 dh=0 dv=0
PairPos2: "'kern' Horizontal Kerning lookup 15-1" uniFE97 dx=-110 dy=0 dh=-110 dv=0 dx=0 dy=0 dh=0 dv=0
PairPos2: "'kern' Horizontal Kerning lookup 15-1" uni062A dx=-110 dy=0 dh=-110 dv=0 dx=0 dy=0 dh=0 dv=0
PairPos2: "'kern' Horizontal Kerning lookup 15-1" uni0629 dx=-110 dy=0 dh=-110 dv=0 dx=0 dy=0 dh=0 dv=0
PairPos2: "'kern' Horizontal Kerning lookup 15-1" uni0628 dx=-110 dy=0 dh=-110 dv=0 dx=0 dy=0 dh=0 dv=0
PairPos2: "'kern' Horizontal Kerning lookup 15-1" uni0627 dx=-110 dy=0 dh=-110 dv=0 dx=0 dy=0 dh=0 dv=0
PairPos2: "'kern' Horizontal Kerning lookup 15-1" uni0622 dx=-110 dy=0 dh=-110 dv=0 dx=0 dy=0 dh=0 dv=0
PairPos2: "'kern' Horizontal Kerning lookup 15-1" uniFB94 dx=-110 dy=0 dh=-110 dv=0 dx=0 dy=0 dh=0 dv=0
PairPos2: "'kern' Horizontal Kerning lookup 15-1" afii57509 dx=-110 dy=0 dh=-110 dv=0 dx=0 dy=0 dh=0 dv=0
PairPos2: "'kern' Horizontal Kerning lookup 15-1" uniFB56 dx=-110 dy=0 dh=-110 dv=0 dx=0 dy=0 dh=0 dv=0
PairPos2: "'kern' Horizontal Kerning lookup 15-1" afii57506 dx=-110 dy=0 dh=-110 dv=0 dx=0 dy=0 dh=0 dv=0
EndChar
StartChar: uniFEB2
Encoding: 65202 65202 191
Width: 2579
VWidth: 2304
GlyphClass: 2
Flags: W
AnchorPoint: "Anchor-10" 715.008 977.144 basechar 0
AnchorPoint: "Anchor-7" 491.136 -589.312 basechar 0
LayerCount: 2
Fore
SplineSet
2541.46386719 0.5283203125 m 2,0,1
 2391.41894531 0.5283203125 2391.41894531 0.5283203125 2305.08105469 97.8193359375 c 1,2,3
 2218 -1 2218 -1 2065.33300781 -0.029296875 c 0,4,5
 1913 1 1913 1 1825.60742188 102.678710938 c 1,6,7
 1728 -22 1728 -22 1525.96582031 3.6435546875 c 0,8,9
 1477 10 1477 10 1438.14355469 25.8818359375 c 1,10,11
 1399 -297 1399 -297 1120.11132812 -407.17578125 c 0,12,13
 984 -461 984 -461 794.315429688 -461.4296875 c 0,14,15
 452 -461 452 -461 271.87109375 -309.30078125 c 0,16,17
 92 -157 92 -157 91.251953125 138.290039062 c 0,18,19
 91.0009765625 305.592773438 91.0009765625 305.592773438 168.73828125 529.528320312 c 2,20,-1
 181.790039062 567.125976562 l 1,21,-1
 434.272460938 512.887695312 l 1,22,-1
 417.862304688 464.956054688 l 2,23,24
 242 -49 242 -49 534.4921875 -164.861328125 c 0,25,26
 629 -202 629 -202 777.83203125 -202.068359375 c 0,27,28
 1000 -202 1000 -202 1101.6875 -122.916015625 c 0,29,30
 1203 -44 1203 -44 1203.0390625 122.737304688 c 0,31,32
 1203 289.26953125 1203 289.26953125 1139.4140625 535.616210938 c 2,33,-1
 1127.68945312 581.040039062 l 1,34,-1
 1374.67773438 633.940429688 l 1,35,-1
 1383.03417969 588.340820312 l 2,36,37
 1418 399 1418 399 1430.77734375 358.345703125 c 0,38,39
 1458 273 1458 273 1572.91699219 272.61328125 c 0,40,41
 1660 272 1660 272 1686.71191406 319.897460938 c 0,42,43
 1700.4296875 343.037109375 1700.4296875 343.037109375 1704.16015625 386.071289062 c 2,44,-1
 1726.83691406 647.646484375 l 1,45,-1
 1931.42285156 647.646484375 l 1,46,-1
 1934.66601562 606.153320312 l 2,47,48
 1949 427 1949 427 1959.70507812 373.2265625 c 0,49,50
 1982 264 1982 264 2082.99707031 268.028320312 c 0,51,52
 2144 270 2144 270 2162.80078125 334.658203125 c 0,53,54
 2170.08203125 360.288085938 2170.08203125 360.288085938 2173.04394531 397.286132812 c 2,55,-1
 2193.06347656 647.340820312 l 1,56,-1
 2393.80566406 647.340820312 l 1,57,-1
 2416.3828125 400.28125 l 2,58,59
 2427.96191406 271.424804688 2427.96191406 271.424804688 2571.67773438 271.424804688 c 2,60,-1
 2589.71679688 271.424804688 l 1,61,-1
 2589.71679688 0.5283203125 l 1,62,-1
 2541.46386719 0.5283203125 l 2,0,1
EndSplineSet
EndChar
StartChar: uniFEB3
Encoding: 65203 65203 192
Width: 1685
VWidth: 2438
GlyphClass: 2
Flags: W
AnchorPoint: "Anchor-10" 777.466 1090.51 basechar 0
AnchorPoint: "Anchor-7" 790.645 -248.801 basechar 0
LayerCount: 2
Fore
SplineSet
362.967773438 118.606445312 m 1,0,1
 274 0 274 0 87.2412109375 0 c 2,2,-1
 -15.42578125 0 l 1,3,-1
 -15.42578125 272.243164062 l 1,4,-1
 58.875 272.243164062 l 2,5,6
 149 272 149 272 191.868164062 304.293945312 c 4,7,8
 235.215029483 336.158067385 235.215029483 336.158067385 243.181640625 405.724609375 c 6,9,-1
 272.5546875 662.217773438 l 5,10,-1
 463.564453125 662.217773438 l 1,11,-1
 489.271484375 416.294921875 l 2,12,13
 505 265 505 265 671.255371094 265.180175781 c 0,14,15
 790.364558291 264.999446842 790.364558291 264.999446842 805.368164062 395.224609375 c 2,16,-1
 836.221679688 663.020507812 l 1,17,-1
 1031.13476562 663.020507812 l 1,18,-1
 1060.71777344 394.262695312 l 2,19,20
 1075 265 1075 265 1188.75244141 264.740234375 c 0,21,22
 1334 265 1334 265 1333.390625 496.155273438 c 0,23,24
 1333.00177468 599.528215894 1333.00177468 599.528215894 1270.63867188 713.975585938 c 2,25,-1
 1246.28125 758.67578125 l 1,26,-1
 1476.39746094 849.501953125 l 1,27,-1
 1496.90917969 821.415039062 l 2,28,29
 1588 697 1588 697 1588.03515625 459.23828125 c 0,30,31
 1588 222 1588 222 1439.49609375 89.7314453125 c 0,32,33
 1336 -2 1336 -2 1169.99961616 -1.997790965 c 128,-1,34
 1004 -2 1004 -2 925.171875 104.27734375 c 1,35,36
 844 -2 844 -2 655.285644531 -0.98193359375 c 0,37,38
 467 -0 467 -0 362.967773438 118.606445312 c 1,0,1
EndSplineSet
EndChar
StartChar: uniFEB4
Encoding: 65204 65204 193
Width: 1623
VWidth: 2299
GlyphClass: 2
Flags: W
AnchorPoint: "Anchor-10" 671.088 1047.9 basechar 0
AnchorPoint: "Anchor-7" 729.168 -207.16 basechar 0
LayerCount: 2
Fore
SplineSet
1349.95117188 90.880859375 m 1,0,1
 1281 1 1281 1 1117.6009182 1.0556640625 c 0,2,3
 954 1 954 1 872.126953125 99.7216796875 c 1,4,5
 796 1 796 1 614.623046875 1.0556640625 c 0,6,7
 433 1 433 1 345.041015625 103.295898438 c 1,8,9
 248 0 248 0 76.2509765625 0 c 2,10,-1
 -17.41015625 0 l 1,11,-1
 -17.41015625 271 l 1,12,-1
 38.484375 271.001953125 l 1,13,14
 153 272 153 272 193.064453125 330.962890625 c 0,15,16
 212.969766912 359.955964013 212.969766912 359.955964013 219.677734375 406.896484375 c 2,17,-1
 254.038085938 647.340820312 l 1,18,-1
 434.088867188 647.340820312 l 1,19,-1
 464.034179688 434.34765625 l 2,20,21
 477 344 477 344 514.176757812 305.162109375 c 0,22,23
 552 267 552 267 613.348632812 266.799804688 c 0,24,25
 675 267 675 267 704.858886719 295.078613281 c 0,26,27
 734.440508279 322.406954039 734.440508279 322.406954039 742.772460938 386.423828125 c 2,28,-1
 776.731445312 647.340820312 l 1,29,-1
 967.259765625 647.340820312 l 1,30,-1
 998.1953125 388.396484375 l 2,31,32
 1010 287 1010 287 1078.34863281 270.935546875 c 0,33,34
 1198.55810364 243.102316425 1198.55810364 243.102316425 1215.87304688 397.954101562 c 2,35,-1
 1243.83398438 648.015625 l 1,36,-1
 1438.31738281 648.015625 l 1,37,-1
 1466.6015625 394.607421875 l 2,38,39
 1474 329 1474 329 1509.31542969 300.7265625 c 0,40,41
 1545.05822883 271.953125 1545.05822883 271.953125 1622.49121094 271.953125 c 2,42,-1
 1631.36328125 271.953125 l 5,43,-1
 1631.36328125 0 l 5,44,-1
 1575.19335938 0 l 2,45,46
 1429 0 1429 0 1349.95117188 90.880859375 c 1,0,1
EndSplineSet
EndChar
StartChar: uniFEBA
Encoding: 65210 65210 199
Width: 2665
VWidth: 2393
GlyphClass: 2
Flags: W
AnchorPoint: "Anchor-10" 654.816 972.991 basechar 0
AnchorPoint: "Anchor-7" 547.364 -729.28 basechar 0
LayerCount: 2
Fore
SplineSet
1677.48242188 289.618164062 m 1,0,-1
 1784.30566406 289.618164062 l 2,1,2
 2045.31987626 290.293359438 2045.31987626 290.293359438 2098.97243813 305.868359406 c 0,3,4
 2216.55286369 340.001214589 2216.55286369 340.001214589 2216.73163953 454.327762602 c 0,5,6
 2216.9625108 601.969170147 2216.9625108 601.969170147 2084.04492188 601.968261719 c 0,7,8
 1931.11856245 601.96721654 1931.11856245 601.96721654 1677.48242188 289.618164062 c 1,0,-1
2627.87304688 -6 m 2,9,10
 2433 -6 2433 -6 2318.65820312 103.017578125 c 1,11,12
 2223 37 2223 37 2079.04827035 14.8213667643 c 0,13,14
 1935.2142135 -6.96754954887 1935.2142135 -6.96754954887 1752.98632812 -6.828125 c 2,15,-1
 1751.70996094 -6.8271484375 l 2,16,17
 1747.80693924 -6.88022833299 1747.80693924 -6.88022833299 1728.33984375 -6.7353515625 c 2,18,-1
 1629.39941406 -5.9990234375 l 2,19,20
 1509 -5 1509 -5 1441.82324219 40.044921875 c 1,21,22
 1420 -217 1420 -217 1250.45605469 -350 c 0,23,24
 1074 -488 1074 -488 756.655811245 -487.124734214 c 0,25,26
 439 -486 439 -486 265.5 -326.5 c 128,-1,27
 92 -167 92 -167 91.90234375 139.111328125 c 0,28,29
 92.0002827134 311.497615174 92.0002827134 311.497615174 171.625976562 543.620117188 c 2,30,-1
 186.315429688 586.442382812 l 1,31,-1
 451.213867188 529.53515625 l 1,32,-1
 432.880859375 475.344726562 l 2,33,34
 367 281 367 281 366.5 117.5 c 128,-1,35
 366 -46 366 -46 464 -130 c 128,-1,36
 562 -214 562 -214 781 -214 c 128,-1,37
 1000 -214 1000 -214 1099.40039062 -132.4609375 c 128,-1,38
 1199 -51 1199 -51 1198.26074219 119.502929688 c 0,39,40
 1198.00052546 297.640285939 1198.00052546 297.640285939 1132.83398438 548.85546875 c 2,41,-1
 1119.46777344 600.381835938 l 1,42,-1
 1384.24804688 657.091796875 l 1,43,-1
 1394.49804688 602.35546875 l 6,44,45
 1430 413 1430 413 1440.73535156 393.233398438 c 1,46,47
 1786 880 1786 880 2094.12304688 880.103515625 c 0,48,49
 2288 880 2288 880 2390.27783203 763.541503906 c 0,50,51
 2489 652 2489 652 2487.40136719 438.204101562 c 0,52,53
 2487 390 2487 390 2471.95019531 328.936523438 c 1,54,55
 2529.84752731 278.133789062 2529.84752731 278.133789062 2655.53417969 278.133789062 c 2,56,-1
 2681.75585938 278.133789062 l 1,57,-1
 2681.75585938 -6 l 1,58,-1
 2627.87304688 -6 l 2,9,10
EndSplineSet
EndChar
StartChar: uniFEBB
Encoding: 65211 65211 200
Width: 1606
VWidth: 2393
GlyphClass: 2
Flags: W
AnchorPoint: "Anchor-10" 590.482 1177.67 basechar 0
AnchorPoint: "Anchor-7" 568.643 -200.479 basechar 0
LayerCount: 2
Fore
SplineSet
473.78515625 438.129882812 m 5,0,1
 819 922 819 922 1121.38085938 922.103515625 c 4,2,3
 1316 922 1316 922 1414.22363281 807.392578125 c 4,4,5
 1512 693 1512 693 1508.64746094 486.448242188 c 4,6,7
 1504 196 1504 196 1298.10839844 81.0224609375 c 0,8,9
 1148.59750631 -3.66156819263 1148.59750631 -3.66156819263 755.627929688 -0.7353515625 c 2,10,-1
 656.61328125 0.001953125 l 2,11,12
 461 1 461 1 346.232421875 142.9296875 c 1,13,14
 218 0 218 0 33.4609375 0 c 2,15,-1
 -13.6220703125 0 l 1,16,-1
 -13.6220703125 320.243164062 l 5,17,-1
 1.2109375 320.243164062 l 6,18,19
 89 320 89 320 138.303710938 367.155273438 c 4,20,21
 187.848707477 413.85738861 187.848707477 413.85738861 202.685546875 520.504882812 c 6,22,-1
 229.2265625 711.282226562 l 5,23,-1
 430.95703125 711.282226562 l 5,24,-1
 455.749023438 506.793945312 l 6,25,26
 461 464 461 464 473.78515625 438.129882812 c 5,0,1
692.129882812 331.618164062 m 5,27,-1
 811.559570312 331.618164062 l 6,28,29
 1072.50130469 332.005193139 1072.50130469 332.005193139 1154.69335938 360.954101562 c 4,30,31
 1240 391 1240 391 1247.57910156 462.396484375 c 4,32,33
 1267 656 1267 656 1110.67578125 655.96875 c 4,34,35
 953 656 953 656 692.129882812 331.618164062 c 5,27,-1
EndSplineSet
EndChar
StartChar: uniFEBC
Encoding: 65212 65212 201
Width: 1691
VWidth: 2438
GlyphClass: 2
Flags: W
AnchorPoint: "Anchor-10" 684.328 1208.16 basechar 0
AnchorPoint: "Anchor-7" 658.919 -235.622 basechar 0
LayerCount: 2
Fore
SplineSet
692.315429688 284.35546875 m 1,0,-1
 811.83984375 284.35546875 l 2,1,2
 1109.36706297 284.784973957 1109.36706297 284.784973957 1143.37103148 294.371490885 c 0,3,4
 1210.68369428 313.348510612 1210.68369428 313.348510612 1233.5605847 355.471215209 c 0,5,6
 1249.69873634 385.186031442 1249.69873634 385.186031442 1249.60522755 467.707273533 c 128,-1,7
 1249.51171875 550.228515625 1249.51171875 550.228515625 1219.01367188 587.053710938 c 128,-1,8
 1188.51660156 623.87890625 1188.51660156 623.87890625 1118.64404297 623.876464844 c 128,-1,9
 1048.77148438 623.874023438 1048.77148438 623.874023438 938.962890625 539.541992188 c 128,-1,10
 829.153320312 455.2109375 829.153320312 455.2109375 692.315429688 284.35546875 c 1,0,-1
475.254882812 389.015625 m 1,11,12
 822 886 822 886 1121.51269531 885.83984375 c 0,13,14
 1387 886 1387 886 1472.51171875 676.087890625 c 0,15,16
 1513 578 1513 578 1508.89355469 438.69921875 c 0,17,18
 1507 379 1507 379 1496.43261719 326.797851562 c 1,19,20
 1566.41167868 272.681640625 1566.41167868 272.681640625 1680.29296875 272.681640625 c 2,21,-1
 1701.51464844 272.681640625 l 5,22,-1
 1701.51464844 0.5498046875 l 5,23,-1
 1656.74023438 0.5498046875 l 2,24,25
 1455 1 1455 1 1352.90917969 105.576171875 c 1,26,27
 1183 -4 1183 -4 780.182617188 -0.08984375 c 0,28,29
 769 0 769 0 756.052734375 0 c 2,30,-1
 656.947265625 0.7373046875 l 2,31,32
 461 2 461 2 346.2421875 142.940429688 c 1,33,34
 218 0 218 0 33.4609375 0 c 2,35,-1
 -13.6220703125 0 l 1,36,-1
 -13.6220703125 272.243164062 l 1,37,-1
 -4.7890625 272.243164062 l 2,38,39
 89 272 89 272 138.303710938 319.155273438 c 0,40,41
 187.848707477 365.85738861 187.848707477 365.85738861 202.685546875 472.504882812 c 2,42,-1
 229.2265625 663.282226562 l 1,43,-1
 430.8125 663.282226562 l 1,44,-1
 456.647460938 456.87109375 l 2,45,46
 462 415 462 415 475.254882812 389.015625 c 1,11,12
EndSplineSet
EndChar
StartChar: uniFEC1
Encoding: 65217 65217 233
Width: 1450
VWidth: 2237
GlyphClass: 2
Flags: W
AnchorPoint: "Anchor-7" 584.72 -300 basechar 0
AnchorPoint: "Anchor-10" 287.72 1518.47 basechar 0
LayerCount: 2
Fore
SplineSet
592.821 292.009 m 1,0,-1
 688.264 292.009 l 2,1,2
 857.683 292.009 857.683 292.009 996.599 356.518 c 0,3,4
 1119.21 413.459 1119.21 413.459 1135.05 506.083 c 1,5,6
 1143.15 562.117 1143.15 562.117 1121.55 592.084 c 128,-1,7
 1099.82 622.24 1099.82 622.24 1044.17 631.907 c 0,8,9
 936.102 650.197 936.102 650.197 823.284 556.772 c 1,10,11
 695.652 448.214 695.652 448.214 592.821 292.009 c 1,0,-1
746.048 0 m 2,12,-1
 1.75 0 l 1,13,-1
 1.75 280.979 l 1,14,-1
 156.28 280.979 l 1,15,-1
 156.28 1398.89 l 1,16,-1
 424.16 1398.89 l 1,17,-1
 424.16 497.204 l 1,18,19
 600.75 772.9 600.75 772.9 828.852 880.447 c 0,20,21
 1008.61 964.697 1008.61 964.697 1194.08 886.267 c 0,22,23
 1297.31 842.221 1297.31 842.221 1348.04 742.36 c 128,-1,24
 1398.76 642.499 1398.76 642.499 1398.76 497.639 c 0,25,26
 1398.76 285.411 1398.76 285.411 1211.88 146.764 c 0,27,28
 1014.58 0 1014.58 0 746.048 0 c 2,12,-1
EndSplineSet
EndChar
StartChar: uniFEC2
Encoding: 65218 65218 234
Width: 1599
VWidth: 2237
GlyphClass: 2
Flags: W
AnchorPoint: "Anchor-7" 728.13 -303.814 basechar 0
AnchorPoint: "Anchor-10" 320.67 1528.79 basechar 0
LayerCount: 2
Fore
SplineSet
1187.50912804 534.709087003 m 0,0,1
 1187.50912804 634.901685648 1187.50912804 634.901685648 1058.906559 634.901685648 c 0,2,3
 967.881014904 634.901685648 967.881014904 634.901685648 873.534179688 556.772460938 c 1,4,5
 745.903320312 448.213867188 745.903320312 448.213867188 643.071289062 292.008789062 c 1,6,-1
 738.513671875 292.008789062 l 2,7,8
 907.931640625 292.008789062 907.931640625 292.008789062 1038.69580078 352.733886719 c 0,9,10
 1187.50912804 421.840772116 1187.50912804 421.840772116 1187.50912804 534.709087003 c 0,0,1
1421.75 351.787109375 m 1,11,12
 1469.84821209 281.379882812 1469.84821209 281.379882812 1578.09960938 281.379882812 c 2,13,-1
 1619.90039062 281.379882812 l 1,14,-1
 1619.90039062 0.5 l 1,15,-1
 1519.25 0.5 l 2,16,17
 1342 -1.37667655054e-14 1342 -1.37667655054e-14 1232.16015625 125.599609375 c 5,18,19
 1044 0 1044 0 796.297851562 0 c 2,20,-1
 46 0 l 1,21,-1
 46 280.98046875 l 1,22,-1
 205.530273438 280.98046875 l 1,23,-1
 205.530273438 1399.88964844 l 1,24,-1
 474.41015625 1399.88964844 l 1,25,-1
 474.41015625 497.581054688 l 1,26,27
 654 780 654 780 879.747070312 880.737304688 c 0,28,29
 984.623208947 927.428421356 984.623208947 927.428421356 1077.63102512 927.428421356 c 128,-1,30
 1170.63884129 927.428421356 1170.63884129 927.428421356 1253.12011719 890.415039062 c 0,31,32
 1449 803 1449 803 1449.00976562 497.638671875 c 0,33,34
 1449 420 1449 420 1421.75 351.787109375 c 1,11,12
EndSplineSet
EndChar
StartChar: uniFEC3
Encoding: 65219 65219 208
Width: 1358
VWidth: 2438
GlyphClass: 2
Flags: W
AnchorPoint: "Anchor-10" 284.745 1695.08 basechar 0
AnchorPoint: "Anchor-7" 488.394 -235.622 basechar 0
LayerCount: 2
Fore
SplineSet
443.778320312 284.35546875 m 1,0,-1
 563.1640625 284.35546875 l 2,1,2
 722.731445312 284.768554688 722.731445312 284.768554688 817.012695312 292.825195312 c 0,3,4
 1001.36523438 308.577148438 1001.36523438 308.577148438 1001.56347656 440.291015625 c 0,5,6
 1001.81835938 608.711914062 1001.81835938 608.711914062 874.021484375 608.708984375 c 0,7,8
 704.46875 608.703125 704.46875 608.703125 443.778320312 284.35546875 c 1,0,-1
437.737304688 652.884765625 m 1,9,10
 663 872 663 872 864.350585938 870.723632812 c 0,11,12
 1066 869 1066 869 1165.12109375 756.5 c 0,13,14
 1263 645 1263 645 1260.26855469 439.108398438 c 0,15,16
 1257 185 1257 185 1057.69921875 78.412109375 c 0,17,18
 897 -8 897 -8 531.53515625 -0.08984375 c 0,19,20
 527 0 527 0 522.62109375 0 c 2,21,-1
 -15.1396484375 0 l 1,22,-1
 -15.1396484375 272.102539062 l 1,23,-1
 133.650390625 272.248046875 l 1,24,25
 155 307 155 307 178.783203125 341.032226562 c 1,26,-1
 178.783203125 1523.81542969 l 1,27,-1
 437.737304688 1523.81542969 l 1,28,-1
 437.737304688 652.884765625 l 1,9,10
EndSplineSet
EndChar
StartChar: uniFEC4
Encoding: 65220 65220 209
Width: 1454
VWidth: 2438
GlyphClass: 2
Flags: W
AnchorPoint: "Anchor-10" 326.112 1672.67 basechar 0
AnchorPoint: "Anchor-7" 569.839 -253.193 basechar 0
LayerCount: 2
Fore
SplineSet
461.533203125 691.06640625 m 1,0,1
 687 913 687 913 888.661132812 912.958007812 c 0,2,3
 1091 913 1091 913 1190.0859375 797.1875 c 0,4,5
 1291 680 1291 680 1284.05371094 476.619140625 c 0,6,7
 1282 417 1282 417 1269.79882812 365.350585938 c 1,8,9
 1316.33367796 320.6796875 1316.33367796 320.6796875 1436.3359375 320.6796875 c 2,10,-1
 1464.90429688 320.6796875 l 1,11,-1
 1464.90429688 0.5478515625 l 1,12,-1
 1371.63476562 0.5478515625 l 2,13,14
 1220 1 1220 1 1116.37988281 97.8310546875 c 1,15,16
 962.29676567 -0.00195312499998 962.29676567 -0.00195312499998 537.866210938 -0.001953125 c 6,17,-1
 -15.34375 -0.001953125 l 1,18,-1
 -15.34375 320.100585938 l 1,19,-1
 157.446289062 320.24609375 l 1,20,21
 168 343 168 343 178.579101562 365.030273438 c 1,22,-1
 178.579101562 1503.81347656 l 1,23,-1
 461.533203125 1503.81347656 l 1,24,-1
 461.533203125 691.06640625 l 1,0,1
467.57421875 322.353515625 m 1,25,-1
 587.078125 322.353515625 l 2,26,27
 788.169654813 322.019642002 788.169654813 322.019642002 866.776367188 330.088867188 c 0,28,29
 1051 349 1051 349 1020.99609375 541.3359375 c 0,30,31
 1005 647 1005 647 880.510742188 646.797851562 c 0,32,33
 811 647 811 647 704.700195312 566.1484375 c 0,34,35
 599 485 599 485 467.57421875 322.353515625 c 1,25,-1
EndSplineSet
EndChar
StartChar: uniFECA
Encoding: 65226 65226 242
Width: 1189
VWidth: 2186
GlyphClass: 2
Flags: W
AnchorPoint: "Anchor-10" 568 1116.5 basechar 0
AnchorPoint: "Anchor-7" 278.69 -662.64 basechar 0
LayerCount: 2
Fore
SplineSet
747.884765625 653.0078125 m 1,0,1
 677.04296875 662.087890625 677.04296875 662.087890625 614.112304688 662.087890625 c 128,-1,2
 551.180664062 662.087890625 551.180664062 662.087890625 486.44921875 653.439453125 c 1,3,4
 541.083007812 610.619140625 541.083007812 610.619140625 617.442382812 556.50390625 c 1,5,6
 693.743164062 610.56640625 693.743164062 610.56640625 747.884765625 653.0078125 c 1,0,1
638.216796875 -255.768554688 m 0,7,8
 833.99989971 -255.999999881 833.99989971 -255.999999881 1018.74023438 -166.427734375 c 2,9,-1
 1091.99023438 -130.912109375 l 1,10,-1
 1091.99023438 -408.954101562 l 1,11,-1
 1066.36230469 -423.65234375 l 2,12,13
 1025 -447 1025 -447 979.149414062 -463.00390625 c 0,14,15
 931 -480 931 -480 876.017578125 -490.299804688 c 0,16,17
 821 -501 821 -501 758.158203125 -506.073242188 c 0,18,19
 696 -511 696 -511 624.448242188 -511.21484375 c 0,20,21
 221 -511 221 -511 91.912109375 -266.833984375 c 0,22,23
 44 -177 44 -177 44.353515625 -68.2666015625 c 0,24,25
 44 190 44 190 287.2734375 373.536132812 c 0,26,27
 338 412 338 412 394.859375 443.934570312 c 1,28,29
 213 553 213 553 200.609375 624.497070312 c 0,30,31
 194 663 194 663 209.265625 699.862304688 c 0,32,33
 225 736 225 736 257.529296875 768.513671875 c 0,34,35
 391 899 391 899 599.907226562 898.950195312 c 0,36,37
 797 899 797 899 951.21875 767.827148438 c 0,38,39
 1002 725 1002 725 1005.4375 667.046875 c 0,40,41
 1013 546 1013 546 782.833007812 425.329101562 c 5,42,43
 888 281 888 281 1138.5 281.379882812 c 2,44,-1
 1209.70019531 281.379882812 l 1,45,-1
 1209.70019531 0.5 l 1,46,-1
 1134.62011719 0.5 l 2,47,48
 806 0 806 0 599.844726562 280.65625 c 1,49,50
 517 244 517 244 459.399414062 204.288085938 c 0,51,52
 402 165 402 165 369.913085938 124.004882812 c 0,53,54
 309 46 309 46 308.84375 -46.90234375 c 0,55,56
 309 -134 309 -134 364.815429688 -183.825195312 c 0,57,58
 423 -234 423 -234 551.07421875 -250.275390625 c 0,59,60
 565 -252 565 -252 579.609375 -253.323242188 c 0,61,62
 594 -255 594 -255 608.653320312 -255.15625 c 0,63,64
 623 -256 623 -256 638.216796875 -255.768554688 c 0,7,8
EndSplineSet
EndChar
StartChar: uniFECB
Encoding: 65227 65227 224
Width: 1059
VWidth: 2237
GlyphClass: 2
Flags: W
AnchorPoint: "Anchor-10" 433.265 1186.23 basechar 0
AnchorPoint: "Anchor-7" 402.6 -207.5 basechar 0
LayerCount: 2
Fore
SplineSet
171.498046875 281.000976562 m 1,0,1
 96 392 96 392 95.9977631975 503.383993487 c 0,2,3
 96 737 96 737 283.192382812 866.584960938 c 0,4,5
 395 944 395 944 537.487988664 943.756733159 c 0,6,7
 760.410826858 944.000449147 760.410826858 944.000449147 881.794921875 801.41796875 c 2,8,-1
 902.619140625 776.95703125 l 1,9,-1
 811 578 l 1,10,11
 703 679 703 679 567.80078125 678.357421875 c 0,12,13
 501 678 501 678 454.154296875 651.928710937 c 0,14,15
 407 626 407 626 386.440871556 591.829611335 c 0,16,17
 366 558 366 558 365.908110301 495.870880598 c 0,18,19
 366 361 366 361 568.405273438 313.055664062 c 1,20,-1
 968 398.482421875 l 1,21,-1
 968 111.399414062 l 1,22,-1
 924.444335938 104.97265625 l 2,23,24
 836 92 836 92 715.980014372 60.8243597997 c 0,25,26
 596 30 596 30 536.031772184 14.8448676122 c 0,27,28
 475.914255265 -0.0212032593835 475.914255265 -0.0212032593835 356.354492188 -0.015625 c 2,29,-1
 -20.400390625 0.001953125 l 5,30,-1
 -20.400390625 280.974609375 l 5,31,-1
 171.498046875 281.000976562 l 1,0,1
EndSplineSet
EndChar
StartChar: uniFECC
Encoding: 65228 65228 225
Width: 932
VWidth: 2237
GlyphClass: 2
Flags: W
AnchorPoint: "Anchor-10" 464.58 1116.5 basechar 0
AnchorPoint: "Anchor-7" 449.58 -207.5 basechar 0
LayerCount: 2
Fore
SplineSet
511.200195312 542.46484375 m 1,0,1
 495.785407568 544.002929688 495.785407568 544.002929688 476.424161636 544.002929688 c 128,-1,2
 457.062915705 544.002929688 457.062915705 544.002929688 441.647460938 542.465820312 c 1,3,4
 456.325195312 530.545898438 456.325195312 530.545898438 476.421875 516.110351562 c 1,5,6
 496.517578125 530.54296875 496.517578125 530.54296875 511.200195312 542.46484375 c 1,0,1
40.8603515625 0 m 2,7,-1
 -21.400390625 0 l 1,8,-1
 -21.400390625 280.981445312 l 1,9,-1
 17.31640625 280.98046875 l 2,10,11
 195 281 195 281 288.754882812 348.737304688 c 1,12,13
 124 439 124 439 83.8466796875 508.31640625 c 0,14,15
 70 532 70 532 70.1875 556.9609375 c 0,16,17
 70 683 70 683 247.237304688 766.173828125 c 0,18,19
 345 812 345 812 472 812 c 128,-1,20
 599 812 599 812 696.453125 766.18359375 c 0,21,22
 875.337255314 682.775287986 875.337255314 682.775287986 876.729492188 560.715820312 c 0,23,24
 877 537 877 537 863.040039063 510.773506731 c 0,25,26
 828 443 828 443 651.073242188 348.440429688 c 1,27,28
 741.424345634 278.343288226 741.424345634 278.343288226 902.861328125 280.93359375 c 0,29,30
 907 281 907 281 911.313476562 280.977539062 c 2,31,-1
 951.559570312 281.909179688 l 5,32,-1
 951.559570312 0.5 l 5,33,-1
 888.348632812 0.5 l 1,34,-1
 886.703125 0.498046875 l 2,35,36
 635 0 635 0 465.359375 144.594726562 c 1,37,38
 288 0 288 0 40.8603515625 0 c 2,7,-1
EndSplineSet
EndChar
StartChar: uniFEDA
Encoding: 65242 65242 231
Width: 1978
VWidth: 2304
GlyphClass: 2
Flags: W
AnchorPoint: "Anchor-10" 656.984 1477.69 basechar 0
AnchorPoint: "Anchor-7" 869.24 -189.736 basechar 0
LayerCount: 2
Fore
SplineSet
1185.61328125 1342.69726562 m 5,0,-1
 1185.61328125 1195.5625 l 5,1,-1
 1143.84277344 1192.55664062 l 6,2,3
 1020.50878906 1183.68164062 1020.50878906 1183.68164062 974.7578125 1138.03417969 c 4,4,5
 970.416015625 1133.70214844 970.416015625 1133.70214844 969.182617188 1115.03710938 c 132,-1,6
 967.94921875 1096.37207031 967.94921875 1096.37207031 990.818359375 1088.41503906 c 132,-1,7
 1013.6875 1080.45898438 1013.6875 1080.45898438 1065.72167969 1072.80566406 c 4,8,9
 1195.41308594 1053.73046875 1195.41308594 1053.73046875 1195.41308594 928.387695312 c 132,-1,10
 1195.41308594 803.045898438 1195.41308594 803.045898438 1073.61132812 734.165039062 c 132,-1,11
 951.80859375 665.28515625 951.80859375 665.28515625 755.017578125 698.541015625 c 6,12,-1
 717.516601562 704.87890625 l 5,13,-1
 717.516601562 858.557617188 l 5,14,-1
 768.444335938 851.7890625 l 6,15,16
 830.498046875 843.54296875 830.498046875 843.54296875 886.59375 843.54296875 c 132,-1,17
 942.689453125 843.54296875 942.689453125 843.54296875 993.942382812 863.43359375 c 132,-1,18
 1045.1953125 883.325195312 1045.1953125 883.325195312 1045.1953125 908.411132812 c 132,-1,19
 1045.1953125 933.498046875 1045.1953125 933.498046875 980.84765625 943.987304688 c 4,20,21
 814.670898438 969.306640625 814.670898438 969.306640625 818.086914062 1126.47949219 c 4,22,23
 820.754882812 1234.35253906 820.754882812 1234.35253906 917.326171875 1283.25097656 c 132,-1,24
 1013.89648438 1332.1484375 1013.89648438 1332.1484375 1137.85253906 1339.76171875 c 6,25,-1
 1185.61328125 1342.69726562 l 5,0,-1
1869.3984375 0.5283203125 m 6,26,27
 1708 1 1708 1 1615.79296875 106.708984375 c 5,28,29
 1403 -6 1403 -6 922 3.5 c 4,30,31
 647 9 647 9 515 45.5 c 4,32,33
 131.208007812 151.666015625 131.208007812 151.666015625 91.38671875 519.211914062 c 4,34,35
 77.0087890625 650.916992188 77.0087890625 650.916992188 130.388671875 800.262695312 c 6,36,-1
 143.4296875 836.749023438 l 5,37,-1
 390.16015625 788.216796875 l 5,38,39
 350 617 350 617 357.549804688 551.49609375 c 4,40,41
 370.556640625 452.357421875 370.556640625 452.357421875 439 388 c 4,42,43
 553 281 553 281 885.046875 271.868164062 c 4,44,45
 957 270 957 270 1018.5 270 c 4,46,47
 1435.70410156 270 1435.70410156 270 1519.16796875 398.913085938 c 4,48,49
 1537.5703125 426.359375 1537.5703125 426.359375 1540.76660156 463.740234375 c 6,50,-1
 1544.66210938 509.3046875 l 5,51,-1
 1544.66210938 1471.4140625 l 5,52,-1
 1807.10058594 1471.4140625 l 5,53,-1
 1807.10058594 475.875976562 l 5,54,55
 1806 382 1806 382 1786.05664062 319.0625 c 5,56,57
 1833.57617188 271.424804688 1833.57617188 271.424804688 1931.54394531 271.424804688 c 6,58,-1
 1998.56054688 271.424804688 l 5,59,-1
 1998.56054688 0.5283203125 l 5,60,-1
 1869.3984375 0.5283203125 l 6,26,27
EndSplineSet
EndChar
StartChar: uniFEDB
Encoding: 65243 65243 232
Width: 943
VWidth: 2304
GlyphClass: 2
Flags: W
AnchorPoint: "Anchor-10" 224.288 1490.89 basechar 0
AnchorPoint: "Anchor-7" 324.08 -196.6 basechar 0
LayerCount: 2
Fore
SplineSet
702.026367188 173.9375 m 0,0,1
 591.751953125 0 591.751953125 0 312.147460938 0 c 2,2,-1
 -60.54296875 0 l 1,3,-1
 -60.54296875 270.999023438 l 1,4,-1
 268.5234375 271.028320312 l 2,5,6
 335.064453125 271.022460938 335.064453125 271.022460938 384.471679688 279.083984375 c 0,7,8
 425.762695312 285.8203125 425.762695312 285.8203125 452.42578125 296.1875 c 128,-1,9
 479.088867188 306.553710938 479.088867188 306.553710938 492 320.241210938 c 128,-1,10
 504.911132812 333.927734375 504.911132812 333.927734375 508.833007812 351.484375 c 128,-1,11
 512.75390625 369.041992188 512.75390625 369.041992188 508.561523438 390.16015625 c 0,12,13
 496.506835938 461.981445312 496.506835938 461.981445312 388.284179688 564.034179688 c 128,-1,14
 280.061523438 666.086914062 280.061523438 666.086914062 77.22265625 784.841796875 c 0,15,16
 -25.447265625 846.16015625 -25.447265625 846.16015625 -26.0986328125 985.967773438 c 0,17,18
 -26.0380859375 1056.08691406 -26.0380859375 1056.08691406 10.8798828125 1110.42773438 c 128,-1,19
 47.7978515625 1164.76855469 47.7978515625 1164.76855469 115.594726562 1197.71191406 c 2,20,-1
 912.3515625 1584.86425781 l 1,21,-1
 912.3515625 1307.01855469 l 1,22,-1
 259.4140625 992.672851562 l 1,23,24
 534.7578125 791.420898438 534.7578125 791.420898438 596.686523438 722.513671875 c 0,25,26
 726.1328125 581.620117188 726.1328125 581.620117188 754.159179688 443.963867188 c 128,-1,27
 782.186523438 306.30859375 782.186523438 306.30859375 702.026367188 173.9375 c 0,0,1
EndSplineSet
EndChar
StartChar: uniFEDC
Encoding: 65244 65244 233
Width: 992
VWidth: 2304
GlyphClass: 2
Flags: W
AnchorPoint: "Anchor-10" 276.736 1461.32 basechar 0
AnchorPoint: "Anchor-7" 384.976 -266.296 basechar 0
LayerCount: 2
Fore
SplineSet
982.756835938 0.5283203125 m 2,0,1
 791.38671875 0.5283203125 791.38671875 0.5283203125 698.548828125 113.810546875 c 1,2,3
 575 0 575 0 356.147460938 0 c 2,4,-1
 -16.54296875 0 l 1,5,-1
 -16.54296875 270.999023438 l 1,6,-1
 312.520507812 271.028320312 l 2,7,8
 486 271 486 271 533.237304688 317.920898438 c 0,9,10
 560 344 560 344 552.51953125 390.416992188 c 0,11,12
 541 465 541 465 432.70703125 566.719726562 c 0,13,14
 334.637695312 658.9375 334.637695312 658.9375 121.327148438 784.779296875 c 0,15,16
 18 846 18 846 17.8994140625 987.170898438 c 0,17,18
 18 1128.90917969 18 1128.90917969 159.594726562 1197.71191406 c 2,19,-1
 956.3515625 1584.86425781 l 1,20,-1
 956.3515625 1307.01855469 l 1,21,-1
 303.323242188 992.62890625 l 1,22,23
 578 791 578 791 640.623046875 722.583007812 c 0,24,25
 759 593 759 593 815.874023438 411.665039062 c 0,26,27
 839 337 839 337 877.614257812 304.006835938 c 0,28,29
 915.505859375 271.424804688 915.505859375 271.424804688 975.010742188 271.424804688 c 2,30,-1
 1010.11523438 271.424804688 l 1,31,-1
 1010.11523438 0.5283203125 l 1,32,-1
 982.756835938 0.5283203125 l 2,0,1
EndSplineSet
EndChar
StartChar: uniFEDE
Encoding: 65246 65246 262
Width: 1402
VWidth: 2237
GlyphClass: 2
Flags: W
AnchorPoint: "Anchor-10" 453.5 1084.5 basechar 0
AnchorPoint: "Anchor-7" 292.34 -619.3 basechar 0
LayerCount: 2
Fore
SplineSet
918.4 423.123 m 1,0,-1
 918.4 1400.83 l 1,1,-1
 1186.28 1400.83 l 1,2,-1
 1186.28 456.31 l 2,3,4
 1186 359 1186 359 1224.91 320.004 c 0,5,6
 1263.61916214 281.38 1263.61916214 281.38 1343.72 281.38 c 2,7,-1
 1438.97 281.38 l 1,8,-1
 1438.97 0.5 l 1,9,-1
 1357.87 0.5 l 2,10,11
 1215 0 1215 0 1181.43 34.2842 c 5,12,13
 1157 -194 1157 -194 1039.90136719 -321.80859375 c 4,14,15
 900 -473 900 -473 620.640966489 -472.928787296 c 0,16,17
 363 -473 363 -473 208.086629252 -338.364893648 c 0,18,19
 40 -192 40 -192 40.5620357487 79.3668567052 c 0,20,21
 41 219 41 219 105.323 384.023 c 1,22,-1
 361.452 332.58 l 1,23,24
 311 162 311 162 310.506305836 87.1227134809 c 0,25,26
 311 -58 311 -58 399.098 -140.495 c 0,27,28
 466 -203 466 -203 615.069355003 -202.497458893 c 0,29,30
 755 -202 755 -202 819.942382812 -156.629882812 c 0,31,32
 919.048401643 -86.9659773693 919.048401643 -86.9659773693 918.83 84.8477 c 2,33,-1
 918.4 423.123 l 1,0,-1
EndSplineSet
EndChar
StartChar: uniFEDF
Encoding: 65247 65247 244
Width: 582
VWidth: 2237
GlyphClass: 2
Flags: W
AnchorPoint: "Anchor-10" 288.73 1506 basechar 0
AnchorPoint: "Anchor-7" 238.73 -190.5 basechar 0
LayerCount: 2
Fore
SplineSet
449.169921875 492.690429688 m 2,0,1
 449.169921875 248.12970966 449.169921875 248.12970966 333.084960938 124.06485483 c 128,-1,2
 217 0 217 0 61.7001953125 0 c 2,3,-1
 -61.400390625 0 l 1,4,-1
 -61.400390625 280.981445312 l 1,5,-1
 12.83984375 280.98046875 l 2,6,7
 88 281 88 281 134.145019531 338.721693677 c 128,-1,8
 180.290039062 396.443387353 180.290039062 396.443387353 180.290039062 505.530273438 c 2,9,-1
 180.290039062 1401.03027344 l 1,10,-1
 449.169921875 1401.03027344 l 1,11,-1
 449.169921875 492.690429688 l 2,0,1
EndSplineSet
EndChar
StartChar: uniFEE0
Encoding: 65248 65248 245
Width: 650
VWidth: 2237
GlyphClass: 2
Flags: W
AnchorPoint: "Anchor-10" 319.73 1487 basechar 0
AnchorPoint: "Anchor-7" 243.73 -188.5 basechar 0
LayerCount: 2
Fore
SplineSet
570.759765625 0 m 2,0,1
 422 0 422 0 325.999023438 85.2734375 c 1,2,3
 229 0 229 0 80.7001953125 -0 c 2,4,-1
 -20.400390625 0 l 5,5,-1
 -20.400390625 280.98046875 l 5,6,-1
 21.849609375 280.98046875 l 2,7,8
 109 281 109 281 150.145019531 320.136607671 c 128,-1,9
 191.290039062 359.273215341 191.290039062 359.273215341 191.290039062 456.309570312 c 2,10,-1
 191.290039062 1399.95996094 l 1,11,-1
 460.169921875 1399.95996094 l 1,12,-1
 460.169921875 456.309570312 l 2,13,14
 460 361 460 361 500.009819437 320.990234375 c 128,-1,15
 540.019531224 280.98046875 540.019531224 280.98046875 629.610351562 280.98046875 c 2,16,-1
 670.860351562 280.98046875 l 1,17,-1
 670.860351562 0 l 1,18,-1
 570.759765625 0 l 2,0,1
EndSplineSet
EndChar
StartChar: uniFEE2
Encoding: 65250 65250 239
Width: 1147
VWidth: 2304
GlyphClass: 2
Flags: W
AnchorPoint: "Anchor-10" 596.208 1167.75 basechar 0
AnchorPoint: "Anchor-7" 221.719 -631.798 basechar 0
LayerCount: 2
Fore
SplineSet
646.06640625 522.7265625 m 4,0,1
 543.783203125 520.993164062 543.783203125 520.993164062 543.77734375 367.799804688 c 4,2,3
 543.775390625 333.21875 543.775390625 333.21875 543.760742188 312.146484375 c 5,4,5
 804.008789062 243.159179688 804.008789062 243.159179688 814.236328125 277.325195312 c 132,-1,6
 824.462890625 311.490234375 824.462890625 311.490234375 786.4765625 396.745117188 c 4,7,8
 726.786132812 524.309570312 726.786132812 524.309570312 646.06640625 522.7265625 c 4,0,1
1135.29589844 0 m 6,9,10
 1044 0 1044 0 964.45703125 58.9814453125 c 5,11,12
 869 0 869 0 700.895507812 23.625 c 4,13,14
 622 34 622 34 483.5 64.2109375 c 4,15,16
 445 73 445 73 420.676757812 59.69140625 c 4,17,18
 396 47 396 47 372.123046875 0.455078125 c 4,19,20
 348.391601562 -45.24609375 348.391601562 -45.24609375 348.391601562 -182.872070312 c 6,21,-1
 348.391601562 -539.616210938 l 5,22,-1
 91.095703125 -539.616210938 l 5,23,-1
 91.095703125 -168.087890625 l 6,24,25
 91 227 91 227 293.086914062 295.338867188 c 5,26,27
 286.048828125 568.095703125 286.048828125 568.095703125 439.5234375 706.223632812 c 4,28,29
 515 774 515 774 649.911132812 773.6484375 c 4,30,31
 785 774 785 774 893.063476562 660.338867188 c 4,32,33
 1001 547 1001 547 1049.75488281 328.212890625 c 4,34,35
 1063.33105469 269.967773438 1063.33105469 269.967773438 1119.45605469 269.967773438 c 6,36,-1
 1154.52832031 269.967773438 l 5,37,-1
 1154.52832031 0 l 5,38,-1
 1135.29589844 0 l 6,9,10
EndSplineSet
EndChar
StartChar: uniFEE3
Encoding: 65251 65251 240
Width: 984
VWidth: 2393
GlyphClass: 2
Flags: W
AnchorPoint: "Anchor-10" 411.291 1042.38 basechar 0
AnchorPoint: "Anchor-7" 417.881 -189.849 basechar 0
LayerCount: 2
Fore
SplineSet
265.520507812 85.19140625 m 1,0,1
 182 0 182 0 38.3056640625 0 c 2,2,-1
 -11.42578125 0 l 1,3,-1
 -11.42578125 272.243164062 l 1,4,-1
 39.8359375 272.241210938 l 2,5,6
 101 272 101 272 135 364 c 4,7,8
 215 582 215 582 311.645996094 698.547851562 c 0,9,10
 413 819 413 819 556.5 819 c 128,-1,11
 700 819 700 819 784 701 c 128,-1,12
 868 583 868 583 885.883789062 368.262695312 c 0,13,14
 887 355 887 355 887 329.5 c 0,15,16
 887 187 887 187 805.46484375 96.59375 c 0,17,18
 722 4 722 4 584.538085938 4.3427734375 c 0,19,20
 386 4 386 4 265.520507812 85.19140625 c 1,0,1
374.53125 302.552734375 m 1,21,22
 498 245 498 245 552.922851562 247.771484375 c 0,23,24
 601 250 601 250 625.166992188 277.368164062 c 0,25,26
 656 313 656 313 633.614257812 441.5234375 c 0,27,28
 613 555 613 555 553.990234375 554.610351562 c 0,29,30
 459 554 459 554 374.53125 302.552734375 c 1,21,22
EndSplineSet
EndChar
StartChar: uniFEE4
Encoding: 65252 65252 241
Width: 964
VWidth: 2304
GlyphClass: 2
Flags: W
AnchorPoint: "Anchor-10" 533.05 1095.42 basechar 0
AnchorPoint: "Anchor-7" 514.042 -196.072 basechar 0
LayerCount: 2
Fore
SplineSet
974.381835938 0.078125 m 1,0,1
 833 1 833 1 730.588867188 85.158203125 c 1,2,3
 652 4 652 4 523.609375 4.17578125 c 0,4,5
 333 4 333 4 217.609375 80.10546875 c 1,6,7
 138 0 138 0 -1.62890625 0 c 2,8,-1
 -13.87109375 0 l 1,9,-1
 -13.87109375 271.00390625 l 1,10,-1
 14.1923828125 271.000976562 l 2,11,12
 53.9988873364 270.996820961 53.9988873364 270.996820961 75 331 c 0,13,14
 154 553 154 553 254.604980469 675.079589844 c 0,15,16
 355 797 355 797 488.904296875 796.912109375 c 0,17,18
 579 797 579 797 647 752.5 c 0,19,20
 776 668 776 668 809.197265625 437.170898438 c 0,21,22
 822 347 822 347 858.19921875 309.040039062 c 0,23,24
 894.884740705 271.119140625 894.884740705 271.119140625 961.759765625 271.119140625 c 2,25,-1
 974.381835938 271.119140625 l 1,26,-1
 974.381835938 0.078125 l 1,0,1
327.33203125 297.978515625 m 1,27,28
 433 249 433 249 492.784179688 247.447753906 c 0,29,30
 539 246 539 246 557.1484375 265.750976562 c 0,31,32
 575 286 575 286 575.5 326.119140625 c 0,33,34
 576 369 576 369 565.498046875 422.120117188 c 0,35,36
 547 509 547 509 517.5 526.885742188 c 0,37,38
 465 558 465 558 399.478515625 457.217773438 c 0,39,40
 362 399 362 399 327.33203125 297.978515625 c 1,27,28
EndSplineSet
EndChar
StartChar: uniFEEA
Encoding: 65258 65258 247
Width: 1077
VWidth: 2304
GlyphClass: 2
Flags: W
AnchorPoint: "Anchor-10" 674.547 1221.18 basechar 0
AnchorPoint: "Anchor-7" 412.81 -196.6 basechar 0
LayerCount: 2
Fore
SplineSet
652.953125 406.009765625 m 1,0,-1
 642.596679688 602.0546875 l 1,1,2
 408 565 408 565 355.302734375 502.850585938 c 0,3,4
 331.911132812 475.737304688 331.911132812 475.737304688 349 444 c 0,5,6
 363 417 363 417 429.756835938 409.127929688 c 0,7,8
 540.338867188 393.99609375 540.338867188 393.99609375 652.953125 406.009765625 c 1,0,-1
1044.78320312 0 m 2,9,10
 797 0 797 0 709.50390625 174.021484375 c 1,11,12
 286 125 286 125 150.11328125 286.791015625 c 0,13,14
 93 354 93 354 91.58203125 455.680664062 c 0,15,16
 85 765 85 765 640.098632812 838.630859375 c 1,17,-1
 638.150390625 921.118164062 l 1,18,-1
 875.444335938 934.057617188 l 1,19,-1
 884.775390625 488.526367188 l 2,20,21
 887 371 887 371 930.189453125 321.133789062 c 0,22,23
 972.809570312 271.22265625 972.809570312 271.22265625 1064.8359375 271.024414062 c 2,24,-1
 1089.27441406 270.971679688 l 1,25,-1
 1089.27441406 0 l 1,26,-1
 1044.78320312 0 l 2,9,10
EndSplineSet
EndChar
StartChar: uniFEEB
Encoding: 65259 65259 256
Width: 1201
VWidth: 2237
GlyphClass: 2
Flags: W
AnchorPoint: "Anchor-10" 419.801 1307.23 basechar 0
AnchorPoint: "Anchor-7" 371.542 -177.946 basechar 0
LayerCount: 2
Fore
SplineSet
335.961914062 326.118164062 m 1,0,1
 462.230042435 377.745621669 462.230042435 377.745621669 509.956054688 458.981445312 c 0,2,3
 537.840345226 506.442505703 537.840345226 506.442505703 509.074091834 543.827164127 c 128,-1,4
 480.307838443 581.211822551 480.307838443 581.211822551 457.380481721 580.254837057 c 128,-1,5
 434.453125 579.297851562 434.453125 579.297851562 411.357421875 569.81640625 c 0,6,7
 316.815586636 531.029932457 316.815586636 531.029932457 301.419380715 403.108035044 c 0,8,9
 296.316300493 360.708257588 296.316300493 360.708257588 335.961914062 326.118164062 c 1,0,1
762.194335938 496.637695312 m 1,10,11
 757.867885422 356.86105692 757.867885422 356.86105692 649.883789062 258.614257812 c 1,12,13
 700.585760113 251.384366028 700.585760113 251.384366028 739.605558421 251.384366028 c 0,14,15
 856.329554746 251.384366028 856.329554746 251.384366028 868.203875507 314.414951042 c 128,-1,16
 880.078196268 377.445536057 880.078196268 377.445536057 762.194335938 496.637695312 c 1,10,11
364.022460938 75.2861328125 m 1,17,18
 189 0 189 0 7.6298828125 0 c 2,19,-1
 -20.400390625 0 l 1,20,-1
 -20.400390625 282.631835938 l 1,21,-1
 43.90234375 279.275390625 l 2,22,23
 49 279 49 279 80.609375 278.639648438 c 1,24,25
 59 334 59 334 58.9832174647 397.710997039 c 0,26,27
 59 548 59 548 146.786132812 660.689453125 c 0,28,29
 255 799 255 799 428.596679688 810.872070312 c 1,30,-1
 563.690429688 986.534179688 l 1,31,32
 713 888 713 888 843.286132812 763.62109375 c 0,33,34
 974 639 974 639 1033.68805849 558.218669805 c 0,35,36
 1094 477 1094 477 1107.13692586 414.883085167 c 0,37,38
 1121 353 1121 353 1120.55886756 311.500657026 c 0,39,40
 1121 220 1121 220 1071.55859375 152.084960938 c 0,41,42
 1001 54 1001 54 842.354492188 19.916015625 c 0,43,44
 767 4 767 4 691.046216754 3.77424203222 c 0,45,46
 530 4 530 4 364.022460938 75.2861328125 c 1,17,18
EndSplineSet
EndChar
StartChar: uniFEEC
Encoding: 65260 65260 249
Width: 1084
VWidth: 2438
GlyphClass: 2
Flags: W
AnchorPoint: "Anchor-7" 401.824 -618.907 basechar 0
AnchorPoint: "Anchor-10" 464.292 1137.37 basechar 0
LayerCount: 2
Fore
SplineSet
395.840820312 443.462890625 m 0,0,1
 395 364 395 364 395.912109375 320.686523438 c 1,2,-1
 423.73046875 321.046875 l 2,3,4
 491 322 491 322 535 381.5 c 0,5,6
 582 446 582 446 582.666015625 545.119140625 c 0,7,8
 583 608 583 608 568.138671875 636.361328125 c 0,9,10
 548 675 548 675 501.893554688 673.96484375 c 0,11,12
 399 671 399 671 395.840820312 443.462890625 c 0,0,1
166.302734375 320.294921875 m 1,13,14
 162 564 162 564 208.586914062 696.442382812 c 0,15,16
 286 914 286 914 505.0078125 917.72265625 c 0,17,18
 650 920 650 920 733.396484375 820.346679688 c 0,19,20
 817 720 817 720 816.642578125 562.02734375 c 0,21,22
 816 264 816 264 628.536132812 97.0419921875 c 4,23,24
 541 19 541 19 407.231445312 3.275390625 c 1,25,26
 411 -105 411 -105 436.962890625 -177.588867188 c 1,27,28
 485.612638781 -101.323682362 485.612638781 -101.323682362 621.522460938 40.75 c 4,29,30
 895 327 895 327 1061.4921875 321.334960938 c 2,31,-1
 1097.2734375 320.114257812 l 1,32,-1
 1097.2734375 1.5771484375 l 1,33,-1
 1076.48730469 0.3955078125 l 2,34,35
 911 -9 911 -9 800.310058594 -115.168945312 c 0,36,37
 715 -197 715 -197 550.99609375 -486 c 1,38,39
 359.602539062 -504 l 1,40,41
 272 -428 272 -428 218.614257812 -260.416015625 c 0,42,43
 188 -166 188 -166 172.802734375 0 c 1,44,-1
 -12.537109375 0 l 1,45,-1
 -12.537109375 320.231445312 l 1,46,-1
 166.302734375 320.294921875 l 1,13,14
EndSplineSet
EndChar
StartChar: uniFEEE
Encoding: 65262 65262 251
Width: 935
VWidth: 2438
GlyphClass: 2
Flags: W
AnchorPoint: "Anchor-10" 470.484 1206.36 basechar 0
AnchorPoint: "Anchor-7" 491.917 -692.751 basechar 0
LayerCount: 2
Fore
SplineSet
590.682617188 308.459960938 m 1,0,1
 581.392578125 588.935546875 581.392578125 588.935546875 472.69140625 588.935546875 c 0,2,3
 432.350585938 588.935546875 432.350585938 588.935546875 391.826171875 532.822265625 c 128,-1,4
 351.302734375 476.708984375 351.302734375 476.708984375 351.34765625 415.34765625 c 128,-1,5
 351.391601562 353.987304688 351.391601562 353.987304688 381.419921875 331.149414062 c 128,-1,6
 411.44921875 308.311523438 411.44921875 308.311523438 494.366210938 308.311523438 c 128,-1,7
 577.283203125 308.311523438 577.283203125 308.311523438 590.682617188 308.459960938 c 1,0,1
552.352539062 -0.923828125 m 1,8,9
 268 -2 268 -2 168.8671875 136.78515625 c 0,10,11
 103 230 103 230 103.017578125 408.04296875 c 0,12,13
 103 549 103 549 185.5859375 684.58203125 c 0,14,15
 323 911 323 911 530.15234375 865.75 c 0,16,17
 683 832 683 832 774.965820312 649.135742188 c 0,18,19
 832 536 832 536 844.389648438 319.98046875 c 1,20,-1
 945.091796875 320.959960938 l 1,21,-1
 945.091796875 0.5498046875 l 1,22,-1
 832.375976562 0.5498046875 l 1,23,24
 787 -167 787 -167 643.087890625 -292.672851562 c 4,25,26
 492.252614359 -425.777081062 492.252614359 -425.777081062 157.768554688 -465.842773438 c 2,27,-1
 115.716796875 -470.879882812 l 1,28,-1
 69.23828125 -157.225585938 l 1,29,-1
 117.58203125 -152.231445312 l 2,30,31
 487 -114 487 -114 552.352539062 -0.923828125 c 1,8,9
EndSplineSet
EndChar
StartChar: uniFEF0
Encoding: 65264 65264 253
Width: 1573
VWidth: 2438
GlyphClass: 2
Flags: W
AnchorPoint: "Anchor-10" 663.537 647.71 basechar 0
AnchorPoint: "Anchor-7" 438.628 -694.555 basechar 0
LayerCount: 2
Fore
SplineSet
1483.88964844 0.5693359375 m 1,0,1
 1501 -36 1501 -36 1501.48144531 -78.1875 c 0,2,3
 1501 -279 1501 -279 1234.51171875 -406.185546875 c 0,4,5
 968 -533 968 -533 620.241210938 -500.228515625 c 0,6,7
 97 -451 97 -451 96.939453125 54.5078125 c 0,8,9
 97 221 97 221 189.5390625 463.526367188 c 1,10,-1
 432 388 l 5,11,12
 365 183 365 183 364.883789062 90.0625 c 0,13,14
 365 -201 365 -201 757.703125 -201.629882812 c 0,15,16
 1061 -202 1061 -202 1208.10644531 -71.7958984375 c 0,17,18
 1244 -40 1244 -40 1245 -21 c 0,19,20
 1246 -0 1246 -0 1224.47851562 0.552734375 c 1,21,-1
 1008.12695312 0.7607421875 l 1,22,23
 917 11 917 11 881.690429688 219.115234375 c 0,24,25
 873 270 873 270 905.869140625 302.7421875 c 0,26,27
 918 315 918 315 940.88671875 320.241210938 c 1,28,-1
 1588.29785156 320.709960938 l 1,29,-1
 1588.29785156 0.537109375 l 1,30,-1
 1483.88964844 0.5693359375 l 1,0,1
EndSplineSet
EndChar
StartChar: uniFEFB
Encoding: 65275 65275 272
Width: 1171
VWidth: 2237
GlyphClass: 3
Flags: W
AnchorPoint: "Anchor-9" 903.69 1467 baselig 0
AnchorPoint: "Anchor-6" 832.69 -112.5 baselig 0
AnchorPoint: "Anchor-6" 195 -166 baselig 1
AnchorPoint: "Anchor-9" 186.5 1341.5 baselig 1
LayerCount: 2
Fore
SplineSet
358.06640625 266.713867188 m 1,0,1
 344.992403751 676.237941433 344.992403751 676.237941433 62.8525390625 1135.29589844 c 6,2,-1
 31.951171875 1185.57421875 l 5,3,-1
 271.473632812 1288.4375 l 5,4,-1
 295.137695312 1253.73046875 l 6,5,6
 580 835 580 835 613.348632812 315.708984375 c 1,7,8
 664 339 664 339 697.775390625 371.53515625 c 0,9,10
 731 404 731 404 748.896484375 450.244140625 c 0,11,12
 767 496 767 496 769.153320312 556.708007812 c 0,13,14
 776.749200801 719.620973648 776.749200801 719.620973648 776.951171875 977.411132812 c 2,15,-1
 777.282226562 1399.95996094 l 5,16,-1
 1045.13964844 1399.95996094 l 5,17,-1
 1045.03027344 938.870117188 l 2,18,19
 1045 526 1045 526 1020.59667969 420.044921875 c 0,20,21
 962 168 962 168 769.055664062 67.1962890625 c 0,22,23
 618 -12 618 -12 287.581054688 3.7607421875 c 0,24,25
 142.316592342 9.94395893061 142.316592342 9.94395893061 76.0478515625 30.8662109375 c 2,26,-1
 39.95703125 42.2607421875 l 1,27,-1
 43.1240234375 309.0078125 l 1,28,-1
 104.893554688 294.676757812 l 2,29,30
 252 261 252 261 358.06640625 266.713867188 c 1,0,1
EndSplineSet
LCarets2: 1 0
Ligature2: "'rlig' Required Ligatures in Arabic lookup 16 subtable" uniFEDF uniFE8E
EndChar
StartChar: uniFEFC
Encoding: 65276 65276 265
Width: 1421
VWidth: 2304
GlyphClass: 3
Flags: W
AnchorPoint: "Anchor-9" 1047.25 1538.66 baselig 0
AnchorPoint: "Anchor-6" 910.809 -160.944 baselig 0
AnchorPoint: "Anchor-6" 239.52 -217.44 baselig 1
AnchorPoint: "Anchor-9" 217.894 1445.15 baselig 1
LayerCount: 2
Fore
SplineSet
341.993164062 1318.67285156 m 2,0,1
 636.02734375 883.567382812 636.02734375 883.567382812 670.484375 330.622070312 c 1,2,3
 832 393 832 393 877.12109375 554.818359375 c 0,4,5
 912.422851562 690.805664062 912.422851562 690.805664062 912.588867188 1019.29589844 c 2,6,-1
 912.81640625 1470.51660156 l 1,7,-1
 1169.96875 1470.51660156 l 1,8,-1
 1169.96875 714.20703125 l 2,9,10
 1170 407 1170 407 1280.05175781 307.48828125 c 0,11,12
 1319.53515625 271.424804688 1319.53515625 271.424804688 1400.55859375 271.424804688 c 2,13,-1
 1431.73730469 271.424804688 l 5,14,-1
 1431.73730469 0.5283203125 l 1,15,-1
 1377.91210938 0.5283203125 l 1,16,17
 1164 2 1164 2 1060.64453125 170.829101562 c 0,18,19
 1027 226 1027 226 1007.52929688 297.745117188 c 1,20,21
 981 254 981 254 952.348632812 221.786132812 c 0,22,23
 753 1 753 1 391.78125 0.5283203125 c 0,24,25
 213.568359375 -0.0009765625 213.568359375 -0.0009765625 159.959960938 10.673828125 c 2,26,-1
 123.748046875 17.884765625 l 1,27,-1
 123.748046875 289.146484375 l 1,28,-1
 176.283203125 280.223632812 l 2,29,30
 337 253 337 253 428.245117188 263.720703125 c 1,31,32
 415.999023438 728.040039062 415.999023438 728.040039062 118.857421875 1206.32910156 c 2,33,-1
 91.244140625 1250.77636719 l 1,34,-1
 321.15234375 1349.51269531 l 1,35,-1
 341.993164062 1318.67285156 l 2,0,1
EndSplineSet
LCarets2: 1 0
Ligature2: "'rlig' Required Ligatures in Arabic lookup 16 subtable" uniFEE0 uniFE8E
EndChar
StartChar: arabic_2dots
Encoding: 65537 -1 267
Width: 438
VWidth: 2245
GlyphClass: 2
Flags: W
LayerCount: 2
Fore
SplineSet
418.80078125 194.258789062 m 6,0,-1
 470.704101562 142.35546875 l 6,1,2
 525.42578125 87.5732421875 525.42578125 87.5732421875 469.354492188 31.5029296875 c 6,3,-1
 417.479492188 -20.37109375 l 6,4,5
 363.893554688 -74.107421875 363.893554688 -74.107421875 312.629882812 -22.8427734375 c 6,6,-1
 259.435546875 30.3525390625 l 6,7,8
 202.286132812 87.712890625 202.286132812 87.712890625 257.725585938 143.149414062 c 6,9,-1
 308.760742188 194.182617188 l 6,10,11
 364 249 364 249 418.80078125 194.258789062 c 6,0,-1
126.80078125 194.258789062 m 2,12,-1
 178.704101562 142.35546875 l 2,13,14
 233.4260753 87.5734572352 233.4260753 87.5734572352 177.354492188 31.5029296875 c 2,15,-1
 125.479492188 -20.37109375 l 2,16,17
 71.8932332766 -74.1070650143 71.8932332766 -74.1070650143 20.6298828125 -22.8427734375 c 2,18,-1
 -32.564453125 30.3525390625 l 2,19,20
 -89.7135034232 87.7124463661 -89.7135034232 87.7124463661 -34.2744140625 143.149414062 c 2,21,-1
 16.7607421875 194.182617188 l 2,22,23
 72 249 72 249 126.80078125 194.258789062 c 2,12,-1
EndSplineSet
EndChar
StartChar: arabic_3dots
Encoding: 65538 -1 268
Width: 422
VWidth: 2162
GlyphClass: 2
Flags: W
LayerCount: 2
Fore
SplineSet
270.68788824 394.935099132 m 2,0,-1
 301.312116913 364.310870458 l 2,1,2
 308.473118438 357.149725076 308.473118438 357.149725076 313.88565154 349.507022435 c 128,-1,3
 319.31934836 341.834435817 319.31934836 341.834435817 322.84934339 333.989097685 c 0,4,5
 324.028334035 331.368816301 324.028334035 331.368816301 325.008406231 328.716473349 c 128,-1,6
 325.988478426 326.064130396 325.988478426 326.064130396 326.770274201 323.376305366 c 128,-1,7
 327.552069976 320.688480336 327.552069976 320.688480336 328.133070395 317.971634142 c 0,8,9
 329.87925386 309.806215087 329.87925386 309.806215087 329.762336373 301.677945119 c 128,-1,10
 329.645528727 293.557311491 329.645528727 293.557311491 327.695700035 285.392386969 c 128,-1,11
 325.75055952 277.247094228 325.75055952 277.247094228 322.025098093 269.357159321 c 2,12,-1
 312.774357779 253.813939835 l 2,13,14
 307.25412214 246.156666514 307.25412214 246.156666514 300.046356967 238.948760219 c 2,15,-1
 269.422195588 208.324598842 l 2,16,17
 241.406807895 180.309786426 241.406807895 180.309786426 209.512327005 179.492357371 c 0,18,19
 198.828491144 179.218539532 198.828491144 179.218539532 188.556361817 182.1365614 c 128,-1,20
 178.284232489 185.054583268 178.284232489 185.054583268 168.549597942 191.076409606 c 128,-1,21
 158.814963395 197.098235944 158.814963395 197.098235944 149.550529793 206.213201587 c 2,22,-1
 117.869658657 237.893096157 l 2,23,24
 103.177634245 252.58512057 103.177634245 252.58512057 95.533930252 268.845295631 c 0,25,26
 91.6973979228 277.006612102 91.6973979228 277.006612102 89.7069556259 285.223414867 c 128,-1,27
 87.716513329 293.440217631 87.716513329 293.440217631 87.5947581173 301.675677622 c 0,28,29
 87.3511210175 318.15516594 87.3511210175 318.15516594 94.7160615713 334.528358247 c 0,30,31
 97.1612654285 339.964355008 97.1612654285 339.964355008 100.41910629 345.213229088 c 128,-1,32
 103.67694715 350.462103168 103.67694715 350.462103168 107.719921606 355.493376835 c 128,-1,33
 111.762896061 360.524650502 111.762896061 360.524650502 116.604788357 365.366447601 c 2,34,-1
 146.172393032 394.935028843 l 2,35,36
 150.260519802 399.023155612 150.260519802 399.023155612 154.449430107 402.536586865 c 128,-1,37
 158.638340413 406.050018118 158.638340413 406.050018118 162.939382745 408.994160024 c 128,-1,38
 167.240425077 411.93830193 167.240425077 411.93830193 171.636509092 414.299649369 c 128,-1,39
 176.032593107 416.660996809 176.032593107 416.660996809 180.538859938 418.441966127 c 128,-1,40
 185.045126769 420.222935445 185.045126769 420.222935445 189.640440587 421.413210668 c 128,-1,41
 194.235754405 422.603485892 194.235754405 422.603485892 198.939301828 423.20229422 c 128,-1,42
 203.642849252 423.801102548 203.642849252 423.801102548 208.429701808 423.80111783 c 0,43,44
 225.143074076 423.801171189 225.143074076 423.801171189 240.741716051 416.541714819 c 128,-1,45
 256.340358027 409.28225845 256.340358027 409.28225845 270.68788824 394.935099132 c 2,0,-1
405.29049335 163.95261121 m 2,46,-1
 435.9220089 133.321069137 l 2,47,48
 450.283800318 118.857348131 450.283800318 118.857348131 457.436485361 103.168288697 c 128,-1,49
 464.589170403 87.4792292634 464.589170403 87.4792292634 464.359491919 70.6982740716 c 128,-1,50
 464.13005533 53.9349924808 464.13005533 53.9349924808 456.660335626 38.2215253581 c 128,-1,51
 449.190615921 22.5080582354 449.190615921 22.5080582354 434.648896031 7.96633834471 c 2,52,-1
 404.024872593 -22.6576850925 l 2,53,54
 394.755008222 -31.9275494631 394.755008222 -31.9275494631 385.026184969 -38.2344274613 c 128,-1,55
 375.297361717 -44.5413054596 375.297361717 -44.5413054596 365.037068768 -47.8790940556 c 128,-1,56
 354.776775819 -51.2168826516 354.776775819 -51.2168826516 344.115394238 -51.4901162178 c 0,57,58
 312.14548335 -52.3094521262 312.14548335 -52.3094521262 284.152861782 -24.7690132176 c 2,59,-1
 252.473174282 6.91067428239 l 2,60,61
 222.690130363 36.6937182015 222.690130363 36.6937182015 222.235001556 70.7041517355 c 128,-1,62
 221.779323936 104.755596512 221.779323936 104.755596512 251.207549282 134.384247593 c 2,63,-1
 280.775908657 163.952606968 l 2,64,65
 295.124294764 178.300993074 295.124294764 178.300993074 310.720731193 185.55980977 c 128,-1,66
 326.317167621 192.818626465 326.317167621 192.818626465 343.032936513 192.818694801 c 0,67,68
 376.424019692 192.818831307 376.424019692 192.818831307 405.29049335 163.95261121 c 2,46,-1
141.271099572 163.972004982 m 2,69,-1
 171.939889151 133.303157864 l 2,70,71
 200.754539976 104.129666845 200.754539976 104.129666845 200.299941198 70.6280925616 c 0,72,73
 200.072581164 53.8728361936 200.072581164 53.8728361936 192.617842795 38.1766914666 c 128,-1,74
 185.163104425 22.4805467395 185.163104425 22.4805467395 170.648902553 7.96634486785 c 2,75,-1
 140.006125842 -22.6764379995 l 2,76,77
 126.037305328 -36.5631764632 126.037305328 -36.5631764632 111.020941559 -43.7922441264 c 128,-1,78
 96.0045777891 -51.0213117897 96.0045777891 -51.0213117897 80.0456853366 -51.4322135238 c 0,79,80
 48.1053346567 -52.2545980044 48.1053346567 -52.2545980044 20.1529038153 -24.7690552503 c 2,81,-1
 -11.4783882673 6.86219614458 l 2,82,83
 -41.4826572603 36.4131525528 -41.4826572603 36.4131525528 -41.9290216292 70.5113294998 c 128,-1,84
 -42.3757498312 104.63729998 -42.3757498312 104.63729998 -12.7924996434 134.384198666 c 2,85,-1
 16.7276162703 163.904392191 l 2,86,87
 45.3574888311 192.930307775 45.3574888311 192.930307775 78.780053572 192.911226646 c 128,-1,88
 112.183450202 192.89215646 112.183450202 192.89215646 141.271099572 163.972004982 c 2,69,-1
EndSplineSet
EndChar
